<svg width="28" height="18" viewBox="0 0 28 18" fill="none" xmlns="http://www.w3.org/2000/svg">
<path fill-rule="evenodd" clip-rule="evenodd" d="M27.9969 9C27.9969 8.73482 27.8915 8.4805 27.704 8.29299C27.5165 8.10548 27.2622 8.00014 26.997 8.00014H3.41433L9.70745 1.70902C9.80041 1.61606 9.87415 1.5057 9.92447 1.38424C9.97478 1.26277 10.0007 1.13259 10.0007 1.00112C10.0007 0.869653 9.97478 0.739471 9.92447 0.61801C9.87415 0.496548 9.80041 0.386185 9.70745 0.293222C9.61449 0.200259 9.50412 0.126517 9.38266 0.076206C9.2612 0.0258949 9.13102 0 8.99955 0C8.86808 0 8.7379 0.0258949 8.61644 0.076206C8.49497 0.126517 8.38461 0.200259 8.29165 0.293222L0.29277 8.2921C0.199656 8.38498 0.125781 8.49531 0.0753752 8.61679C0.0249694 8.73826 -0.000976563 8.86848 -0.000976562 9C-0.000976563 9.13152 0.0249694 9.26174 0.0753752 9.38321C0.125781 9.50469 0.199656 9.61502 0.29277 9.7079L8.29165 17.7068C8.38461 17.7997 8.49497 17.8735 8.61644 17.9238C8.7379 17.9741 8.86808 18 8.99955 18C9.13102 18 9.2612 17.9741 9.38266 17.9238C9.50412 17.8735 9.61449 17.7997 9.70745 17.7068C9.80041 17.6138 9.87415 17.5035 9.92447 17.382C9.97478 17.2605 10.0007 17.1303 10.0007 16.9989C10.0007 16.8674 9.97478 16.7372 9.92447 16.6158C9.87415 16.4943 9.80041 16.3839 9.70745 16.291L3.41433 9.99986H26.997C27.2622 9.99986 27.5165 9.89452 27.704 9.70701C27.8915 9.5195 27.9969 9.26518 27.9969 9Z" fill="black" fill-opacity="0.6"/>
</svg>
