<svg width="18" height="19" viewBox="0 0 18 19" fill="none" xmlns="http://www.w3.org/2000/svg">
<g clip-path="url(#clip0_1562_3637)">
<path d="M12.6374 0.5H5.36206C3.94047 0.501678 2.57758 1.06715 1.57236 2.07236C0.567147 3.07758 0.00167806 4.44047 0 5.86206L0 13.1374C0.00153823 14.5591 0.566945 15.9221 1.57218 16.9274C2.57741 17.9328 3.94038 18.4983 5.36206 18.5H12.6374C14.0592 18.4985 15.4223 17.933 16.4276 16.9276C17.433 15.9223 17.9985 14.5592 18 13.1374V5.86206C17.9983 4.44038 17.4328 3.07741 16.4274 2.07218C15.4221 1.06695 14.0591 0.501538 12.6374 0.5V0.5ZM16.1887 13.1374C16.1887 14.0793 15.8145 14.9826 15.1485 15.6485C14.4826 16.3145 13.5793 16.6887 12.6374 16.6887H5.36206C4.4202 16.6887 3.51692 16.3145 2.85093 15.6485C2.18493 14.9826 1.81078 14.0793 1.81078 13.1374V5.86206C1.81078 4.9202 2.18493 4.01692 2.85093 3.35093C3.51692 2.68493 4.4202 2.31078 5.36206 2.31078H12.6374C13.5793 2.31078 14.4826 2.68493 15.1485 3.35093C15.8145 4.01692 16.1887 4.9202 16.1887 5.86206V13.1374Z" fill="black" fill-opacity="0.6"/>
<path d="M8.99998 4.84448C8.07918 4.84448 7.17907 5.11753 6.41346 5.6291C5.64785 6.14066 5.05112 6.86777 4.69875 7.71847C4.34638 8.56917 4.25418 9.50525 4.43382 10.4084C4.61346 11.3115 5.05686 12.141 5.70796 12.7921C6.35906 13.4432 7.18861 13.8866 8.09171 14.0662C8.99481 14.2459 9.9309 14.1537 10.7816 13.8013C11.6323 13.4489 12.3594 12.8522 12.871 12.0866C13.3825 11.321 13.6556 10.4209 13.6556 9.50009C13.6542 8.26578 13.1632 7.08242 12.2904 6.20962C11.4176 5.33683 10.2343 4.84588 8.99998 4.84448ZM8.99998 12.3444C8.43732 12.3444 7.8873 12.1775 7.41947 11.865C6.95164 11.5524 6.58701 11.1081 6.3717 10.5882C6.15638 10.0684 6.10004 9.49641 6.20981 8.94456C6.31958 8.39272 6.59052 7.88582 6.98837 7.48796C7.38623 7.0901 7.89313 6.81916 8.44497 6.70939C8.99682 6.59963 9.56882 6.65596 10.0886 6.87128C10.6085 7.0866 11.0528 7.45123 11.3654 7.91906C11.678 8.38689 11.8448 8.93691 11.8448 9.49956C11.8448 10.2541 11.5451 10.9777 11.0116 11.5112C10.4781 12.0447 9.75447 12.3444 8.99998 12.3444Z" fill="black" fill-opacity="0.6"/>
<path d="M13.664 5.99476C14.28 5.99476 14.7794 5.49537 14.7794 4.87934C14.7794 4.26331 14.28 3.76392 13.664 3.76392C13.048 3.76392 12.5486 4.26331 12.5486 4.87934C12.5486 5.49537 13.048 5.99476 13.664 5.99476Z" fill="black" fill-opacity="0.6"/>
</g>
<defs>
<clipPath id="clip0_1562_3637">
<rect width="18" height="18" fill="white" transform="translate(0 0.5)"/>
</clipPath>
</defs>
</svg>
