<svg width="18" height="19" viewBox="0 0 18 19" fill="none" xmlns="http://www.w3.org/2000/svg">
<g clip-path="url(#clip0_1562_3641)">
<path d="M15.5766 0.5H2.42547C2.10681 0.499853 1.79125 0.56249 1.49681 0.684333C1.20236 0.806175 0.934812 0.984836 0.709436 1.21011C0.484059 1.43538 0.305275 1.70285 0.183296 1.99724C0.0613178 2.29162 -0.00146481 2.60716 -0.00146478 2.92581V16.0742C-0.0015384 16.3928 0.0611569 16.7082 0.183039 17.0026C0.304922 17.2969 0.483603 17.5644 0.708875 17.7897C0.934148 18.0149 1.2016 18.1936 1.49594 18.3155C1.79029 18.4374 2.10577 18.5001 2.42435 18.5H8.90831L8.91952 12.0676H7.2502C7.14617 12.0676 7.0464 12.0263 6.97283 11.9527C6.89927 11.8791 6.85795 11.7794 6.85795 11.6753L6.8501 9.60199C6.84966 9.55019 6.85947 9.49882 6.87899 9.45084C6.8985 9.40286 6.92732 9.35922 6.96379 9.32244C7.00026 9.28566 7.04365 9.25647 7.09146 9.23655C7.13928 9.21662 7.19056 9.20637 7.24235 9.20637H8.90831V7.20251C8.90831 4.87756 10.3283 3.6117 12.4022 3.6117H14.104C14.208 3.6117 14.3078 3.65303 14.3814 3.72659C14.4549 3.80015 14.4963 3.89992 14.4963 4.00395V5.75229C14.4963 5.85632 14.4549 5.95609 14.3814 6.02965C14.3078 6.10322 14.208 6.14454 14.104 6.14454H13.0617C11.9337 6.14454 11.7169 6.68025 11.7169 7.467V9.20413H14.1953C14.2512 9.2037 14.3065 9.2152 14.3575 9.23786C14.4085 9.26051 14.4541 9.2938 14.4912 9.33549C14.5284 9.37719 14.5562 9.42633 14.5728 9.47963C14.5894 9.53293 14.5945 9.58917 14.5876 9.64457L14.3416 11.7179C14.3307 11.8141 14.2846 11.9028 14.2122 11.9671C14.1398 12.0313 14.0461 12.0665 13.9493 12.0659H11.7264L11.7152 18.4983H15.5766C16.2199 18.4983 16.8367 18.2428 17.2916 17.788C17.7464 17.3332 18.0019 16.7163 18.0019 16.0731V2.92581C18.0019 2.28255 17.7464 1.66562 17.2916 1.2107C16.8368 0.755791 16.2199 0.500149 15.5766 0.5Z" fill="black" fill-opacity="0.6"/>
</g>
<defs>
<clipPath id="clip0_1562_3641">
<rect width="18" height="18" fill="white" transform="translate(0 0.5)"/>
</clipPath>
</defs>
</svg>
