<svg width="122" height="36" viewBox="0 0 122 36" fill="none" xmlns="http://www.w3.org/2000/svg">
<g clip-path="url(#clip0_1102_1803)">
<path d="M121.192 31.7497C121.192 32.2025 121.102 32.651 120.928 33.0693C120.754 33.4877 120.499 33.8678 120.177 34.1879C119.856 34.5081 119.474 34.7619 119.054 34.9351C118.634 35.1083 118.184 35.1976 117.729 35.1976H4.27602C3.3567 35.1985 2.47468 34.8359 1.82375 34.1894C1.17282 33.5428 0.806231 32.6652 0.804688 31.7497V4.25366C0.806229 3.33765 1.17261 2.4596 1.82339 1.81227C2.47417 1.16493 3.35622 0.801119 4.27602 0.800659H117.724C118.643 0.800659 119.525 1.16438 120.175 1.8117C120.825 2.45902 121.191 3.337 121.191 4.25252V31.7491L121.192 31.7497Z" fill="white"/>
<path d="M117.725 36.0026H4.27596C3.14336 36.0024 2.05708 35.5548 1.25545 34.7579C0.453821 33.9611 0.00231299 32.8802 0 31.7523V4.25741C0.00184969 3.12891 0.453073 2.04713 1.25467 1.24949C2.05627 0.451843 3.14279 0.00323906 4.27596 0.00231934H117.724C118.857 0.00354516 119.943 0.452192 120.745 1.24977C121.547 2.04735 121.998 3.12901 122 4.25741V31.7523C121.998 32.8802 121.547 33.9611 120.745 34.7579C119.944 35.5548 118.857 36.0026 117.725 36.0026Z" fill="#A6A6A6"/>
<path d="M121.192 31.7497C121.192 32.2025 121.102 32.651 120.928 33.0693C120.754 33.4877 120.499 33.8678 120.177 34.1879C119.856 34.5081 119.474 34.7619 119.054 34.9351C118.634 35.1083 118.184 35.1976 117.729 35.1976H4.27602C3.3567 35.1985 2.47468 34.8359 1.82375 34.1894C1.17282 33.5428 0.806231 32.6652 0.804688 31.7497V4.25366C0.806229 3.33765 1.17261 2.4596 1.82339 1.81227C2.47417 1.16493 3.35622 0.801119 4.27602 0.800659H117.724C118.643 0.800659 119.525 1.16438 120.175 1.8117C120.825 2.45902 121.191 3.337 121.191 4.25252V31.7491L121.192 31.7497Z" fill="black" fill-opacity="0.8"/>
<path d="M27.2412 17.8106C27.2528 16.9303 27.4877 16.0671 27.9243 15.3015C28.3608 14.536 28.9846 13.8929 29.7378 13.4321C29.2593 12.7516 28.628 12.1917 27.8941 11.7967C27.1602 11.4018 26.344 11.1828 25.5102 11.1569C23.7315 10.9701 22.0063 12.2155 21.0998 12.2155C20.1758 12.2155 18.7807 11.172 17.2768 11.2044C16.3048 11.2357 15.3574 11.517 14.5271 12.0212C13.6967 12.5255 13.0117 13.2353 12.5386 14.0815C10.4902 17.6128 12.0181 22.8023 13.9814 25.6574C14.963 27.0566 16.1106 28.6148 17.6122 28.562C19.0823 28.504 19.6308 27.6299 21.4037 27.6299C23.1609 27.6299 23.6744 28.562 25.2074 28.5272C26.7847 28.5022 27.7769 27.1228 28.7254 25.7115C29.431 24.7157 29.9738 23.6148 30.3335 22.4499C29.4182 22.0638 28.637 21.4182 28.0872 20.5934C27.5374 19.7687 27.2432 18.8011 27.2412 17.8112V17.8106ZM24.3475 9.27804C25.208 8.25112 25.6319 6.93012 25.5288 5.59656C24.2157 5.73464 23.0028 6.35955 22.1309 7.34712C21.7048 7.82965 21.3784 8.39139 21.1705 8.99973C20.9626 9.60806 20.8772 10.2512 20.9193 10.8924C21.5761 10.8994 22.2259 10.7577 22.8198 10.4782C23.4136 10.1987 23.936 9.78843 24.3475 9.2786V9.27804Z" fill="white"/>
<path d="M48.5239 28.3617H46.4709L45.3455 24.843H41.4357L40.3644 28.3617H38.365L42.2392 16.3821H44.6322L48.5239 28.3617ZM45.0071 23.364L43.9906 20.2363C43.8823 19.9162 43.6799 19.1636 43.3833 17.9784H43.3478C43.2282 18.4882 43.0377 19.2409 42.7761 20.2363L41.7758 23.364H45.0071ZM58.4697 23.9339C58.5397 25.2066 58.1083 26.4564 57.2674 27.4172C56.9284 27.7854 56.5145 28.0771 56.0533 28.2734C55.592 28.4697 55.094 28.5659 54.5926 28.5554C54.1067 28.5949 53.6192 28.5016 53.1827 28.2856C52.7461 28.0695 52.377 27.7389 52.1151 27.3294V31.8634H50.1867V22.5616C50.1867 21.6385 50.1631 20.6912 50.1157 19.7202H51.8106L51.9183 21.0899H51.9544C52.2465 20.6446 52.639 20.2734 53.1006 20.0058C53.5622 19.7383 54.0802 19.5816 54.6132 19.5486C55.1463 19.5156 55.6797 19.607 56.171 19.8156C56.6624 20.0242 57.098 20.3443 57.4432 20.7502C58.159 21.6536 58.5234 22.7838 58.4691 23.9334L58.4697 23.9339ZM56.5058 24.0041C56.5356 23.2688 56.3359 22.5424 55.9341 21.9249C55.7479 21.6546 55.4967 21.4348 55.2036 21.2858C54.9104 21.1369 54.5845 21.0633 54.2554 21.0718C53.7819 21.0718 53.3237 21.2386 52.9618 21.5426C52.5758 21.8569 52.3089 22.2929 52.2048 22.7785C52.1517 22.9691 52.1214 23.1652 52.1146 23.3629V24.8037C52.0995 25.3886 52.3076 25.9576 52.6968 26.396C52.8847 26.6081 53.1175 26.7762 53.3783 26.8883C53.639 27.0005 53.9215 27.0541 54.2054 27.0449C54.5356 27.0579 54.8637 26.9882 55.1598 26.8422C55.4559 26.6962 55.7105 26.4787 55.9003 26.2094C56.3317 25.5575 56.5434 24.7856 56.5047 24.0058L56.5058 24.0041ZM68.4493 23.9339C68.5196 25.2066 68.0882 26.4566 67.2469 27.4172C66.9075 27.7858 66.493 28.0777 66.0311 28.2739C65.5693 28.4702 65.0707 28.5663 64.5687 28.5554C64.0828 28.5949 63.5953 28.5016 63.1588 28.2856C62.7222 28.0695 62.3531 27.7389 62.0912 27.3294V31.8634H60.1634V22.5616C60.1634 21.6385 60.1396 20.6912 60.0918 19.7202H61.7873L61.8944 21.0899H61.9305C62.2228 20.6446 62.6154 20.2734 63.0772 20.0058C63.5389 19.7383 64.057 19.5816 64.5902 19.5486C65.1234 19.5156 65.657 19.607 66.1484 19.8156C66.6399 20.0241 67.0757 20.3443 67.4211 20.7502C68.1358 21.6541 68.4997 22.7841 68.4458 23.9334L68.4493 23.9339ZM66.4848 24.0041C66.5142 23.2687 66.3141 22.5423 65.9119 21.9249C65.7261 21.6547 65.4754 21.4351 65.1827 21.2861C64.8899 21.1372 64.5643 21.0634 64.2356 21.0718C63.7614 21.0719 63.3025 21.2386 62.9396 21.5426C62.5536 21.8569 62.2866 22.2929 62.1826 22.7785C62.1297 22.9692 62.0993 23.1652 62.0918 23.3629V24.8037C62.0773 25.3886 62.2852 25.9574 62.674 26.396C62.8623 26.608 63.0952 26.7762 63.3562 26.8883C63.6172 27.0005 63.8997 27.0539 64.1838 27.0449C64.514 27.0583 64.8422 26.9888 65.1384 26.8428C65.4345 26.6967 65.6891 26.479 65.8787 26.2094C66.3104 25.5576 66.5223 24.7857 66.4837 24.0058L66.4848 24.0041ZM79.6067 24.999C79.622 25.4665 79.5342 25.9317 79.3494 26.3617C79.1646 26.7917 78.8873 27.176 78.5371 27.4877C77.6154 28.2343 76.4457 28.609 75.2598 28.5373C74.1707 28.5892 73.0894 28.3302 72.143 27.7909L72.5896 26.1907C73.432 26.6883 74.395 26.9468 75.3744 26.9382C75.9791 26.9749 76.5779 26.802 77.0693 26.4492C77.2662 26.2944 77.4239 26.0957 77.5297 25.8691C77.6355 25.6425 77.6864 25.3943 77.6783 25.1446C77.6831 24.9168 77.6412 24.6906 77.5551 24.4795C77.469 24.2684 77.3405 24.0771 77.1776 23.9172C76.6939 23.4986 76.1286 23.184 75.517 22.9934C73.4105 22.211 72.3569 21.0672 72.3561 19.5619C72.3451 19.1011 72.4399 18.6438 72.6332 18.225C72.8265 17.8062 73.1133 17.4369 73.4717 17.1451C74.3096 16.485 75.3594 16.1501 76.4265 16.2023C77.37 16.1693 78.3074 16.3647 79.1584 16.7717L78.6739 18.3374C77.9621 17.9628 77.1669 17.7732 76.3619 17.7864C75.7869 17.752 75.2192 17.9289 74.7666 18.2839C74.6123 18.4194 74.4891 18.5869 74.4057 18.7742C74.3223 18.9616 74.2806 19.1645 74.2833 19.3694C74.2793 19.594 74.3271 19.8167 74.4232 20.02C74.5193 20.2233 74.6611 20.4018 74.8376 20.5418C75.3668 20.9402 75.9565 21.2521 76.5843 21.4656C77.4487 21.7688 78.2308 22.2672 78.869 22.922C79.3666 23.4984 79.6288 24.2399 79.6038 24.9996L79.6067 24.999ZM85.9968 21.1618H83.8722V25.3563C83.8722 26.4225 84.2469 26.9551 84.9965 26.9543C85.2846 26.9614 85.5725 26.9317 85.853 26.8657L85.9059 28.3226C85.4227 28.4801 84.9155 28.5523 84.4073 28.5356C84.0769 28.5537 83.7464 28.501 83.4383 28.381C83.1301 28.2609 82.8514 28.0765 82.621 27.8399C82.1289 27.1677 81.9011 26.3393 81.9805 25.5112V21.1565H80.7147V19.7156H81.9805V18.1344L83.8739 17.5644V19.7151H85.9986V21.1596L85.9968 21.1618ZM95.5653 23.9699C95.6123 25.1645 95.2041 26.3328 94.4224 27.2403C94.0211 27.677 93.5286 28.021 92.9797 28.2482C92.4307 28.4754 91.8385 28.5802 91.2445 28.5554C90.6754 28.5806 90.1077 28.4807 89.5816 28.2629C89.0556 28.0452 88.584 27.7148 88.2006 27.2952C87.4307 26.4165 87.025 25.2792 87.0658 24.1137C87.0179 22.9091 87.4364 21.7322 88.2349 20.8261C88.6356 20.3978 89.125 20.0616 89.6692 19.8405C90.2135 19.6194 90.7995 19.5188 91.3866 19.5458C91.9595 19.5226 92.5305 19.6234 93.0605 19.8413C93.5904 20.0593 94.0666 20.389 94.4562 20.8079C95.2169 21.6825 95.6127 22.8139 95.5624 23.9699H95.5653ZM93.5671 24.0129C93.5874 23.2993 93.4088 22.5939 93.0512 21.9753C92.8878 21.6596 92.6389 21.3959 92.3326 21.2139C92.0263 21.032 91.675 20.9393 91.3184 20.9461C90.9567 20.9359 90.5993 21.0269 90.2868 21.2088C89.9744 21.3908 89.7193 21.6563 89.5508 21.9753C89.189 22.6055 89.0098 23.3233 89.0331 24.0489C89.0124 24.7633 89.1916 25.4694 89.5508 26.0882C89.7213 26.401 89.9739 26.6618 90.2815 26.843C90.5892 27.0242 90.9404 27.1189 91.2978 27.1171C91.6552 27.1153 92.0054 27.0171 92.3112 26.8328C92.617 26.6486 92.8669 26.3852 93.0343 26.0707C93.4006 25.4472 93.5851 24.7345 93.5671 24.0123V24.0129ZM101.835 21.4087C101.634 21.3731 101.431 21.3554 101.228 21.3555C100.922 21.3413 100.618 21.404 100.343 21.5378C100.068 21.6717 99.8318 21.8724 99.6555 22.1214C99.3195 22.6257 99.1513 23.2224 99.1746 23.8272V28.3595H97.2468V22.4416C97.2491 21.5343 97.2297 20.6274 97.1886 19.7213H98.8678L98.9382 21.3745H98.9917C99.1743 20.8353 99.5088 20.3599 99.9554 20.005C100.358 19.7051 100.847 19.5426 101.349 19.5412C101.511 19.5403 101.672 19.5518 101.831 19.5763V21.407L101.835 21.4087ZM110.457 23.6318C110.462 23.9234 110.438 24.2146 110.386 24.5016H104.603C104.59 24.8692 104.658 25.2352 104.803 25.5735C104.948 25.9118 105.167 26.214 105.442 26.4585C105.981 26.878 106.651 27.0921 107.334 27.0622C108.133 27.0735 108.926 26.936 109.674 26.6565L109.976 27.99C109.053 28.3656 108.062 28.547 107.065 28.5228C106.483 28.5548 105.901 28.4664 105.356 28.2632C104.81 28.06 104.313 27.7464 103.895 27.3422C103.501 26.916 103.197 26.4162 102.999 25.8716C102.802 25.3271 102.715 24.7489 102.744 24.1706C102.701 22.9941 103.081 21.8411 103.816 20.9189C104.177 20.467 104.64 20.1059 105.167 19.8651C105.694 19.6244 106.27 19.5107 106.85 19.533C107.403 19.5025 107.954 19.614 108.451 19.8566C108.948 20.0993 109.375 20.4651 109.689 20.9189C110.22 21.7241 110.487 22.6734 110.454 23.6361L110.457 23.6318ZM108.619 23.1338C108.645 22.6158 108.514 22.1021 108.244 21.6587C108.086 21.3989 107.859 21.187 107.588 21.0458C107.318 20.9045 107.014 20.839 106.709 20.8566C106.409 20.8513 106.111 20.9201 105.844 21.0565C105.576 21.193 105.346 21.3929 105.175 21.6389C104.847 22.0731 104.649 22.5911 104.605 23.1327H108.622L108.619 23.1338Z" fill="white"/>
<path d="M40.8796 12.146C40.4167 12.1485 39.9541 12.1248 39.4939 12.0752V6.28333C40.0333 6.20042 40.5784 6.15945 41.1242 6.16131C43.3367 6.16131 44.3527 7.24395 44.3527 9.00898C44.3544 11.0454 43.1521 12.146 40.8796 12.146ZM41.2028 6.90366C40.9472 6.89858 40.6916 6.91896 40.44 6.96453V11.3677C40.6528 11.3898 40.8667 11.3985 41.0805 11.3935C42.5285 11.3935 43.3512 10.5728 43.3512 9.03559C43.3536 7.66601 42.6083 6.90366 41.2034 6.90366H41.2028ZM47.527 12.1893C47.2442 12.1936 46.9636 12.1392 46.7032 12.0291C46.4427 11.919 46.2083 11.7559 46.0149 11.5503C45.8216 11.3447 45.6735 11.1011 45.5803 10.8351C45.487 10.5692 45.4507 10.2867 45.4735 10.0059C45.4484 9.71573 45.4851 9.4236 45.5812 9.14856C45.6773 8.87352 45.8305 8.62158 46.031 8.4096C46.2315 8.19762 46.4746 8.03033 46.7446 7.91838C47.0145 7.80643 47.3052 7.75251 47.5975 7.76011C47.8803 7.75347 48.1613 7.80623 48.4223 7.91498C48.6832 8.02374 48.9182 8.18594 49.112 8.3912C49.3057 8.59646 49.4539 8.84 49.5468 9.10609C49.6396 9.37219 49.6752 9.65496 49.6511 9.93565C49.6755 10.226 49.6384 10.5183 49.5422 10.7935C49.446 11.0687 49.2928 11.3206 49.0926 11.533C48.8924 11.7455 48.6495 11.9138 48.3798 12.0268C48.1101 12.1399 47.8196 12.1952 47.527 12.1893ZM47.5631 8.45009C46.879 8.45009 46.44 9.08777 46.44 9.9784C46.44 10.8534 46.8878 11.4914 47.5538 11.4914C48.2199 11.4914 48.6676 10.8089 48.6676 9.96C48.6676 9.09662 48.2292 8.45236 47.5614 8.45236L47.5631 8.45009ZM56.7562 7.8476L55.4222 12.0931H54.5535L54.001 10.2488C53.8636 9.7983 53.7491 9.34101 53.658 8.87903H53.6406C53.5618 9.34361 53.4473 9.80166 53.2982 10.2488L52.7108 12.0931H51.8333L50.578 7.8476H51.5538L52.0365 9.866C52.1529 10.3473 52.2467 10.8007 52.3276 11.2298H52.3451C52.4155 10.8721 52.5285 10.425 52.6944 9.87534L53.3005 7.8493H54.0726L54.6548 9.83231C54.7946 10.313 54.9086 10.7845 54.9971 11.2304H55.0228C55.0922 10.7591 55.1894 10.2922 55.3139 9.83231L55.8321 7.8493H56.7637L56.7562 7.8476ZM61.6655 12.0931H60.7177V9.6579C60.7177 8.90701 60.4265 8.53135 59.8583 8.53135C59.7269 8.5359 59.5978 8.5666 59.4786 8.62166C59.3593 8.67673 59.2524 8.75494 59.164 8.85185C59.0756 8.94875 59.0077 9.06244 58.9641 9.18593C58.9206 9.30943 58.9023 9.44034 58.9104 9.57098V12.0956H57.9631V9.06476C57.9631 8.68844 57.9544 8.28597 57.9276 7.84703H58.7614L58.8056 8.50219H58.8312C58.9708 8.27073 59.1694 8.08026 59.4069 7.95009C59.6443 7.81992 59.9122 7.75481 60.1832 7.76125C61.0781 7.76125 61.6655 8.44305 61.6655 9.55286V12.0945V12.0931ZM64.2792 12.0931H63.3308V5.89998H64.2792V12.0931ZM67.7343 12.1893C67.4514 12.1936 67.1708 12.1392 66.9104 12.0291C66.65 11.919 66.4155 11.7559 66.2222 11.5503C66.0288 11.3447 65.8807 11.1011 65.7875 10.8351C65.6942 10.5692 65.6578 10.2867 65.6806 10.0059C65.6556 9.71578 65.6923 9.42356 65.7883 9.14856C65.8844 8.87356 66.0376 8.62186 66.238 8.40989C66.4384 8.19792 66.6815 8.03037 66.9514 7.91838C67.2212 7.80639 67.5119 7.75259 67.8041 7.76011C68.0869 7.75337 68.368 7.80597 68.6289 7.9147C68.8899 8.02343 69.1249 8.18591 69.3186 8.3912C69.5124 8.59649 69.6604 8.83996 69.7532 9.10609C69.846 9.37223 69.8814 9.65497 69.8571 9.93565C69.8818 10.2259 69.8449 10.518 69.7489 10.7932C69.6529 11.0684 69.4999 11.3205 69.2998 11.533C69.0997 11.7456 68.857 11.9137 68.5874 12.0268C68.3178 12.1399 68.0273 12.1952 67.7348 12.1893H67.7343ZM67.7692 8.45009C67.085 8.45009 66.6466 9.08777 66.6466 9.9784C66.6466 10.8534 67.0944 11.4914 67.7593 11.4914C68.4242 11.4914 68.8731 10.8089 68.8731 9.96C68.8731 9.09662 68.4364 8.45236 67.7668 8.45236L67.7692 8.45009ZM73.5915 12.0931L73.5229 11.605H73.4972C73.3541 11.7973 73.1653 11.9514 72.9478 12.0534C72.7302 12.1554 72.4907 12.202 72.2507 12.1893C72.081 12.1985 71.9114 12.1729 71.7521 12.114C71.5929 12.0551 71.4475 11.9642 71.325 11.847C71.2025 11.7299 71.1054 11.5889 71.0399 11.4328C70.9744 11.2767 70.9418 11.109 70.9441 10.9399C70.9441 9.8927 71.8565 9.35043 73.4361 9.35043V9.27285C73.4361 8.71331 73.1386 8.43254 72.5505 8.43254C72.1558 8.42571 71.768 8.53593 71.4361 8.74879L71.2434 8.12874C71.6867 7.87108 72.1942 7.74357 72.7072 7.76068C73.8216 7.76068 74.384 8.34621 74.384 9.51691V11.0826C74.3776 11.4219 74.398 11.7612 74.4451 12.0973H73.591L73.5915 12.0931ZM73.4611 9.9784C72.409 9.9784 71.8809 10.2324 71.8809 10.8349C71.8714 10.923 71.8814 11.0121 71.9105 11.0959C71.9396 11.1797 71.9869 11.2561 72.049 11.3196C72.1112 11.383 72.1866 11.4318 72.27 11.4628C72.3534 11.4938 72.4426 11.5061 72.5313 11.4988C72.7695 11.5054 73.0007 11.4185 73.175 11.2567C73.3493 11.0949 73.4527 10.8715 73.4629 10.6344L73.4611 9.9784ZM78.9866 12.0931L78.9417 11.4113H78.919C78.7927 11.6604 78.5956 11.8672 78.3522 12.0056C78.1087 12.1439 77.8299 12.2077 77.5502 12.1893C76.522 12.1893 75.761 11.2895 75.761 10.0226C75.761 8.69589 76.5505 7.76125 77.6282 7.76125C77.8628 7.73838 78.0992 7.7804 78.3113 7.88271C78.5234 7.98501 78.7031 8.14363 78.8306 8.34109H78.8492V5.90564H79.7977V10.9549C79.7977 11.3648 79.8075 11.7499 79.8331 12.099L78.9866 12.0931ZM78.8463 9.59533C78.8565 9.45706 78.8385 9.31821 78.7933 9.18707C78.7482 9.05592 78.6768 8.93497 78.5835 8.83203C78.4902 8.72908 78.3771 8.64617 78.2507 8.58797C78.1244 8.52978 77.9875 8.4975 77.8483 8.49341C77.145 8.49341 76.7158 9.11394 76.7158 9.98718C76.7158 10.843 77.1618 11.4294 77.8285 11.4294C77.9701 11.4235 78.1091 11.3894 78.2374 11.3292C78.3656 11.269 78.4804 11.1836 78.5752 11.0786C78.6699 10.9736 78.7427 10.851 78.7891 10.7176C78.8356 10.5843 78.8548 10.4429 78.8457 10.302V9.59477L78.8463 9.59533ZM85.8087 12.1893C85.5258 12.1937 85.2452 12.1392 84.9849 12.0291C84.7245 11.919 84.4901 11.756 84.2968 11.5503C84.1035 11.3447 83.9554 11.1008 83.8622 10.8349C83.7691 10.5689 83.7328 10.2866 83.7557 10.0059C83.7305 9.71581 83.7671 9.42356 83.8631 9.14856C83.9591 8.87356 84.1123 8.62187 84.3126 8.40989C84.513 8.19791 84.7561 8.03037 85.0259 7.91838C85.2958 7.80639 85.5863 7.75258 85.8785 7.76011C86.1614 7.75337 86.4424 7.80598 86.7034 7.9147C86.9644 8.02343 87.1995 8.18564 87.3933 8.39092C87.587 8.5962 87.7352 8.83996 87.828 9.10609C87.9209 9.37223 87.9563 9.65494 87.9321 9.93565C87.9567 10.2261 87.9198 10.5182 87.8236 10.7935C87.7275 11.0688 87.5743 11.3211 87.374 11.5336C87.1737 11.7461 86.9308 11.9144 86.6611 12.0274C86.3913 12.1404 86.1007 12.1954 85.8081 12.1893H85.8087ZM85.8436 8.45009C85.16 8.45009 84.7222 9.08777 84.7222 9.9784C84.7222 10.8534 85.1694 11.4914 85.8355 11.4914C86.5016 11.4914 86.9487 10.8089 86.9487 9.96C86.9487 9.09662 86.512 8.45236 85.8424 8.45236L85.8436 8.45009ZM93.029 12.0931H92.0805V9.6579C92.0805 8.90701 91.7894 8.53135 91.22 8.53135C91.0887 8.5359 90.9596 8.56659 90.8404 8.62166C90.7213 8.67674 90.6144 8.75492 90.5261 8.85185C90.4379 8.94877 90.37 9.06244 90.3266 9.18593C90.2831 9.30943 90.265 9.4404 90.2733 9.57098V12.0956H89.3248V9.06476C89.3248 8.68844 89.3155 8.28597 89.2899 7.84703H90.1231L90.1673 8.50219H90.1935C90.3326 8.2706 90.531 8.0801 90.7683 7.94981C91.0056 7.81952 91.2734 7.75421 91.5443 7.76068C92.4392 7.76068 93.0285 8.44251 93.0285 9.55117L93.029 12.0931ZM99.4039 8.55626H98.3617V10.6191C98.3617 11.141 98.5445 11.4056 98.9131 11.4056C99.0545 11.4069 99.1956 11.3919 99.3335 11.3609L99.3603 12.0781C99.1232 12.1562 98.874 12.192 98.6243 12.1837C97.8779 12.1837 97.4307 11.7726 97.4307 10.6981V8.55683H96.8089V7.8493H97.4307V7.07127L98.3623 6.79239V7.84817H99.4045V8.55683L99.4039 8.55626ZM104.421 12.0931H103.474V9.67348C103.474 8.91272 103.186 8.5288 102.614 8.5288C102.484 8.52599 102.354 8.55067 102.234 8.601C102.113 8.65132 102.005 8.72623 101.915 8.82099C101.826 8.91574 101.758 9.02832 101.715 9.15111C101.672 9.2739 101.655 9.40431 101.666 9.5339V12.0925H100.72V5.89941H101.666V8.45066H101.685C101.817 8.23255 102.006 8.05355 102.231 7.93225C102.456 7.81096 102.71 7.7518 102.966 7.76068C103.868 7.76068 104.421 8.45657 104.421 9.56929V12.0939V12.0931ZM109.56 10.1973H106.717C106.71 10.3712 106.741 10.5444 106.807 10.7055C106.874 10.8666 106.974 11.0118 107.101 11.131C107.228 11.2503 107.38 11.3409 107.546 11.3969C107.711 11.4528 107.887 11.4728 108.061 11.4555C108.453 11.4593 108.843 11.3908 109.211 11.2536L109.358 11.9093C108.904 12.0934 108.417 12.1827 107.927 12.1715C107.641 12.1934 107.353 12.153 107.083 12.0529C106.814 11.9527 106.57 11.7953 106.368 11.5917C106.166 11.388 106.011 11.143 105.913 10.8736C105.816 10.6043 105.779 10.3171 105.804 10.0319C105.804 8.73017 106.612 7.75077 107.821 7.75077C108.91 7.75077 109.594 8.55439 109.594 9.76974C109.6 9.91278 109.589 10.056 109.561 10.1964L109.56 10.1973ZM108.692 9.52512C108.692 8.8699 108.359 8.40706 107.754 8.40706C107.472 8.42925 107.208 8.55684 107.016 8.76408C106.824 8.97131 106.717 9.24307 106.717 9.52512H108.692Z" fill="white"/>
</g>
<defs>
<clipPath id="clip0_1102_1803">
<rect width="122" height="36" fill="white"/>
</clipPath>
</defs>
</svg>
