<svg width="95" height="40" viewBox="0 0 95 40" fill="none" xmlns="http://www.w3.org/2000/svg">
<rect width="40" height="40" rx="4" fill="black"/>
<path d="M11.2544 12.9759L6.62021 26.4205H3.81836L9.65643 10.9092H11.4462L11.2544 12.9759ZM15.1323 26.4205L10.4874 12.9759L10.285 10.9092H12.0854L17.9448 26.4205H15.1323ZM14.9086 20.6677V22.7877H6.47106V20.6677H14.9086Z" fill="white"/>
<path d="M21.8013 17.2373V26.4205H19.2338V14.8936H21.6522L21.8013 17.2373ZM21.3858 20.2309L20.5122 20.2203C20.5122 19.4248 20.6117 18.6897 20.8105 18.015C21.0094 17.3403 21.3006 16.7543 21.6841 16.2572C22.0676 15.7529 22.5435 15.3659 23.1117 15.096C23.687 14.819 24.351 14.6805 25.1039 14.6805C25.6294 14.6805 26.1088 14.7586 26.5421 14.9149C26.9824 15.064 27.3624 15.3019 27.682 15.6286C28.0087 15.9553 28.2573 16.3744 28.4277 16.8857C28.6053 17.3971 28.6941 18.015 28.6941 18.7394V26.4205H26.1266V18.9632C26.1266 18.4021 26.0414 17.9617 25.8709 17.6421C25.7076 17.3225 25.4696 17.0953 25.1571 16.9603C24.8517 16.8183 24.486 16.7472 24.0598 16.7472C23.5769 16.7472 23.1649 16.8396 22.824 17.0242C22.4902 17.2089 22.2168 17.461 22.0037 17.7806C21.7907 18.1002 21.6344 18.4695 21.535 18.8886C21.4355 19.3076 21.3858 19.7551 21.3858 20.2309ZM28.5343 19.5491L27.3304 19.8154C27.3304 19.1194 27.4263 18.4624 27.6181 17.8445C27.8169 17.2195 28.1046 16.6727 28.481 16.2039C28.8645 15.7281 29.3368 15.3552 29.8979 15.0853C30.459 14.8154 31.1017 14.6805 31.8262 14.6805C32.4157 14.6805 32.9412 14.7622 33.4029 14.9255C33.8716 15.0818 34.2694 15.3303 34.5961 15.6713C34.9228 16.0122 35.1713 16.4561 35.3418 17.0029C35.5122 17.5427 35.5975 18.1961 35.5975 18.9632V26.4205H33.0194V18.9525C33.0194 18.3701 32.9341 17.9191 32.7637 17.5995C32.6003 17.2799 32.3659 17.0597 32.0605 16.939C31.7551 16.8112 31.3894 16.7472 30.9632 16.7472C30.5655 16.7472 30.214 16.8218 29.9086 16.971C29.6103 17.113 29.3581 17.3154 29.1522 17.5782C28.9462 17.8339 28.7899 18.1286 28.6834 18.4624C28.584 18.7963 28.5343 19.1585 28.5343 19.5491Z" fill="white"/>
<path d="M53.598 27V12.4545H58.9247C59.9569 12.4545 60.8116 12.625 61.4886 12.9659C62.1657 13.3021 62.6723 13.759 63.0085 14.3366C63.3447 14.9096 63.5128 15.5559 63.5128 16.2756C63.5128 16.8816 63.4015 17.393 63.179 17.8097C62.9564 18.2216 62.6581 18.553 62.2841 18.804C61.9148 19.0502 61.5076 19.2301 61.0625 19.3438V19.4858C61.5455 19.5095 62.0166 19.6657 62.4759 19.9545C62.9399 20.2386 63.3234 20.6435 63.6264 21.169C63.9295 21.6946 64.081 22.3338 64.081 23.0866C64.081 23.83 63.9058 24.4976 63.5554 25.0895C63.2098 25.6766 62.6747 26.143 61.9503 26.4886C61.2259 26.8295 60.3002 27 59.1733 27H53.598ZM55.7926 25.1179H58.9602C60.0114 25.1179 60.7642 24.9143 61.2188 24.5071C61.6733 24.0999 61.9006 23.5909 61.9006 22.9801C61.9006 22.5208 61.7846 22.0994 61.5526 21.7159C61.3205 21.3324 60.9891 21.027 60.5582 20.7997C60.1321 20.5724 59.6255 20.4588 59.0384 20.4588H55.7926V25.1179ZM55.7926 18.7472H58.733C59.2254 18.7472 59.6681 18.6525 60.0611 18.4631C60.4588 18.2737 60.7737 18.0085 61.0057 17.6676C61.2424 17.322 61.3608 16.9148 61.3608 16.446C61.3608 15.8447 61.1501 15.3404 60.7287 14.9332C60.3073 14.526 59.661 14.3224 58.7898 14.3224H55.7926V18.7472ZM68.6371 12.4545V27H66.5135V12.4545H68.6371ZM76.0891 27.2202C75.0664 27.2202 74.1739 26.9858 73.4116 26.517C72.6493 26.0483 72.0574 25.3925 71.636 24.5497C71.2146 23.7069 71.0039 22.7221 71.0039 21.5952C71.0039 20.4635 71.2146 19.474 71.636 18.6264C72.0574 17.7789 72.6493 17.1207 73.4116 16.652C74.1739 16.1832 75.0664 15.9489 76.0891 15.9489C77.1119 15.9489 78.0044 16.1832 78.7667 16.652C79.529 17.1207 80.1209 17.7789 80.5423 18.6264C80.9637 19.474 81.1744 20.4635 81.1744 21.5952C81.1744 22.7221 80.9637 23.7069 80.5423 24.5497C80.1209 25.3925 79.529 26.0483 78.7667 26.517C78.0044 26.9858 77.1119 27.2202 76.0891 27.2202ZM76.0962 25.4375C76.7591 25.4375 77.3084 25.2623 77.744 24.9119C78.1796 24.5616 78.5015 24.0952 78.7099 23.5128C78.9229 22.9304 79.0295 22.2888 79.0295 21.5881C79.0295 20.892 78.9229 20.2528 78.7099 19.6705C78.5015 19.0833 78.1796 18.6122 77.744 18.2571C77.3084 17.902 76.7591 17.7244 76.0962 17.7244C75.4286 17.7244 74.8746 17.902 74.4343 18.2571C73.9987 18.6122 73.6744 19.0833 73.4613 19.6705C73.253 20.2528 73.1488 20.892 73.1488 21.5881C73.1488 22.2888 73.253 22.9304 73.4613 23.5128C73.6744 24.0952 73.9987 24.5616 74.4343 24.9119C74.8746 25.2623 75.4286 25.4375 76.0962 25.4375ZM88.1186 31.3182C87.2521 31.3182 86.5064 31.2045 85.8814 30.9773C85.2611 30.75 84.7545 30.4493 84.3615 30.0753C83.9685 29.7012 83.675 29.2917 83.4808 28.8466L85.3061 28.0938C85.4339 28.3021 85.6044 28.5223 85.8175 28.7543C86.0353 28.991 86.3288 29.1922 86.6982 29.358C87.0722 29.5237 87.5528 29.6065 88.1399 29.6065C88.9448 29.6065 89.6101 29.41 90.1357 29.017C90.6612 28.6288 90.924 28.0085 90.924 27.1562V25.0114H90.7891C90.6612 25.2434 90.4766 25.5014 90.2351 25.7855C89.9983 26.0696 89.6716 26.3158 89.255 26.5241C88.8383 26.7325 88.2962 26.8366 87.6286 26.8366C86.7668 26.8366 85.9903 26.6354 85.299 26.233C84.6125 25.8258 84.0679 25.2268 83.6655 24.4361C83.2678 23.6406 83.0689 22.6629 83.0689 21.5028C83.0689 20.3428 83.2654 19.3485 83.6584 18.5199C84.0561 17.6913 84.6006 17.0568 85.2919 16.6165C85.9832 16.1714 86.7668 15.9489 87.6428 15.9489C88.3198 15.9489 88.8667 16.0625 89.2834 16.2898C89.7 16.5123 90.0244 16.7727 90.2564 17.071C90.4931 17.3693 90.6754 17.6321 90.8033 17.8594H90.9595V16.0909H93.0405V27.2415C93.0405 28.179 92.8227 28.9484 92.3871 29.5497C91.9515 30.151 91.362 30.5961 90.6186 30.8849C89.88 31.1738 89.0466 31.3182 88.1186 31.3182ZM88.0973 25.0753C88.7081 25.0753 89.2242 24.9332 89.6456 24.6491C90.0717 24.3603 90.3937 23.9484 90.6115 23.4134C90.834 22.8736 90.9453 22.2273 90.9453 21.4744C90.9453 20.7405 90.8364 20.0942 90.6186 19.5355C90.4008 18.9768 90.0812 18.5412 89.6598 18.2287C89.2384 17.9115 88.7176 17.7528 88.0973 17.7528C87.4581 17.7528 86.9254 17.9186 86.4993 18.25C86.0732 18.5767 85.7512 19.0218 85.5334 19.5852C85.3203 20.1487 85.2138 20.7784 85.2138 21.4744C85.2138 22.1894 85.3227 22.8168 85.5405 23.3565C85.7583 23.8963 86.0803 24.3177 86.5064 24.6207C86.9373 24.9238 87.4676 25.0753 88.0973 25.0753Z" fill="black"/>
</svg>
