<svg width="13" height="9" viewBox="0 0 13 9" fill="none" xmlns="http://www.w3.org/2000/svg">
<path d="M6.8639 6.13621C7.76764 6.13621 8.50027 5.40358 8.50027 4.49984C8.50027 3.5961 7.76764 2.86348 6.8639 2.86348C5.96016 2.86348 5.22754 3.5961 5.22754 4.49984C5.22754 5.40358 5.96016 6.13621 6.8639 6.13621Z" fill="black" fill-opacity="0.5"/>
<path d="M12.9755 4.36091C12.4944 3.11631 11.6591 2.03998 10.5729 1.26494C9.48666 0.489909 8.19715 0.0501435 6.86373 0C5.5303 0.0501435 4.2408 0.489909 3.15458 1.26494C2.06837 2.03998 1.23307 3.11631 0.75191 4.36091C0.719415 4.45079 0.719415 4.54921 0.75191 4.63909C1.23307 5.88369 2.06837 6.96002 3.15458 7.73506C4.2408 8.51009 5.5303 8.94986 6.86373 9C8.19715 8.94986 9.48666 8.51009 10.5729 7.73506C11.6591 6.96002 12.4944 5.88369 12.9755 4.63909C13.008 4.54921 13.008 4.45079 12.9755 4.36091V4.36091ZM6.86373 7.15909C6.33781 7.15909 5.8237 7.00314 5.38642 6.71095C4.94913 6.41877 4.60831 6.00348 4.40705 5.51759C4.20579 5.0317 4.15313 4.49705 4.25573 3.98124C4.35833 3.46542 4.61159 2.99162 4.98347 2.61974C5.35535 2.24786 5.82915 1.9946 6.34497 1.892C6.86078 1.7894 7.39543 1.84206 7.88132 2.04332C8.3672 2.24458 8.7825 2.5854 9.07468 3.02269C9.36687 3.45997 9.52282 3.97408 9.52282 4.5C9.52174 5.2049 9.24124 5.88062 8.74279 6.37907C8.24435 6.87751 7.56863 7.15801 6.86373 7.15909V7.15909Z" fill="black" fill-opacity="0.5"/>
</svg>
