<svg width="14" height="15" viewBox="0 0 14 15" fill="none" xmlns="http://www.w3.org/2000/svg">
<path d="M13.5361 7.35125C13.0215 6.02022 12.1282 4.86914 10.9665 4.04029C9.80489 3.21143 8.42584 2.74113 6.99981 2.6875C5.57379 2.74113 4.19473 3.21143 3.03309 4.04029C1.87145 4.86914 0.978134 6.02022 0.463564 7.35125C0.428812 7.44737 0.428812 7.55263 0.463564 7.64875C0.978134 8.97978 1.87145 10.1309 3.03309 10.9597C4.19473 11.7886 5.57379 12.2589 6.99981 12.3125C8.42584 12.2589 9.80489 11.7886 10.9665 10.9597C12.1282 10.1309 13.0215 8.97978 13.5361 7.64875C13.5708 7.55263 13.5708 7.44737 13.5361 7.35125ZM6.99981 11.4375C4.68106 11.4375 2.23106 9.71812 1.34294 7.5C2.23106 5.28187 4.68106 3.5625 6.99981 3.5625C9.31856 3.5625 11.7686 5.28187 12.6567 7.5C11.7686 9.71812 9.31856 11.4375 6.99981 11.4375Z" fill="black" fill-opacity="0.6"/>
<path d="M7 4.875C6.48082 4.875 5.97331 5.02895 5.54163 5.31739C5.10995 5.60583 4.7735 6.0158 4.57482 6.49546C4.37614 6.97511 4.32415 7.50291 4.42544 8.01211C4.52673 8.52131 4.77673 8.98904 5.14385 9.35616C5.51096 9.72327 5.97869 9.97328 6.48789 10.0746C6.99709 10.1758 7.52489 10.1239 8.00454 9.92519C8.4842 9.72651 8.89417 9.39005 9.18261 8.95837C9.47105 8.52669 9.625 8.01918 9.625 7.5C9.625 6.80381 9.34844 6.13613 8.85616 5.64385C8.36387 5.15156 7.69619 4.875 7 4.875ZM7 9.25C6.65388 9.25 6.31554 9.14737 6.02775 8.95507C5.73997 8.76278 5.51567 8.48947 5.38321 8.1697C5.25076 7.84993 5.2161 7.49806 5.28363 7.15859C5.35115 6.81913 5.51782 6.50731 5.76256 6.26256C6.00731 6.01782 6.31913 5.85115 6.65859 5.78363C6.99806 5.7161 7.34993 5.75076 7.6697 5.88321C7.98947 6.01566 8.26278 6.23997 8.45507 6.52775C8.64737 6.81554 8.75 7.15388 8.75 7.5C8.75 7.96413 8.56563 8.40925 8.23744 8.73744C7.90925 9.06563 7.46413 9.25 7 9.25Z" fill="black" fill-opacity="0.6"/>
</svg>
