<svg width="20" height="20" viewBox="0 0 20 20" fill="none" xmlns="http://www.w3.org/2000/svg">
<path d="M17.3075 2.8768e-07H2.69513C2.34107 -0.00016329 1.99044 0.0694333 1.66328 0.204814C1.33612 0.340195 1.03884 0.538707 0.788425 0.789009C0.538007 1.03931 0.339357 1.3365 0.203826 1.6636C0.0682937 1.99069 -0.00146481 2.34129 -0.00146477 2.69535V17.3046C-0.00154657 17.6586 0.0681149 18.0092 0.20354 18.3362C0.338965 18.6633 0.5375 18.9604 0.787802 19.2107C1.0381 19.461 1.33527 19.6596 1.66232 19.795C1.98937 19.9304 2.3399 20.0001 2.69388 20H9.89829L9.91074 12.8529H8.05594C7.94035 12.8529 7.82949 12.807 7.74776 12.7252C7.66602 12.6435 7.6201 12.5326 7.6201 12.417L7.61139 10.1133C7.61089 10.0558 7.6218 9.99869 7.64348 9.94538C7.66516 9.89207 7.69719 9.84358 7.73771 9.80271C7.77823 9.76185 7.82645 9.72941 7.87957 9.70727C7.93269 9.68514 7.98967 9.67374 8.04722 9.67374H9.89829V7.44723C9.89829 4.86396 11.476 3.45744 13.7804 3.45744H15.6713C15.7869 3.45744 15.8977 3.50336 15.9795 3.5851C16.0612 3.66683 16.1071 3.77769 16.1071 3.89328V5.83588C16.1071 5.95147 16.0612 6.06232 15.9795 6.14406C15.8977 6.22579 15.7869 6.27171 15.6713 6.27171H14.5132C13.2599 6.27171 13.0189 6.86694 13.0189 7.74111V9.67125H15.7728C15.8348 9.67078 15.8962 9.68356 15.9529 9.70873C16.0096 9.7339 16.0603 9.77089 16.1015 9.81721C16.1428 9.86354 16.1737 9.91814 16.1922 9.97737C16.2106 10.0366 16.2162 10.0991 16.2086 10.1606L15.9353 12.4644C15.9231 12.5712 15.8719 12.6698 15.7915 12.7412C15.711 12.8126 15.607 12.8517 15.4994 12.851H13.0295L13.017 19.9981H17.3075C18.0222 19.9981 18.7076 19.7142 19.213 19.2089C19.7184 18.7035 20.0023 18.0181 20.0023 17.3034V2.69535C20.0023 1.98061 19.7184 1.29513 19.213 0.78967C18.7077 0.284212 18.0223 0.000165393 17.3075 2.8768e-07Z" fill="white"/>
</svg>
