<svg width="13" height="13" viewBox="0 0 13 13" fill="none" xmlns="http://www.w3.org/2000/svg">
<path d="M7.5 12.5H5.5C5.23478 12.5 4.98043 12.3946 4.79289 12.2071C4.60536 12.0196 4.5 11.7652 4.5 11.5V7.705L0.795 4C0.607206 3.81332 0.501116 3.55979 0.5 3.295V1.5C0.5 1.23478 0.605357 0.98043 0.792893 0.792893C0.98043 0.605357 1.23478 0.5 1.5 0.5H11.5C11.7652 0.5 12.0196 0.605357 12.2071 0.792893C12.3946 0.98043 12.5 1.23478 12.5 1.5V3.295C12.4989 3.55979 12.3928 3.81332 12.205 4L8.5 7.705V11.5C8.5 11.7652 8.39464 12.0196 8.20711 12.2071C8.01957 12.3946 7.76522 12.5 7.5 12.5ZM1.5 1.5V3.295L5.5 7.295V11.5H7.5V7.295L11.5 3.295V1.5H1.5Z" fill="black" fill-opacity="0.8"/>
</svg>
