<svg width="155" height="22" viewBox="0 0 155 22" fill="none" xmlns="http://www.w3.org/2000/svg">
<path d="M3.95739 21H0.696023L8.02415 0.636363H11.5739L18.902 21H15.6406L9.88352 4.33523H9.72443L3.95739 21ZM4.50426 13.0256H15.0838V15.6108H4.50426V13.0256ZM21.604 21V5.72727H24.4776V8.15341H24.6367C24.9151 7.33144 25.4057 6.68513 26.1083 6.21449C26.8176 5.73722 27.6197 5.49858 28.5146 5.49858C28.7002 5.49858 28.9189 5.50521 29.1708 5.51847C29.4293 5.53172 29.6315 5.54829 29.7773 5.56818V8.41193C29.658 8.37879 29.4459 8.34233 29.141 8.30256C28.8361 8.25615 28.5311 8.23295 28.2262 8.23295C27.5236 8.23295 26.8971 8.3821 26.3469 8.6804C25.8034 8.97206 25.3725 9.37973 25.0543 9.90341C24.7362 10.4205 24.5771 11.0104 24.5771 11.6733V21H21.604ZM35.0845 15.8196L35.0646 12.1903H35.5817L41.6669 5.72727H45.2266L38.2862 13.0852H37.8189L35.0845 15.8196ZM32.3501 21V0.636363H35.3232V21H32.3501ZM41.995 21L36.5263 13.7415L38.5746 11.6634L45.6442 21H41.995ZM53.7404 21.3082C52.3086 21.3082 51.0591 20.9801 49.9918 20.3239C48.9246 19.6676 48.096 18.7495 47.506 17.5696C46.9161 16.3897 46.6211 15.0109 46.6211 13.4332C46.6211 11.849 46.9161 10.4635 47.506 9.27699C48.096 8.09043 48.9246 7.16903 49.9918 6.51278C51.0591 5.85653 52.3086 5.52841 53.7404 5.52841C55.1722 5.52841 56.4218 5.85653 57.489 6.51278C58.5562 7.16903 59.3848 8.09043 59.9748 9.27699C60.5647 10.4635 60.8597 11.849 60.8597 13.4332C60.8597 15.0109 60.5647 16.3897 59.9748 17.5696C59.3848 18.7495 58.5562 19.6676 57.489 20.3239C56.4218 20.9801 55.1722 21.3082 53.7404 21.3082ZM53.7504 18.8125C54.6784 18.8125 55.4473 18.5672 56.0572 18.0767C56.667 17.5862 57.1178 16.9332 57.4094 16.1179C57.7077 15.3026 57.8569 14.4044 57.8569 13.4233C57.8569 12.4489 57.7077 11.554 57.4094 10.7386C57.1178 9.91667 56.667 9.2571 56.0572 8.75994C55.4473 8.26278 54.6784 8.0142 53.7504 8.0142C52.8157 8.0142 52.0401 8.26278 51.4237 8.75994C50.8138 9.2571 50.3597 9.91667 50.0614 10.7386C49.7698 11.554 49.6239 12.4489 49.6239 13.4233C49.6239 14.4044 49.7698 15.3026 50.0614 16.1179C50.3597 16.9332 50.8138 17.5862 51.4237 18.0767C52.0401 18.5672 52.8157 18.8125 53.7504 18.8125ZM64.4169 0.636363H68.1456L74.6286 16.4659H74.8672L81.3501 0.636363H85.0788V21H82.1555V6.2642H81.9666L75.9609 20.9702H73.5348L67.5291 6.25426H67.3402V21H64.4169V0.636363ZM93.7518 21.3381C92.784 21.3381 91.909 21.1591 91.1268 20.8011C90.3446 20.4366 89.7248 19.9096 89.2674 19.2202C88.8166 18.5308 88.5913 17.6856 88.5913 16.6847C88.5913 15.8229 88.757 15.1136 89.0884 14.5568C89.4199 14 89.8673 13.5592 90.4308 13.2344C90.9942 12.9096 91.6239 12.6643 92.32 12.4986C93.016 12.3329 93.7253 12.2069 94.4478 12.1207C95.3626 12.0147 96.105 11.9285 96.6751 11.8622C97.2451 11.7893 97.6594 11.6733 97.918 11.5142C98.1765 11.3551 98.3058 11.0966 98.3058 10.7386V10.669C98.3058 9.80066 98.0605 9.12784 97.57 8.65057C97.0861 8.17329 96.3635 7.93466 95.4023 7.93466C94.4014 7.93466 93.6126 8.15672 93.0359 8.60085C92.4658 9.03835 92.0714 9.52557 91.8526 10.0625L89.0586 9.42614C89.39 8.49811 89.8739 7.74905 90.5103 7.17898C91.1533 6.60227 91.8924 6.18466 92.7276 5.92614C93.5629 5.66098 94.4412 5.52841 95.3626 5.52841C95.9724 5.52841 96.6187 5.60133 97.3015 5.74716C97.9909 5.88636 98.6339 6.14489 99.2305 6.52273C99.8337 6.90057 100.328 7.44081 100.712 8.14347C101.096 8.83949 101.289 9.74432 101.289 10.858V21H98.3853V18.9119H98.266C98.0737 19.2964 97.7854 19.6742 97.4009 20.0455C97.0165 20.4167 96.5226 20.7249 95.9194 20.9702C95.3162 21.2154 94.5936 21.3381 93.7518 21.3381ZM94.3981 18.9517C95.2201 18.9517 95.9227 18.7893 96.506 18.4645C97.096 18.1397 97.5434 17.7154 97.8484 17.1918C98.1599 16.6615 98.3157 16.0947 98.3157 15.4915V13.5227C98.2096 13.6288 98.0041 13.7282 97.6992 13.821C97.4009 13.9072 97.0595 13.9834 96.6751 14.0497C96.2906 14.1094 95.9161 14.1657 95.5515 14.2188C95.1869 14.2652 94.882 14.3049 94.6367 14.3381C94.06 14.411 93.533 14.5336 93.0558 14.706C92.5851 14.8783 92.2073 15.1269 91.9222 15.4517C91.6438 15.7699 91.5046 16.1941 91.5046 16.7244C91.5046 17.4602 91.7764 18.017 92.32 18.3949C92.8635 18.7661 93.5562 18.9517 94.3981 18.9517ZM105.249 21V5.72727H108.122V8.15341H108.281C108.56 7.33144 109.05 6.68513 109.753 6.21449C110.462 5.73722 111.264 5.49858 112.159 5.49858C112.345 5.49858 112.563 5.50521 112.815 5.51847C113.074 5.53172 113.276 5.54829 113.422 5.56818V8.41193C113.303 8.37879 113.09 8.34233 112.786 8.30256C112.481 8.25615 112.176 8.23295 111.871 8.23295C111.168 8.23295 110.542 8.3821 109.991 8.6804C109.448 8.97206 109.017 9.37973 108.699 9.90341C108.381 10.4205 108.222 11.0104 108.222 11.6733V21H105.249ZM118.729 15.8196L118.709 12.1903H119.226L125.311 5.72727H128.871L121.931 13.0852H121.463L118.729 15.8196ZM115.995 21V0.636363H118.968V21H115.995ZM125.64 21L120.171 13.7415L122.219 11.6634L129.289 21H125.64ZM137.534 21.3082C136.029 21.3082 134.733 20.9867 133.646 20.3438C132.566 19.6941 131.731 18.7827 131.141 17.6094C130.557 16.4295 130.266 15.0473 130.266 13.4631C130.266 11.8987 130.557 10.5199 131.141 9.3267C131.731 8.13352 132.553 7.20218 133.607 6.53267C134.667 5.86316 135.907 5.52841 137.325 5.52841C138.187 5.52841 139.022 5.67093 139.831 5.95597C140.64 6.241 141.366 6.68845 142.009 7.2983C142.652 7.90814 143.159 8.70028 143.53 9.67472C143.901 10.6425 144.087 11.8191 144.087 13.2045V14.2585H131.946V12.0312H141.173C141.173 11.2491 141.014 10.5563 140.696 9.95312C140.378 9.34328 139.93 8.86269 139.354 8.51136C138.784 8.16004 138.114 7.98438 137.345 7.98438C136.51 7.98438 135.781 8.18987 135.158 8.60085C134.541 9.00521 134.064 9.53551 133.726 10.1918C133.394 10.8414 133.229 11.5473 133.229 12.3097V14.0497C133.229 15.0705 133.408 15.9389 133.766 16.6548C134.13 17.3707 134.637 17.9176 135.287 18.2955C135.937 18.6667 136.696 18.8523 137.564 18.8523C138.127 18.8523 138.641 18.7727 139.105 18.6136C139.569 18.4479 139.97 18.2027 140.308 17.8778C140.646 17.553 140.905 17.152 141.084 16.6747L143.898 17.1818C143.672 18.0104 143.268 18.7363 142.685 19.3594C142.108 19.9759 141.382 20.4564 140.507 20.8011C139.639 21.1392 138.648 21.3082 137.534 21.3082ZM154.515 5.72727V8.11364H146.172V5.72727H154.515ZM148.409 2.06818H151.382V16.5156C151.382 17.0923 151.469 17.5265 151.641 17.8182C151.813 18.1032 152.035 18.2988 152.307 18.4048C152.586 18.5043 152.887 18.554 153.212 18.554C153.451 18.554 153.659 18.5374 153.838 18.5043C154.017 18.4711 154.157 18.4446 154.256 18.4247L154.793 20.8807C154.621 20.947 154.375 21.0133 154.057 21.0795C153.739 21.1525 153.341 21.1922 152.864 21.1989C152.082 21.2121 151.353 21.0729 150.676 20.7812C150 20.4896 149.453 20.0388 149.036 19.429C148.618 18.8191 148.409 18.0535 148.409 17.1321V2.06818Z" fill="white"/>
</svg>
