<svg width="16" height="15" viewBox="0 0 16 15" fill="none" xmlns="http://www.w3.org/2000/svg">
<path d="M11.6277 1.875C12.0372 1.87466 12.4427 1.95607 12.8204 2.11448C13.1981 2.27289 13.5403 2.5051 13.8271 2.7975C14.4179 3.39734 14.7491 4.20553 14.7491 5.0475C14.7491 5.88948 14.4179 6.69766 13.8271 7.2975L7.99957 13.1981L2.17207 7.2975C1.58121 6.69766 1.25001 5.88948 1.25001 5.0475C1.25001 4.20553 1.58121 3.39734 2.17207 2.7975C2.459 2.50531 2.80127 2.27322 3.17889 2.11479C3.55652 1.95636 3.96193 1.87476 4.37144 1.87476C4.78096 1.87476 5.18637 1.95636 5.56399 2.11479C5.94162 2.27322 6.28389 2.50531 6.57082 2.7975L7.99957 4.26L9.42269 2.80875C9.70858 2.51287 10.0512 2.27767 10.4301 2.11724C10.8089 1.9568 11.2163 1.87441 11.6277 1.875ZM11.6277 0.750002C11.0684 0.749527 10.5146 0.860733 9.99876 1.0771C9.48296 1.29346 9.01555 1.61063 8.62394 2.01L7.99957 2.64L7.37519 2.01C6.9831 1.61135 6.51558 1.29473 5.99987 1.07861C5.48417 0.862486 4.9306 0.75118 4.37144 0.75118C3.81228 0.75118 3.25872 0.862486 2.74301 1.07861C2.22731 1.29473 1.75978 1.61135 1.36769 2.01C0.57 2.82204 0.123047 3.91483 0.123047 5.05313C0.123047 6.19143 0.57 7.28421 1.36769 8.09625L7.99957 14.8125L14.6314 8.09625C15.4291 7.28421 15.8761 6.19143 15.8761 5.05313C15.8761 3.91483 15.4291 2.82204 14.6314 2.01C14.2395 1.61113 13.772 1.2943 13.2563 1.07797C12.7406 0.861646 12.1869 0.750155 11.6277 0.750002Z" fill="black" fill-opacity="0.5"/>
</svg>
