<svg width="166" height="40" viewBox="0 0 166 40" fill="none" xmlns="http://www.w3.org/2000/svg">
<path d="M53 27.7443V13.1989H55.1946V19.5199H62.446V13.1989H64.6477V27.7443H62.446V21.402H55.1946V27.7443H53Z" fill="black"/>
<path d="M72.375 27.9645C71.3002 27.9645 70.3745 27.7348 69.598 27.2756C68.8262 26.8116 68.2296 26.1605 67.8082 25.3224C67.3916 24.4796 67.1832 23.4924 67.1832 22.3608C67.1832 21.2434 67.3916 20.2585 67.8082 19.4062C68.2296 18.554 68.8168 17.8887 69.5696 17.4105C70.3272 16.9323 71.2126 16.6932 72.2259 16.6932C72.8414 16.6932 73.438 16.795 74.0156 16.9986C74.5933 17.2022 75.1117 17.5218 75.571 17.9574C76.0303 18.393 76.3925 18.9588 76.6577 19.6548C76.9228 20.3461 77.0554 21.1866 77.0554 22.1761V22.929H68.3835V21.3381H74.9744C74.9744 20.7794 74.8608 20.2846 74.6335 19.8537C74.4063 19.4181 74.0866 19.0748 73.6747 18.8239C73.2675 18.5729 72.7893 18.4474 72.2401 18.4474C71.6435 18.4474 71.1226 18.5942 70.6776 18.8878C70.2372 19.1766 69.8963 19.5554 69.6548 20.0241C69.4181 20.4882 69.2997 20.9924 69.2997 21.5369V22.7798C69.2997 23.509 69.4276 24.1293 69.6832 24.6406C69.9437 25.152 70.3059 25.5426 70.7699 25.8125C71.2339 26.0777 71.776 26.2102 72.3963 26.2102C72.7988 26.2102 73.1657 26.1534 73.4972 26.0398C73.8286 25.9214 74.1151 25.7462 74.3565 25.5142C74.598 25.2822 74.7827 24.9957 74.9105 24.6548L76.9205 25.017C76.7595 25.6089 76.4706 26.1274 76.054 26.5724C75.642 27.0128 75.1236 27.3561 74.4986 27.6023C73.8783 27.8438 73.1705 27.9645 72.375 27.9645Z" fill="black"/>
<path d="M81.5352 13.1989V27.7443H79.4116V13.1989H81.5352Z" fill="black"/>
<path d="M84.392 31.8352V16.8352H86.4659V18.6037H86.6435C86.7666 18.3764 86.9441 18.1136 87.1761 17.8153C87.4081 17.517 87.7301 17.2566 88.142 17.0341C88.554 16.8068 89.0985 16.6932 89.7756 16.6932C90.6562 16.6932 91.4422 16.9157 92.1335 17.3608C92.8248 17.8059 93.367 18.4474 93.7599 19.2855C94.1577 20.1236 94.3565 21.1321 94.3565 22.3111C94.3565 23.4901 94.16 24.5009 93.767 25.3438C93.3741 26.1818 92.8343 26.8281 92.1477 27.2827C91.4612 27.7325 90.6776 27.9574 89.7969 27.9574C89.134 27.9574 88.5919 27.8461 88.1705 27.6236C87.7538 27.401 87.4271 27.1406 87.1903 26.8423C86.9536 26.544 86.7713 26.2789 86.6435 26.0469H86.5156V31.8352H84.392ZM86.473 22.2898C86.473 23.0568 86.5843 23.7292 86.8068 24.3068C87.0294 24.8845 87.3513 25.3366 87.7727 25.6634C88.1941 25.9853 88.7102 26.1463 89.321 26.1463C89.9555 26.1463 90.4858 25.9782 90.9119 25.642C91.3381 25.3011 91.66 24.8395 91.8778 24.2571C92.1004 23.6747 92.2116 23.0189 92.2116 22.2898C92.2116 21.5701 92.1027 20.9238 91.8849 20.3509C91.6719 19.7779 91.3499 19.3258 90.919 18.9943C90.4929 18.6629 89.9602 18.4972 89.321 18.4972C88.7055 18.4972 88.1847 18.6558 87.7585 18.973C87.3371 19.2902 87.0175 19.733 86.7997 20.3011C86.5819 20.8693 86.473 21.5322 86.473 22.2898Z" fill="black"/>
<path d="M114.28 17.929H112.064C111.979 17.4555 111.82 17.0388 111.588 16.679C111.356 16.3191 111.072 16.0137 110.736 15.7628C110.4 15.5118 110.024 15.3224 109.607 15.1946C109.195 15.0668 108.757 15.0028 108.293 15.0028C107.455 15.0028 106.704 15.2135 106.042 15.6349C105.383 16.0563 104.863 16.6742 104.479 17.4886C104.1 18.303 103.911 19.2973 103.911 20.4716C103.911 21.6553 104.1 22.6544 104.479 23.4688C104.863 24.2831 105.386 24.8987 106.049 25.3153C106.712 25.732 107.457 25.9403 108.286 25.9403C108.745 25.9403 109.181 25.8788 109.593 25.7557C110.009 25.6278 110.386 25.4408 110.722 25.1946C111.058 24.9484 111.342 24.6477 111.574 24.2926C111.811 23.9328 111.974 23.5208 112.064 23.0568L114.28 23.0639C114.162 23.7789 113.932 24.437 113.591 25.0384C113.255 25.6349 112.822 26.151 112.292 26.5866C111.766 27.0175 111.165 27.3513 110.488 27.5881C109.81 27.8248 109.072 27.9432 108.272 27.9432C107.012 27.9432 105.89 27.6449 104.905 27.0483C103.92 26.447 103.144 25.5876 102.576 24.4702C102.012 23.3527 101.73 22.0199 101.73 20.4716C101.73 18.9186 102.015 17.5857 102.583 16.473C103.151 15.3556 103.927 14.4986 104.912 13.902C105.897 13.3007 107.017 13 108.272 13C109.043 13 109.763 13.1113 110.431 13.3338C111.103 13.5516 111.707 13.8736 112.242 14.2997C112.777 14.7211 113.22 15.2372 113.57 15.848C113.92 16.4541 114.157 17.1477 114.28 17.929Z" fill="black"/>
<path d="M121.438 27.9645C120.363 27.9645 119.437 27.7348 118.661 27.2756C117.889 26.8116 117.292 26.1605 116.871 25.3224C116.454 24.4796 116.246 23.4924 116.246 22.3608C116.246 21.2434 116.454 20.2585 116.871 19.4062C117.292 18.554 117.879 17.8887 118.632 17.4105C119.39 16.9323 120.275 16.6932 121.288 16.6932C121.904 16.6932 122.5 16.795 123.078 16.9986C123.656 17.2022 124.174 17.5218 124.634 17.9574C125.093 18.393 125.455 18.9588 125.72 19.6548C125.985 20.3461 126.118 21.1866 126.118 22.1761V22.929H117.446V21.3381H124.037C124.037 20.7794 123.923 20.2846 123.696 19.8537C123.469 19.4181 123.149 19.0748 122.737 18.8239C122.33 18.5729 121.852 18.4474 121.303 18.4474C120.706 18.4474 120.185 18.5942 119.74 18.8878C119.3 19.1766 118.959 19.5554 118.717 20.0241C118.481 20.4882 118.362 20.9924 118.362 21.5369V22.7798C118.362 23.509 118.49 24.1293 118.746 24.6406C119.006 25.152 119.368 25.5426 119.832 25.8125C120.296 26.0777 120.839 26.2102 121.459 26.2102C121.861 26.2102 122.228 26.1534 122.56 26.0398C122.891 25.9214 123.178 25.7462 123.419 25.5142C123.661 25.2822 123.845 24.9957 123.973 24.6548L125.983 25.017C125.822 25.6089 125.533 26.1274 125.116 26.5724C124.705 27.0128 124.186 27.3561 123.561 27.6023C122.941 27.8438 122.233 27.9645 121.438 27.9645Z" fill="black"/>
<path d="M130.598 21.267V27.7443H128.474V16.8352H130.512V18.6108H130.647C130.898 18.0331 131.291 17.5691 131.826 17.2188C132.366 16.8684 133.046 16.6932 133.865 16.6932C134.608 16.6932 135.259 16.8494 135.818 17.1619C136.377 17.4697 136.81 17.929 137.118 18.5398C137.425 19.1506 137.579 19.9058 137.579 20.8054V27.7443H135.456V21.0611C135.456 20.2704 135.25 19.6525 134.838 19.2074C134.426 18.7576 133.86 18.5327 133.14 18.5327C132.648 18.5327 132.21 18.6392 131.826 18.8523C131.448 19.0653 131.147 19.3778 130.924 19.7898C130.707 20.197 130.598 20.6894 130.598 21.267Z" fill="black"/>
<path d="M145.52 16.8352V18.5398H139.561V16.8352H145.52ZM141.159 14.2216H143.282V24.5412C143.282 24.9531 143.344 25.2633 143.467 25.4716C143.59 25.6752 143.749 25.8149 143.943 25.8906C144.142 25.9616 144.357 25.9972 144.589 25.9972C144.76 25.9972 144.909 25.9853 145.037 25.9616C145.164 25.938 145.264 25.919 145.335 25.9048L145.718 27.6591C145.595 27.7064 145.42 27.7538 145.193 27.8011C144.966 27.8532 144.681 27.8816 144.341 27.8864C143.782 27.8958 143.261 27.7964 142.778 27.5881C142.295 27.3797 141.904 27.0578 141.606 26.6222C141.308 26.1866 141.159 25.6397 141.159 24.9815V14.2216Z" fill="black"/>
<path d="M152.453 27.9645C151.378 27.9645 150.453 27.7348 149.676 27.2756C148.904 26.8116 148.308 26.1605 147.886 25.3224C147.47 24.4796 147.261 23.4924 147.261 22.3608C147.261 21.2434 147.47 20.2585 147.886 19.4062C148.308 18.554 148.895 17.8887 149.648 17.4105C150.405 16.9323 151.291 16.6932 152.304 16.6932C152.92 16.6932 153.516 16.795 154.094 16.9986C154.671 17.2022 155.19 17.5218 155.649 17.9574C156.108 18.393 156.471 18.9588 156.736 19.6548C157.001 20.3461 157.134 21.1866 157.134 22.1761V22.929H148.462V21.3381H155.053C155.053 20.7794 154.939 20.2846 154.712 19.8537C154.484 19.4181 154.165 19.0748 153.753 18.8239C153.346 18.5729 152.867 18.4474 152.318 18.4474C151.722 18.4474 151.201 18.5942 150.756 18.8878C150.315 19.1766 149.974 19.5554 149.733 20.0241C149.496 20.4882 149.378 20.9924 149.378 21.5369V22.7798C149.378 23.509 149.506 24.1293 149.761 24.6406C150.022 25.152 150.384 25.5426 150.848 25.8125C151.312 26.0777 151.854 26.2102 152.474 26.2102C152.877 26.2102 153.244 26.1534 153.575 26.0398C153.907 25.9214 154.193 25.7462 154.435 25.5142C154.676 25.2822 154.861 24.9957 154.989 24.6548L156.999 25.017C156.838 25.6089 156.549 26.1274 156.132 26.5724C155.72 27.0128 155.202 27.3561 154.577 27.6023C153.956 27.8438 153.249 27.9645 152.453 27.9645Z" fill="black"/>
<path d="M159.49 27.7443V16.8352H161.542V18.5682H161.656C161.855 17.9811 162.205 17.5194 162.707 17.1832C163.214 16.8423 163.787 16.6719 164.426 16.6719C164.558 16.6719 164.715 16.6766 164.895 16.6861C165.079 16.6955 165.224 16.7074 165.328 16.7216V18.7528C165.243 18.7292 165.091 18.7031 164.873 18.6747C164.655 18.6416 164.438 18.625 164.22 18.625C163.718 18.625 163.27 18.7315 162.877 18.9446C162.489 19.1529 162.181 19.4441 161.954 19.8182C161.727 20.1875 161.613 20.6089 161.613 21.0824V27.7443H159.49Z" fill="black"/>
<rect width="40" height="40" rx="4" fill="black"/>
<path d="M11.2544 12.9759L6.62021 26.4205H3.81836L9.65643 10.9092H11.4462L11.2544 12.9759ZM15.1323 26.4205L10.4874 12.9759L10.285 10.9092H12.0854L17.9448 26.4205H15.1323ZM14.9086 20.6677V22.7877H6.47106V20.6677H14.9086Z" fill="white"/>
<path d="M21.8013 17.2373V26.4205H19.2338V14.8936H21.6522L21.8013 17.2373ZM21.3858 20.2309L20.5122 20.2203C20.5122 19.4248 20.6117 18.6897 20.8105 18.015C21.0094 17.3403 21.3006 16.7543 21.6841 16.2572C22.0676 15.7529 22.5435 15.3659 23.1117 15.096C23.687 14.819 24.351 14.6805 25.1039 14.6805C25.6294 14.6805 26.1088 14.7586 26.5421 14.9149C26.9824 15.064 27.3624 15.3019 27.682 15.6286C28.0087 15.9553 28.2573 16.3744 28.4277 16.8857C28.6053 17.3971 28.6941 18.015 28.6941 18.7394V26.4205H26.1266V18.9632C26.1266 18.4021 26.0414 17.9617 25.8709 17.6421C25.7076 17.3225 25.4696 17.0953 25.1571 16.9603C24.8517 16.8183 24.486 16.7472 24.0598 16.7472C23.5769 16.7472 23.1649 16.8396 22.824 17.0242C22.4902 17.2089 22.2168 17.461 22.0037 17.7806C21.7907 18.1002 21.6344 18.4695 21.535 18.8886C21.4355 19.3076 21.3858 19.7551 21.3858 20.2309ZM28.5343 19.5491L27.3304 19.8154C27.3304 19.1194 27.4263 18.4624 27.6181 17.8445C27.8169 17.2195 28.1046 16.6727 28.481 16.2039C28.8645 15.7281 29.3368 15.3552 29.8979 15.0853C30.459 14.8154 31.1017 14.6805 31.8262 14.6805C32.4157 14.6805 32.9412 14.7622 33.4029 14.9255C33.8716 15.0818 34.2694 15.3303 34.5961 15.6713C34.9228 16.0122 35.1713 16.4561 35.3418 17.0029C35.5122 17.5427 35.5975 18.1961 35.5975 18.9632V26.4205H33.0194V18.9525C33.0194 18.3701 32.9341 17.9191 32.7637 17.5995C32.6003 17.2799 32.3659 17.0597 32.0605 16.939C31.7551 16.8112 31.3894 16.7472 30.9632 16.7472C30.5655 16.7472 30.214 16.8218 29.9086 16.971C29.6103 17.113 29.3581 17.3154 29.1522 17.5782C28.9462 17.8339 28.7899 18.1286 28.6834 18.4624C28.584 18.7963 28.5343 19.1585 28.5343 19.5491Z" fill="white"/>
</svg>
