<svg width="20" height="20" viewBox="0 0 20 20" fill="none" xmlns="http://www.w3.org/2000/svg">
<g clip-path="url(#clip0_1102_1779)">
<path d="M14.0416 0H5.95785C4.3783 0.00186451 2.86398 0.630163 1.74707 1.74707C0.630163 2.86398 0.00186451 4.3783 0 5.95785L0 14.0416C0.00170915 15.6212 0.629939 17.1357 1.74687 18.2527C2.86379 19.3698 4.3782 19.9981 5.95785 20H14.0416C15.6213 19.9983 17.1359 19.37 18.2529 18.2529C19.37 17.1359 19.9983 15.6213 20 14.0416V5.95785C19.9981 4.3782 19.3698 2.86379 18.2527 1.74687C17.1357 0.629939 15.6212 0.00170915 14.0416 0V0ZM17.9874 14.0416C17.9874 15.0881 17.5717 16.0917 16.8317 16.8317C16.0917 17.5717 15.0881 17.9874 14.0416 17.9874H5.95785C4.91134 17.9874 3.90769 17.5717 3.1677 16.8317C2.4277 16.0917 2.01198 15.0881 2.01198 14.0416V5.95785C2.01198 4.91134 2.4277 3.90769 3.1677 3.1677C3.90769 2.4277 4.91134 2.01198 5.95785 2.01198H14.0416C15.0881 2.01198 16.0917 2.4277 16.8317 3.1677C17.5717 3.90769 17.9874 4.91134 17.9874 5.95785V14.0416Z" fill="white"/>
<path d="M10.0001 4.82715C8.97695 4.82715 7.97683 5.13054 7.12615 5.69894C6.27547 6.26735 5.61244 7.07524 5.22092 8.02047C4.82939 8.96569 4.72695 10.0058 4.92655 11.0092C5.12614 12.0127 5.61882 12.9344 6.34226 13.6578C7.06571 14.3813 7.98742 14.874 8.99087 15.0736C9.99431 15.2731 11.0344 15.1707 11.9796 14.7792C12.9249 14.3877 13.7328 13.7246 14.3012 12.874C14.8696 12.0233 15.1729 11.0232 15.1729 10.0001C15.1714 8.62859 14.6259 7.31374 13.6561 6.34397C12.6864 5.3742 11.3715 4.8287 10.0001 4.82715ZM10.0001 13.1604C9.37488 13.1604 8.76375 12.975 8.24394 12.6277C7.72413 12.2803 7.31899 11.7867 7.07974 11.2091C6.8405 10.6315 6.7779 9.99595 6.89987 9.38279C7.02183 8.76963 7.32288 8.20641 7.76494 7.76435C8.207 7.32228 8.77023 7.02124 9.38339 6.89927C9.99655 6.77731 10.6321 6.83991 11.2097 7.07915C11.7873 7.31839 12.2809 7.72354 12.6283 8.24335C12.9756 8.76316 13.161 9.37429 13.161 9.99946C13.161 10.8378 12.8279 11.6418 12.2352 12.2346C11.6424 12.8274 10.8384 13.1604 10.0001 13.1604Z" fill="white"/>
<path d="M15.1822 6.10518C15.8667 6.10518 16.4216 5.5503 16.4216 4.86582C16.4216 4.18134 15.8667 3.62646 15.1822 3.62646C14.4978 3.62646 13.9429 4.18134 13.9429 4.86582C13.9429 5.5503 14.4978 6.10518 15.1822 6.10518Z" fill="white"/>
</g>
<defs>
<clipPath id="clip0_1102_1779">
<rect width="20" height="20" fill="white"/>
</clipPath>
</defs>
</svg>
