<svg width="15" height="18" viewBox="0 0 15 18" fill="none" xmlns="http://www.w3.org/2000/svg">
<path d="M7.375 10.28C6.75694 10.28 6.15275 10.0967 5.63884 9.75334C5.12494 9.40996 4.7244 8.92191 4.48788 8.35089C4.25135 7.77987 4.18947 7.15153 4.31005 6.54534C4.43063 5.93915 4.72825 5.38233 5.16529 4.94529C5.60233 4.50825 6.15915 4.21063 6.76534 4.09005C7.37154 3.96947 7.99987 4.03135 8.57089 4.26788C9.14191 4.5044 9.62997 4.90494 9.97334 5.41884C10.3167 5.93275 10.5 6.53693 10.5 7.155C10.499 7.9835 10.1695 8.77778 9.58361 9.36361C8.99778 9.94945 8.2035 10.279 7.375 10.28ZM7.375 5.28C7.00416 5.28 6.64165 5.38997 6.33331 5.596C6.02497 5.80202 5.78464 6.09486 5.64273 6.43747C5.50081 6.78008 5.46368 7.15708 5.53603 7.52079C5.60838 7.88451 5.78695 8.2186 6.04918 8.48083C6.3114 8.74305 6.64549 8.92163 7.00921 8.99397C7.37292 9.06632 7.74992 9.02919 8.09253 8.88727C8.43514 8.74536 8.72798 8.50504 8.93401 8.19669C9.14004 7.88835 9.25 7.52584 9.25 7.155C9.24951 6.65787 9.0518 6.18125 8.70028 5.82972C8.34876 5.4782 7.87213 5.2805 7.375 5.28Z" fill="black" fill-opacity="0.6"/>
<path d="M7.37501 17.78L2.10251 11.5619C2.02925 11.4685 1.95674 11.3745 1.88501 11.28C0.98437 10.0936 0.497824 8.64451 0.500007 7.155C0.500007 5.33164 1.22434 3.58295 2.51365 2.29364C3.80296 1.00433 5.55164 0.279999 7.37501 0.279999C9.19837 0.279999 10.9471 1.00433 12.2364 2.29364C13.5257 3.58295 14.25 5.33164 14.25 7.155C14.2522 8.64384 13.7659 10.0923 12.8656 11.2781L12.865 11.28C12.865 11.28 12.6775 11.5262 12.6494 11.5594L7.37501 17.78ZM2.88251 10.5269C2.88376 10.5269 3.02876 10.7194 3.06188 10.7606L7.37501 15.8475L11.6938 10.7537C11.7213 10.7194 11.8675 10.5256 11.8681 10.525C12.6039 9.55569 13.0015 8.37189 13 7.155C13 5.66316 12.4074 4.23242 11.3525 3.17752C10.2976 2.12263 8.86685 1.53 7.37501 1.53C5.88316 1.53 4.45242 2.12263 3.39753 3.17752C2.34264 4.23242 1.75001 5.66316 1.75001 7.155C1.7487 8.37265 2.14674 9.55713 2.88313 10.5269H2.88251Z" fill="black" fill-opacity="0.6"/>
</svg>
