<svg width="18" height="19" viewBox="0 0 18 19" fill="none" xmlns="http://www.w3.org/2000/svg">
<path d="M3.375 17.375H10.125C10.4233 17.3747 10.7093 17.2561 10.9202 17.0452C11.1311 16.8343 11.2497 16.5483 11.25 16.25V14.5625H10.125V16.25H3.375V2.75H10.125V4.4375H11.25V2.75C11.2497 2.45172 11.1311 2.16575 10.9202 1.95483C10.7093 1.74392 10.4233 1.6253 10.125 1.625H3.375C3.07672 1.6253 2.79075 1.74392 2.57983 1.95483C2.36892 2.16575 2.2503 2.45172 2.25 2.75V16.25C2.2503 16.5483 2.36892 16.8343 2.57983 17.0452C2.79075 17.2561 3.07672 17.3747 3.375 17.375Z" fill="#A50D00"/>
<path d="M11.5796 12.0796L13.5968 10.0625H5.625V8.9375H13.5968L11.5796 6.92037L12.375 6.125L15.75 9.5L12.375 12.875L11.5796 12.0796Z" fill="#A50D00"/>
</svg>
