<svg width="123" height="37" viewBox="0 0 123 37" fill="none" xmlns="http://www.w3.org/2000/svg">
<g clip-path="url(#clip0_1102_1790)">
<path d="M118.444 36.9999H4.55344C3.95362 37.006 3.3586 36.8905 2.80325 36.6603C2.2479 36.4301 1.74338 36.0897 1.31917 35.6592C0.894953 35.2286 0.559595 34.7165 0.332707 34.1527C0.10582 33.589 -0.00806519 32.9849 -0.0022218 32.376V4.62508C-0.00814092 4.01603 0.10565 3.4119 0.332496 2.84804C0.559343 2.28417 0.894672 1.772 1.31889 1.34131C1.7431 0.910628 2.24772 0.570182 2.80311 0.339875C3.3585 0.109568 3.95354 -0.00603074 4.55344 -2.13133e-05H118.444C119.044 -0.00603074 119.639 0.109568 120.195 0.339875C120.75 0.570182 121.255 0.910628 121.679 1.34131C122.103 1.772 122.438 2.28417 122.665 2.84804C122.892 3.4119 123.006 4.01603 123 4.62508V32.376C123.006 32.9849 122.892 33.589 122.665 34.1527C122.438 34.7165 122.103 35.2286 121.679 35.6592C121.255 36.0897 120.75 36.4301 120.195 36.6603C119.639 36.8905 119.044 37.006 118.444 36.9999Z" fill="black" fill-opacity="0.8"/>
<path d="M118.444 0.739959C119.458 0.746242 120.427 1.1577 121.144 1.88511C121.86 2.61252 122.265 3.59713 122.271 4.62567V32.3766C122.265 33.4049 121.859 34.3894 121.143 35.1165C120.427 35.8437 119.457 36.2548 118.444 36.2611H4.55344C3.5404 36.255 2.57058 35.844 1.85414 35.1168C1.13769 34.3897 0.732318 33.405 0.72598 32.3766V4.62567C0.732017 3.59698 1.13724 2.61224 1.85371 1.88483C2.57019 1.15742 3.5402 0.746088 4.55344 0.739959H118.444ZM118.444 0H4.55344C3.34633 0.00369694 2.18971 0.492147 1.33615 1.35873C0.482594 2.22531 0.00141397 3.39957 -0.00222742 4.6251V32.376C-0.00807081 32.985 0.105814 33.589 0.332702 34.1527C0.559589 34.7165 0.894947 35.2286 1.31916 35.6592C1.74338 36.0898 2.24789 36.4301 2.80324 36.6603C3.35859 36.8905 3.95361 37.006 4.55344 36.9999H118.444C119.044 37.006 119.639 36.8905 120.195 36.6603C120.75 36.4301 121.255 36.0898 121.679 35.6592C122.103 35.2286 122.438 34.7165 122.665 34.1527C122.892 33.589 123.006 32.985 123 32.376V4.6251C122.996 3.39957 122.515 2.22531 121.662 1.35873C120.808 0.492147 119.652 0.00369694 118.444 0Z" fill="#A6A6A6"/>
<path d="M43.1859 9.43456C43.2069 9.77043 43.1612 10.1072 43.0518 10.4249C42.9423 10.7425 42.7713 11.0346 42.5487 11.284C42.22 11.6212 41.8144 11.871 41.3679 12.0106C40.9213 12.1502 40.4477 12.1756 39.9892 12.0844C39.5306 11.9933 39.1014 11.7884 38.7396 11.4882C38.3779 11.188 38.0949 10.8017 37.9157 10.3636C37.7365 9.92546 37.6668 9.44924 37.7127 8.97718C37.7586 8.50511 37.9188 8.05184 38.1789 7.6578C38.4391 7.26376 38.7912 6.94107 39.2038 6.71852C39.6164 6.49598 40.0768 6.38059 40.544 6.38233C40.9248 6.38611 41.2993 6.48113 41.6369 6.66007C41.9622 6.79753 42.2454 7.02096 42.4572 7.30678L42.0016 7.76986C41.8292 7.54936 41.6062 7.375 41.3521 7.2623C41.0979 7.1496 40.8205 7.10174 40.544 7.12315C40.2685 7.11111 39.994 7.1631 39.7413 7.27513C39.4886 7.38716 39.2645 7.55653 39.0859 7.76986C38.6774 8.1882 38.4481 8.75337 38.4481 9.34245C38.4481 9.93154 38.6774 10.4967 39.0859 10.915C39.4831 11.2962 39.9987 11.5249 40.544 11.562C40.8329 11.5744 41.1211 11.5229 41.3886 11.4112C41.656 11.2995 41.8963 11.1302 42.093 10.915C42.2388 10.7709 42.3543 10.5982 42.4326 10.4075C42.5109 10.2168 42.5504 10.0121 42.5487 9.80553H40.544V9.065H43.1859V9.43456ZM47.3769 7.12315H44.9173V8.87994H47.1946V9.52694H44.9173V11.284H47.3769V12.0251H44.1886V6.47729H47.3769V7.12315ZM50.3835 12.0251H49.6547V7.12315H48.1074V6.47557H51.9337V7.12457H50.3847L50.3835 12.0251ZM54.5745 12.0251V6.47729H55.3038V12.0251H54.5745ZM58.4019 12.0251H57.6726V7.12315H56.1235V6.47557H59.8624V7.12457H58.3134V12.0263L58.4019 12.0251ZM67.057 11.284C66.5927 11.7635 65.9787 12.0644 65.32 12.1352C64.6614 12.206 63.999 12.0425 63.4461 11.6724C62.8931 11.3023 62.4838 10.7488 62.2883 10.1064C62.0927 9.46392 62.1231 8.77225 62.374 8.14996C62.6249 7.52768 63.081 7.01334 63.6641 6.69457C64.2473 6.3758 64.9214 6.2724 65.5712 6.40229C66.221 6.53219 66.8063 6.88717 67.227 7.40658C67.6476 7.926 67.8774 8.57764 67.8773 9.25006C67.8878 9.62842 67.8202 10.005 67.6789 10.3553C67.5377 10.7056 67.3258 11.0217 67.057 11.284ZM63.5955 10.8229C63.9823 11.2197 64.5041 11.4512 65.0536 11.4699C65.329 11.4815 65.6033 11.4292 65.8557 11.3171C66.1082 11.205 66.3321 11.0361 66.5106 10.8229C66.9194 10.4047 67.1488 9.83925 67.1491 9.25006C67.17 8.95571 67.1232 8.66062 67.0124 8.38778C66.9016 8.11494 66.7298 7.87188 66.5106 7.67804C66.1247 7.28036 65.6032 7.04839 65.0536 7.0299C64.7781 7.01834 64.5035 7.0707 64.2508 7.18303C63.9981 7.29535 63.774 7.4646 63.5955 7.67804C63.1867 8.09591 62.9575 8.6611 62.9581 9.25006C62.9373 9.54434 62.9839 9.83947 63.0944 10.1124C63.2049 10.3852 63.3762 10.6286 63.5949 10.8229H63.5955ZM68.8799 12.0251V6.47729H69.7001L72.3427 10.8258V6.47557H73.0709V12.0234H72.3427L69.5178 7.49013V12.0234L68.8799 12.0251Z" fill="white" stroke="white" stroke-width="0.2" stroke-miterlimit="10"/>
<path d="M62.0465 20.1655C61.5288 20.1538 61.0141 20.2488 60.5335 20.4446C60.0529 20.6404 59.6164 20.9329 59.2503 21.3046C58.8841 21.6764 58.596 22.1196 58.4031 22.6075C58.2103 23.0954 58.1167 23.618 58.1282 24.1435C58.1244 24.667 58.2231 25.1861 58.4186 25.6705C58.6142 26.1549 58.9027 26.595 59.2673 26.9651C59.6319 27.3352 60.0654 27.628 60.5425 27.8265C61.0196 28.025 61.5309 28.125 62.0465 28.1211C62.5641 28.1328 63.0787 28.0379 63.5592 27.8422C64.0397 27.6465 64.4762 27.3539 64.8422 26.9822C65.2083 26.6105 65.4964 26.1672 65.6892 25.6794C65.8819 25.1915 65.9753 24.6691 65.9637 24.1435C65.9831 23.6159 65.8951 23.0898 65.7051 22.5983C65.5152 22.1068 65.2273 21.6606 64.8597 21.2872C64.492 20.9138 64.0524 20.6214 63.5683 20.4284C63.0843 20.2353 62.5661 20.1459 62.0465 20.1655ZM62.0465 26.4555C61.4507 26.4074 60.8948 26.1333 60.4893 25.6876C60.0838 25.2419 59.8587 24.6573 59.8587 24.0506C59.8587 23.4439 60.0838 22.8595 60.4893 22.4138C60.8948 21.9682 61.4507 21.694 62.0465 21.6459C62.3486 21.6481 62.6472 21.7132 62.9235 21.8373C63.1999 21.9613 63.4482 22.1416 63.6531 22.3671C63.8581 22.5925 64.0152 22.8582 64.1148 23.1478C64.2144 23.4374 64.2544 23.7446 64.2323 24.0506C64.2469 24.3549 64.2017 24.6593 64.0993 24.9457C63.9969 25.2321 63.8394 25.495 63.6359 25.719C63.4325 25.943 63.1872 26.1234 62.9143 26.2502C62.6414 26.377 62.3464 26.4474 62.0465 26.4572V26.4555ZM53.5725 20.1655C53.0549 20.1539 52.5404 20.2488 52.0599 20.4446C51.5794 20.6404 51.143 20.9332 50.7769 21.3049C50.4109 21.6766 50.1228 22.1199 49.93 22.6077C49.7373 23.0956 49.6438 23.618 49.6554 24.1435C49.6514 24.667 49.75 25.1859 49.9454 25.6702C50.1409 26.1546 50.4292 26.5947 50.7938 26.9648C51.1583 27.3349 51.5917 27.6277 52.0687 27.8262C52.5458 28.0247 53.057 28.125 53.5725 28.1211C54.0903 28.133 54.605 28.0382 55.0856 27.8425C55.5663 27.6468 56.0029 27.3542 56.3691 26.9825C56.7353 26.6107 57.0234 26.1676 57.2162 25.6796C57.4091 25.1917 57.5025 24.6692 57.4909 24.1435C57.5103 23.6158 57.4222 23.0896 57.2322 22.598C57.0422 22.1065 56.7542 21.6601 56.3864 21.2867C56.0186 20.9132 55.5789 20.621 55.0947 20.4281C54.6105 20.2351 54.0923 20.1457 53.5725 20.1655ZM53.5725 26.4555C52.9768 26.4074 52.4208 26.1333 52.0154 25.6876C51.6099 25.2419 51.3847 24.6573 51.3847 24.0506C51.3847 23.4439 51.6099 22.8595 52.0154 22.4138C52.4208 21.9682 52.9768 21.694 53.5725 21.6459C53.8747 21.6481 54.1732 21.7132 54.4495 21.8373C54.7259 21.9613 54.9743 22.1416 55.1792 22.3671C55.3841 22.5925 55.5413 22.8582 55.6409 23.1478C55.7405 23.4374 55.7804 23.7446 55.7583 24.0506C55.7729 24.3549 55.7277 24.6593 55.6253 24.9457C55.5229 25.2321 55.3655 25.495 55.162 25.719C54.9586 25.943 54.7132 26.1234 54.4403 26.2502C54.1675 26.377 53.8725 26.4474 53.5725 26.4572V26.4555ZM43.4598 21.3691V23.034H47.377C47.3206 23.8279 46.9995 24.5785 46.4664 25.1621C46.074 25.5621 45.6043 25.8753 45.0869 26.0823C44.5695 26.2892 44.0155 26.3854 43.4598 26.3646C42.8883 26.3703 42.3216 26.2586 41.7936 26.0364C41.2657 25.8142 40.7875 25.4859 40.3876 25.0714C39.9877 24.6569 39.6743 24.1648 39.4665 23.6243C39.2586 23.0838 39.1605 22.5062 39.178 21.9262C39.1682 21.3483 39.2717 20.774 39.4823 20.237C39.6929 19.7 40.0065 19.2111 40.4049 18.7982C40.8032 18.3852 41.2784 18.0567 41.8028 17.8318C42.3273 17.6069 42.8905 17.49 43.4598 17.4879C44.5738 17.4988 45.6446 17.9272 46.4664 18.6909L47.6508 17.4879C46.5515 16.4092 45.0795 15.8112 43.5507 15.8224C42.754 15.8112 41.963 15.9608 41.2237 16.2626C40.4844 16.5644 39.8116 17.0125 39.2443 17.5806C38.6769 18.1486 38.2264 18.8255 37.9189 19.5718C37.6115 20.3181 37.4531 21.119 37.4531 21.9279C37.4531 22.7369 37.6115 23.5378 37.9189 24.2841C38.2264 25.0304 38.6769 25.7073 39.2443 26.2753C39.8116 26.8434 40.4844 27.2915 41.2237 27.5933C41.963 27.8951 42.754 28.0447 43.5507 28.0335C44.3343 28.0777 45.1177 27.9426 45.8431 27.6383C46.5684 27.3341 47.2173 26.8684 47.7417 26.2756C48.7034 25.2206 49.2259 23.8289 49.1998 22.3916C49.2191 22.0498 49.1885 21.7069 49.1089 21.3742L43.4598 21.3691ZM84.8241 22.6631C84.6003 21.9529 84.1645 21.331 83.5771 20.8835C82.9896 20.4359 82.2796 20.1851 81.5454 20.1655C79.542 20.1655 77.901 21.7375 77.901 24.1435C77.8869 24.662 77.9756 25.1779 78.1618 25.6608C78.348 26.1438 78.6279 26.5838 78.9849 26.9548C79.3418 27.3258 79.7685 27.6202 80.2397 27.8205C80.7109 28.0209 81.217 28.1232 81.7278 28.1211C82.3625 28.1272 82.9883 27.969 83.5462 27.6617C84.1041 27.3544 84.5757 26.9081 84.9167 26.3646L83.6415 25.4387C83.4453 25.7768 83.1655 26.057 82.8298 26.2516C82.4942 26.4463 82.1143 26.5487 81.7278 26.5485C81.3262 26.5697 80.9278 26.4658 80.5859 26.2511C80.2439 26.0363 79.9746 25.7209 79.8141 25.3466L85.0076 23.1276L84.8258 22.6648L84.8241 22.6631ZM79.5397 23.9585C79.5208 23.3865 79.7175 22.8287 80.0899 22.399C80.4622 21.9694 80.982 21.7003 81.5431 21.6465C81.8379 21.6364 82.1298 21.7085 82.387 21.8552C82.6441 22.002 82.8566 22.2176 83.0013 22.4786L79.5397 23.9585ZM75.2567 27.7515H76.9881V16.1885H75.2567V27.7515ZM72.5239 20.9981C71.9728 20.4215 71.2196 20.0895 70.4284 20.0739C69.4209 20.1209 68.4702 20.5607 67.7743 21.3018C67.0784 22.0429 66.691 23.0278 66.693 24.0517C66.6859 24.5561 66.777 25.0571 66.9611 25.5257C67.1452 25.9942 67.4187 26.4211 67.7658 26.782C68.1129 27.143 68.5268 27.4308 68.9837 27.6289C69.4406 27.827 69.9316 27.9316 70.4284 27.9366C70.8087 27.9396 71.1851 27.8584 71.5313 27.6985C71.8776 27.5386 72.1852 27.304 72.433 27.011H72.5239V27.5668C72.5239 29.0466 71.7036 29.8793 70.4284 29.8793C70.0068 29.879 69.596 29.7454 69.2529 29.4966C68.9099 29.2479 68.6517 28.8965 68.5147 28.4918L67.0571 29.1391C67.3474 29.8267 67.8304 30.4125 68.4459 30.8237C69.0615 31.235 69.7825 31.4535 70.5193 31.4522C72.5239 31.4522 74.1638 30.2496 74.1638 27.3817V20.3522H72.5239V20.9989V20.9981ZM70.5193 26.4561C69.9236 26.408 69.3676 26.1339 68.9621 25.6882C68.5567 25.2425 68.3315 24.6579 68.3315 24.0512C68.3315 23.4444 68.5567 22.8601 68.9621 22.4144C69.3676 21.9687 69.9236 21.6946 70.5193 21.6465C71.7037 21.6465 72.6148 22.6636 72.6148 24.0512C72.639 24.3502 72.6034 24.6512 72.5101 24.936C72.4168 25.2207 72.2677 25.4834 72.0719 25.7082C71.876 25.9329 71.6373 26.1152 71.3703 26.2439C71.1033 26.3727 70.8135 26.4452 70.5181 26.4572L70.5193 26.4561ZM92.7505 16.1879H88.6504V27.751H90.3824V23.403H92.7505C93.2323 23.4279 93.7142 23.3532 94.1667 23.1832C94.6192 23.0131 95.0329 22.7513 95.3826 22.4138C95.7324 22.0764 96.0108 21.6701 96.2011 21.2199C96.3914 20.7698 96.4896 20.2852 96.4896 19.7953C96.4896 19.3055 96.3914 18.8206 96.2011 18.3704C96.0108 17.9203 95.7324 17.514 95.3826 17.1765C95.0329 16.8391 94.6192 16.5776 94.1667 16.4075C93.7142 16.2374 93.2323 16.1624 92.7505 16.1874V16.1879ZM92.8414 21.7358H90.3824V17.7588H92.8414C93.3577 17.7574 93.8546 17.9587 94.2281 18.3205C94.6017 18.6824 94.8231 19.177 94.846 19.7007C94.8262 20.234 94.6086 20.7402 94.2369 21.1176C93.8651 21.495 93.3667 21.7157 92.8414 21.7358ZM103.32 20.0714C102.044 20.0714 100.769 20.6263 100.313 21.8299L101.862 22.4769C102.014 22.2011 102.241 21.9758 102.516 21.8281C102.79 21.6805 103.102 21.6169 103.411 21.6448C103.843 21.6118 104.271 21.746 104.609 22.0206C104.947 22.2952 105.17 22.6896 105.233 23.1244V23.2174C104.703 22.9183 104.108 22.7593 103.502 22.7549C101.862 22.7549 100.224 23.6794 100.224 25.3443C100.239 25.7037 100.324 26.0564 100.474 26.382C100.625 26.7075 100.838 26.9994 101.101 27.2405C101.364 27.4817 101.671 27.6671 102.006 27.7863C102.34 27.9055 102.694 27.9561 103.048 27.9349C103.474 27.9493 103.898 27.8552 104.279 27.6614C104.661 27.4677 104.989 27.1802 105.234 26.8251H105.324V27.751H106.965V23.3126C106.898 22.3954 106.478 21.5418 105.796 20.9362C105.114 20.3306 104.225 20.0216 103.32 20.0756L103.32 20.0714ZM103.137 26.4538C102.591 26.4538 101.771 26.1769 101.771 25.4358C101.771 24.5114 102.772 24.2334 103.593 24.2334C104.13 24.2352 104.66 24.362 105.142 24.6038C105.073 25.1017 104.835 25.5595 104.469 25.8981C104.103 26.2366 103.632 26.4344 103.137 26.4572V26.4538ZM112.704 20.3494L110.79 25.3432H110.699L108.695 20.3494H106.871L109.878 27.3788L108.147 31.2634H109.878L114.524 20.3494H112.704ZM97.397 27.749H99.1278V16.1862H97.397V27.749Z" fill="white"/>
<path d="M9.47488 6.93774C9.19393 7.30588 9.06356 7.76965 9.11081 8.23289V28.6766C9.09132 29.1517 9.25447 29.6158 9.56581 29.9711L9.65723 30.0635L20.9543 18.5929V18.409L9.47488 6.93774Z" fill="#00D2FF"/>
<path d="M24.5999 22.4781L20.8611 18.6862V18.4084L24.5999 14.616L24.6908 14.7081L29.155 17.2981C30.4308 18.038 30.4308 19.2411 29.155 19.9805L24.5999 22.4781Z" fill="#FFBD00"/>
<path d="M24.6913 22.3851L20.8644 18.5L9.47534 30.0627C9.93091 30.5258 10.5683 30.526 11.3891 30.1551L24.6913 22.388" fill="url(#paint0_linear_1102_1790)"/>
<path d="M24.6913 14.6146L11.3891 6.93699C10.5688 6.47448 9.93091 6.56688 9.47534 7.02881L20.8644 18.4992L24.6913 14.6146Z" fill="url(#paint1_linear_1102_1790)"/>
<path opacity="0.2" d="M24.6004 22.2925L11.3891 29.8777C11.1281 30.0826 10.8075 30.1939 10.4776 30.1939C10.1477 30.1939 9.82716 30.0826 9.5662 29.8777L9.47534 29.9712L9.5662 30.0628C9.82724 30.2675 10.1478 30.3787 10.4776 30.3787C10.8074 30.3787 11.128 30.2675 11.3891 30.0628L24.6004 22.2925Z" fill="black" fill-opacity="0.8"/>
<path opacity="0.12" d="M9.47488 29.8776C9.19393 29.5095 9.06356 29.0457 9.11081 28.5825V28.6751C9.09114 29.1503 9.25431 29.6148 9.56581 29.97V29.8776H9.47488ZM29.155 19.7024L24.6 22.2924L24.6908 22.3856L29.155 19.7956C29.4089 19.6847 29.628 19.5056 29.7886 19.2772C29.9492 19.0489 30.0452 18.7803 30.0661 18.5005C30.0661 18.963 29.702 19.3327 29.155 19.7024Z" fill="black" fill-opacity="0.8"/>
<path opacity="0.25" d="M11.3878 7.02984L29.1542 17.298C29.7007 17.6683 30.0654 18.038 30.0654 18.5005C30.0445 18.2208 29.9486 17.9523 29.7879 17.724C29.6273 17.4958 29.4081 17.3166 29.1542 17.2059L11.3878 6.9383C10.1126 6.19781 9.1106 6.75248 9.1106 8.23288V8.32583C9.1106 6.93829 10.1126 6.28993 11.3878 7.02984Z" fill="white"/>
</g>
<defs>
<linearGradient id="paint0_linear_1102_1790" x1="-1097.52" y1="-3094.95" x2="-1098.32" y2="-3093.61" gradientUnits="userSpaceOnUse">
<stop stop-color="#FF3A44"/>
<stop offset="1" stop-color="#C31162"/>
</linearGradient>
<linearGradient id="paint1_linear_1102_1790" x1="-1098.38" y1="-3095.75" x2="-1098.03" y2="-3095.16" gradientUnits="userSpaceOnUse">
<stop offset="1" stop-color="#00F076"/>
</linearGradient>
<clipPath id="clip0_1102_1790">
<rect width="123" height="37" fill="white"/>
</clipPath>
</defs>
</svg>
