<svg width="13" height="19" viewBox="0 0 13 19" fill="none" xmlns="http://www.w3.org/2000/svg">
<path d="M6.42857 1.78571C7.0643 1.78571 7.68575 1.97423 8.21433 2.32742C8.74292 2.68061 9.1549 3.18261 9.39818 3.76995C9.64147 4.35728 9.70512 5.00357 9.5811 5.62708C9.45707 6.25059 9.15094 6.82332 8.70142 7.27284C8.25189 7.72237 7.67916 8.0285 7.05565 8.15252C6.43214 8.27655 5.78585 8.21289 5.19852 7.96961C4.61118 7.72633 4.10918 7.31435 3.75599 6.78576C3.4028 6.25717 3.21429 5.63573 3.21429 5C3.21429 4.14752 3.55293 3.32995 4.15573 2.72716C4.75852 2.12436 5.57609 1.78571 6.42857 1.78571ZM6.42857 0.5C5.53856 0.5 4.66853 0.76392 3.92851 1.25839C3.18848 1.75285 2.61171 2.45566 2.27111 3.27792C1.93052 4.10019 1.8414 5.00499 2.01504 5.87791C2.18867 6.75082 2.61725 7.55264 3.24659 8.18198C3.87593 8.81132 4.67775 9.2399 5.55067 9.41353C6.42358 9.58717 7.32838 9.49805 8.15065 9.15746C8.97291 8.81686 9.67572 8.24009 10.1702 7.50007C10.6647 6.76004 10.9286 5.89002 10.9286 5C10.9286 3.80653 10.4545 2.66193 9.61055 1.81802C8.76664 0.974106 7.62205 0.5 6.42857 0.5ZM12.8571 18.5H11.5714V15.2857C11.5714 14.8636 11.4883 14.4456 11.3268 14.0557C11.1652 13.6657 10.9285 13.3113 10.63 13.0129C10.3315 12.7144 9.97717 12.4776 9.5872 12.3161C9.19722 12.1546 8.77925 12.0714 8.35714 12.0714H4.5C3.64752 12.0714 2.82995 12.4101 2.22716 13.0129C1.62436 13.6157 1.28571 14.4332 1.28571 15.2857V18.5H0V15.2857C0 14.0922 0.474106 12.9476 1.31802 12.1037C2.16193 11.2598 3.30653 10.7857 4.5 10.7857H8.35714C9.55062 10.7857 10.6952 11.2598 11.5391 12.1037C12.383 12.9476 12.8571 14.0922 12.8571 15.2857V18.5Z" fill="black" fill-opacity="0.8"/>
</svg>
