<svg width="18" height="19" viewBox="0 0 18 19" fill="none" xmlns="http://www.w3.org/2000/svg">
<path d="M15.8509 9.98996V9.00359L17.0887 7.92053C17.3169 7.71942 17.4666 7.44413 17.5114 7.1433C17.5563 6.84247 17.4933 6.53549 17.3337 6.27659L15.8122 3.69786C15.6992 3.50205 15.5366 3.3394 15.3409 3.22625C15.1451 3.1131 14.923 3.05341 14.6969 3.05318C14.5568 3.0521 14.4174 3.07388 14.2843 3.11765L12.7178 3.64629C12.4473 3.46655 12.1651 3.30503 11.8732 3.16277L11.5444 1.53818C11.4855 1.24137 11.324 0.974749 11.0883 0.784995C10.8526 0.59524 10.5576 0.494439 10.2551 0.500237H7.23795C6.9354 0.494439 6.64045 0.59524 6.40473 0.784995C6.16901 0.974749 6.00754 1.24137 5.94859 1.53818L5.6198 3.16277C5.32578 3.30499 5.0415 3.46652 4.76882 3.64629L3.23448 3.09186C3.09993 3.0568 2.9606 3.04374 2.82188 3.05318C2.59577 3.05341 2.3737 3.1131 2.17795 3.22625C1.98219 3.3394 1.81963 3.50205 1.70658 3.69786L0.185131 6.27659C0.034654 6.5351 -0.0212627 6.83789 0.0269579 7.13309C0.0751786 7.42829 0.224536 7.69755 0.449451 7.89474L1.6679 9.01004V9.99641L0.449451 11.0795C0.218183 11.278 0.0647403 11.5521 0.0163525 11.8531C-0.0320353 12.154 0.0277616 12.4624 0.185131 12.7234L1.70658 15.3021C1.81963 15.498 1.98219 15.6606 2.17795 15.7737C2.3737 15.8869 2.59577 15.9466 2.82188 15.9468C2.962 15.9479 3.10136 15.9261 3.23448 15.8824L4.80106 15.3537C5.07153 15.5334 5.35366 15.695 5.64559 15.8372L5.97438 17.4618C6.03333 17.7586 6.1948 18.0252 6.43052 18.215C6.66624 18.4048 6.96119 18.5056 7.26374 18.4998H10.3066C10.6092 18.5056 10.9041 18.4048 11.1399 18.215C11.3756 18.0252 11.5371 17.7586 11.596 17.4618L11.9248 15.8372C12.2188 15.695 12.5031 15.5335 12.7758 15.3537L14.3359 15.8824C14.469 15.9261 14.6084 15.9479 14.7485 15.9468C14.9746 15.9466 15.1967 15.8869 15.3924 15.7737C15.5882 15.6606 15.7507 15.498 15.8638 15.3021L17.3337 12.7234C17.4842 12.4649 17.5401 12.1621 17.4918 11.8669C17.4436 11.5717 17.2943 11.3024 17.0694 11.1053L15.8509 9.98996ZM14.6969 14.6575L12.4857 13.9096C11.968 14.3481 11.3764 14.6908 10.7386 14.9218L10.2809 17.2362H7.23795L6.78023 14.9476C6.14742 14.71 5.55902 14.3679 5.03959 13.9354L2.82188 14.6575L1.30043 12.0787L3.05397 10.5315C2.93476 9.86415 2.93476 9.18097 3.05397 8.51364L1.30043 6.92127L2.82188 4.34254L5.03314 5.09037C5.55078 4.65192 6.14238 4.30918 6.78023 4.07822L7.23795 1.76381H10.2809L10.7386 4.05244C11.3714 4.28995 11.9598 4.6321 12.4792 5.06459L14.6969 4.34254L16.2184 6.92127L14.4648 8.46851C14.584 9.13585 14.584 9.81903 14.4648 10.4864L16.2184 12.0787L14.6969 14.6575Z" fill="black" fill-opacity="0.8"/>
<path d="M8.76067 13.3681C7.99564 13.3681 7.24778 13.1412 6.61168 12.7162C5.97557 12.2912 5.47979 11.687 5.18702 10.9802C4.89425 10.2734 4.81765 9.4957 4.9669 8.74536C5.11616 7.99503 5.48456 7.3058 6.02552 6.76484C6.56648 6.22387 7.25571 5.85547 8.00605 5.70622C8.75638 5.55697 9.53413 5.63357 10.2409 5.92634C10.9477 6.21911 11.5518 6.71489 11.9769 7.35099C12.4019 7.9871 12.6288 8.73496 12.6288 9.49999C12.6339 10.0094 12.5374 10.5147 12.3449 10.9863C12.1523 11.458 11.8676 11.8865 11.5074 12.2467C11.1471 12.6069 10.7187 12.8916 10.247 13.0842C9.77539 13.2767 9.27008 13.3733 8.76067 13.3681ZM8.76067 6.92126C8.41986 6.91332 8.08097 6.9746 7.76452 7.10138C7.44807 7.22816 7.16062 7.41782 6.91956 7.65888C6.6785 7.89993 6.48884 8.18738 6.36206 8.50384C6.23528 8.82029 6.174 9.15918 6.18194 9.49999C6.174 9.84081 6.23528 10.1797 6.36206 10.4961C6.48884 10.8126 6.6785 11.1 6.91956 11.3411C7.16062 11.5822 7.44807 11.7718 7.76452 11.8986C8.08097 12.0254 8.41986 12.0867 8.76067 12.0787C9.10149 12.0867 9.44037 12.0254 9.75682 11.8986C10.0733 11.7718 10.3607 11.5822 10.6018 11.3411C10.8428 11.1 11.0325 10.8126 11.1593 10.4961C11.2861 10.1797 11.3473 9.84081 11.3394 9.49999C11.3473 9.15918 11.2861 8.82029 11.1593 8.50384C11.0325 8.18738 10.8428 7.89993 10.6018 7.65888C10.3607 7.41782 10.0733 7.22816 9.75682 7.10138C9.44037 6.9746 9.10149 6.91332 8.76067 6.92126Z" fill="black" fill-opacity="0.8"/>
</svg>
