<svg width="20" height="22" viewBox="0 0 20 22" fill="none" xmlns="http://www.w3.org/2000/svg">
<path d="M16.25 14C15.6886 14.0028 15.135 14.1317 14.6301 14.377C14.1251 14.6223 13.6817 14.9779 13.3325 15.4175L7.85002 11.99C8.04983 11.3451 8.04983 10.6549 7.85002 10.01L13.3325 6.5825C13.889 7.27154 14.6714 7.74138 15.5411 7.90881C16.4108 8.07623 17.3117 7.93042 18.0842 7.49722C18.8567 7.06401 19.4509 6.37137 19.7616 5.54199C20.0723 4.7126 20.0794 3.80001 19.7817 2.96588C19.484 2.13174 18.9007 1.4299 18.135 0.984673C17.3694 0.539451 16.4709 0.379588 15.5987 0.533403C14.7265 0.687217 13.9368 1.14478 13.3697 1.82504C12.8025 2.5053 12.4944 3.36434 12.5 4.25C12.5036 4.58538 12.554 4.91862 12.65 5.24L7.16752 8.6675C6.6835 8.05819 6.02192 7.61454 5.27448 7.39805C4.52704 7.18156 3.73076 7.20295 2.99603 7.45926C2.26129 7.71557 1.62448 8.1941 1.17388 8.82853C0.72328 9.46295 0.481201 10.2218 0.481201 11C0.481201 11.7782 0.72328 12.5371 1.17388 13.1715C1.62448 13.8059 2.26129 14.2844 2.99603 14.5407C3.73076 14.7971 4.52704 14.8184 5.27448 14.602C6.02192 14.3855 6.6835 13.9418 7.16752 13.3325L12.65 16.76C12.554 17.0814 12.5036 17.4146 12.5 17.75C12.5 18.4917 12.7199 19.2167 13.132 19.8334C13.5441 20.4501 14.1297 20.9307 14.815 21.2146C15.5002 21.4984 16.2542 21.5726 16.9816 21.4279C17.709 21.2833 18.3772 20.9261 18.9017 20.4017C19.4261 19.8772 19.7833 19.209 19.928 18.4816C20.0727 17.7542 19.9984 17.0002 19.7146 16.3149C19.4307 15.6297 18.9501 15.044 18.3334 14.632C17.7167 14.2199 16.9917 14 16.25 14ZM16.25 2C16.695 2 17.13 2.13196 17.5 2.37919C17.8701 2.62643 18.1584 2.97783 18.3287 3.38896C18.499 3.8001 18.5436 4.2525 18.4568 4.68895C18.37 5.12541 18.1557 5.52632 17.841 5.84099C17.5263 6.15566 17.1254 6.36995 16.689 6.45677C16.2525 6.54358 15.8001 6.49903 15.389 6.32873C14.9778 6.15843 14.6264 5.87004 14.3792 5.50003C14.132 5.13002 14 4.69501 14 4.25C14 3.65326 14.2371 3.08097 14.659 2.65901C15.081 2.23705 15.6533 2 16.25 2ZM4.25002 13.25C3.80501 13.25 3.36999 13.118 2.99998 12.8708C2.62997 12.6236 2.34158 12.2722 2.17129 11.861C2.00099 11.4499 1.95643 10.9975 2.04325 10.561C2.13007 10.1246 2.34436 9.72368 2.65903 9.40901C2.97369 9.09434 3.37461 8.88005 3.81106 8.79323C4.24752 8.70642 4.69992 8.75097 5.11105 8.92127C5.52219 9.09157 5.87359 9.37996 6.12082 9.74997C6.36806 10.12 6.50002 10.555 6.50002 11C6.50002 11.5967 6.26296 12.169 5.84101 12.591C5.41905 13.0129 4.84675 13.25 4.25002 13.25ZM16.25 20C15.805 20 15.37 19.868 15 19.6208C14.63 19.3736 14.3416 19.0222 14.1713 18.611C14.001 18.1999 13.9564 17.7475 14.0432 17.311C14.1301 16.8746 14.3444 16.4737 14.659 16.159C14.9737 15.8443 15.3746 15.63 15.8111 15.5432C16.2475 15.4564 16.6999 15.501 17.1111 15.6713C17.5222 15.8416 17.8736 16.13 18.1208 16.5C18.3681 16.87 18.5 17.305 18.5 17.75C18.5 18.3467 18.263 18.919 17.841 19.341C17.4191 19.7629 16.8468 20 16.25 20Z" fill="black" fill-opacity="0.8"/>
</svg>
