<svg width="25" height="20" viewBox="0 0 25 20" fill="none" xmlns="http://www.w3.org/2000/svg">
<path d="M24.6179 2.32611C24.0835 2.56267 23.5285 2.74954 22.9599 2.88434C23.59 2.28619 24.0592 1.53887 24.3241 0.711433C24.3409 0.659073 24.3414 0.60283 24.3255 0.550192C24.3095 0.497554 24.2779 0.451017 24.2349 0.416772C24.1919 0.382527 24.1394 0.362198 24.0846 0.358493C24.0297 0.354789 23.975 0.367881 23.9277 0.396031C23.1376 0.864809 22.284 1.21732 21.3934 1.44271C21.3416 1.45575 21.2884 1.46231 21.235 1.46225C21.0713 1.46166 20.9135 1.40136 20.7912 1.29269C19.8438 0.457926 18.6243 -0.00234227 17.3616 -0.00170833C16.8044 -0.000315066 16.2507 0.085079 15.719 0.251591C14.8902 0.510881 14.1428 0.980541 13.5497 1.61476C12.9566 2.24898 12.538 3.0261 12.3347 3.87032C12.1832 4.49451 12.1417 5.14031 12.2119 5.77877C12.2148 5.80489 12.2122 5.83134 12.2041 5.85636C12.196 5.88138 12.1828 5.90441 12.1651 5.92391C12.1476 5.94377 12.1262 5.95979 12.1021 5.97096C12.0781 5.98213 12.0521 5.98821 12.0256 5.9888H12.0074C10.1949 5.82514 8.43361 5.29914 6.82814 4.44199C5.22268 3.58484 3.80571 2.414 2.66126 0.998921C2.63362 0.964861 2.59811 0.938028 2.5578 0.920729C2.51749 0.903431 2.47358 0.896186 2.42985 0.899618C2.38612 0.903051 2.34388 0.917056 2.30676 0.940432C2.26964 0.963808 2.23876 0.995854 2.21677 1.03381C1.63935 2.02875 1.40888 3.18735 1.56159 4.32752C1.7143 5.46769 2.24151 6.52481 3.06039 7.33274C2.64731 7.23489 2.24959 7.08087 1.87834 6.875C1.83733 6.85212 1.79108 6.8403 1.74412 6.84071C1.69716 6.84111 1.65112 6.85372 1.61051 6.8773C1.56989 6.90087 1.53612 6.93461 1.51248 6.97519C1.48885 7.01577 1.47618 7.0618 1.47572 7.10875C1.46341 8.11335 1.74294 9.09991 2.28038 9.94875C2.81782 10.7976 3.59007 11.4722 4.50342 11.8907H4.39247C4.0993 11.8905 3.80679 11.8627 3.51884 11.8077C3.47264 11.7987 3.42491 11.802 3.38036 11.8171C3.3358 11.8322 3.29596 11.8587 3.26475 11.8939C3.23355 11.9291 3.21206 11.9719 3.20241 12.0179C3.19276 12.064 3.19528 12.1118 3.20972 12.1566C3.50267 13.0659 4.04072 13.8769 4.76472 14.5004C5.48871 15.1238 6.3706 15.5355 7.31341 15.6902C5.72983 16.7548 3.864 17.3215 1.95579 17.3174H1.35639C1.26756 17.3167 1.18105 17.3458 1.11072 17.4001C1.04038 17.4543 0.99028 17.5306 0.968424 17.6167C0.947571 17.7035 0.95549 17.7946 0.990986 17.8764C1.02648 17.9582 1.08763 18.0263 1.1652 18.0703C3.33644 19.3327 5.80316 19.9979 8.31474 19.9983C10.4208 20.0189 12.5058 19.5781 14.4232 18.7067C16.1305 17.9143 17.6531 16.7734 18.8932 15.3573C20.0782 14.0093 21.006 12.4554 21.6306 10.7728C22.2352 9.16871 22.5501 7.46998 22.5608 5.75574V5.67689C22.561 5.54505 22.5907 5.41493 22.6478 5.29611C22.705 5.17728 22.788 5.07277 22.8908 4.99027C23.6878 4.34354 24.3832 3.58071 24.9535 2.72734C24.9863 2.67857 25.0024 2.62044 24.9993 2.56173C24.9961 2.50302 24.974 2.44693 24.9361 2.40192C24.8983 2.35692 24.8469 2.32545 24.7896 2.31228C24.7323 2.2991 24.6722 2.30494 24.6186 2.3289L24.6179 2.32611Z" fill="white"/>
</svg>
