<svg width="15" height="20" viewBox="0 0 15 20" fill="none" xmlns="http://www.w3.org/2000/svg">
<path d="M7.85697 1.42857C8.56333 1.42857 9.25383 1.63803 9.84115 2.03047C10.4285 2.4229 10.8862 2.98068 11.1565 3.63327C11.4269 4.28587 11.4976 5.00396 11.3598 5.69675C11.222 6.38954 10.8818 7.02591 10.3823 7.52538C9.88288 8.02485 9.24651 8.365 8.55372 8.5028C7.86093 8.64061 7.14284 8.56988 6.49024 8.29957C5.83765 8.02926 5.27987 7.5715 4.88743 6.98418C4.495 6.39686 4.28554 5.70636 4.28554 5C4.28554 4.0528 4.66181 3.14439 5.33159 2.47462C6.00136 1.80485 6.90977 1.42857 7.85697 1.42857ZM7.85697 0C6.86806 0 5.90136 0.293245 5.07912 0.842652C4.25687 1.39206 3.61601 2.17295 3.23757 3.08658C2.85913 4.00021 2.76012 5.00555 2.95304 5.97545C3.14597 6.94536 3.62217 7.83627 4.32143 8.53553C5.0207 9.2348 5.91161 9.711 6.88152 9.90393C7.85142 10.0969 8.85676 9.99784 9.77039 9.6194C10.684 9.24096 11.4649 8.6001 12.0143 7.77785C12.5637 6.95561 12.857 5.98891 12.857 5C12.857 3.67392 12.3302 2.40215 11.3925 1.46447C10.4548 0.526784 9.18305 0 7.85697 0ZM14.9998 20H13.5713V16.4286C13.5713 15.9596 13.4789 15.4952 13.2994 15.0618C13.1199 14.6285 12.8568 14.2348 12.5252 13.9032C12.1936 13.5716 11.7999 13.3085 11.3666 13.129C10.9332 12.9495 10.4688 12.8571 9.99983 12.8571H5.71411C4.76691 12.8571 3.8585 13.2334 3.18873 13.9032C2.51896 14.573 2.14268 15.4814 2.14268 16.4286V20H0.714111V16.4286C0.714111 15.1025 1.2409 13.8307 2.17858 12.893C3.11626 11.9554 4.38803 11.4286 5.71411 11.4286H9.99983C11.3259 11.4286 12.5977 11.9554 13.5354 12.893C14.473 13.8307 14.9998 15.1025 14.9998 16.4286V20Z" fill="black" fill-opacity="0.8"/>
</svg>
