<svg width="19" height="20" viewBox="0 0 19 20" fill="none" xmlns="http://www.w3.org/2000/svg">
<path d="M18.5121 12.6157L16.6453 10.7488V8.27574C16.6431 6.56669 16.0074 4.91913 14.8609 3.65166C13.7145 2.38418 12.1387 1.58683 10.4385 1.41377V0H9.05919V1.41377C7.35892 1.58683 5.78321 2.38418 4.63675 3.65166C3.49029 4.91913 2.85452 6.56669 2.85238 8.27574V10.7488L0.985513 12.6157C0.856171 12.745 0.783486 12.9204 0.783447 13.1033V15.1722C0.783447 15.3551 0.856106 15.5305 0.98544 15.6598C1.11477 15.7892 1.29019 15.8618 1.47309 15.8618H6.30061V16.3977C6.2856 17.2726 6.59398 18.1223 7.16665 18.7839C7.73932 19.4455 8.53599 19.8725 9.40401 19.9831C9.88343 20.0307 10.3675 19.9774 10.8251 19.8266C11.2827 19.6758 11.7036 19.431 12.0609 19.1077C12.4181 18.7845 12.7038 18.3901 12.8995 17.9498C13.0952 17.5096 13.1965 17.0333 13.1971 16.5515V15.8618H18.0246C18.2075 15.8618 18.3829 15.7892 18.5122 15.6598C18.6416 15.5305 18.7142 15.3551 18.7142 15.1722V13.1033C18.7142 12.9204 18.6415 12.745 18.5121 12.6157ZM11.8178 16.5515C11.8178 17.1002 11.5998 17.6264 11.2118 18.0144C10.8238 18.4024 10.2975 18.6204 9.74883 18.6204C9.20011 18.6204 8.67387 18.4024 8.28587 18.0144C7.89787 17.6264 7.6799 17.1002 7.6799 16.5515V15.8618H11.8178V16.5515ZM17.3349 14.4825H2.16274V13.3888L4.02961 11.5219C4.15895 11.3926 4.23163 11.2172 4.23167 11.0343V8.27574C4.23167 6.8125 4.81294 5.40919 5.84761 4.37452C6.88228 3.33985 8.28559 2.75858 9.74883 2.75858C11.2121 2.75858 12.6154 3.33985 13.6501 4.37452C14.6847 5.40919 15.266 6.8125 15.266 8.27574V11.0343C15.266 11.2172 15.3387 11.3926 15.4681 11.5219L17.3349 13.3888V14.4825Z" fill="black" fill-opacity="0.8"/>
</svg>
