<svg width="37" height="39" viewBox="0 0 37 39" fill="none" xmlns="http://www.w3.org/2000/svg">
<g clip-path="url(#clip0_1255_2154)">
<path d="M31.9628 4.34637C31.0218 3.4751 27.2192 0.705059 18.749 0.667426C18.749 0.667426 8.76054 0.0630115 3.8913 4.5448C1.1808 7.26524 0.2273 11.2458 0.126722 16.1809C0.0261441 21.116 -0.103984 30.3647 8.78042 32.8724H8.78895L8.78326 36.6991C8.78326 36.6991 8.72644 38.2483 9.74302 38.5642C10.9727 38.9474 11.6943 37.7699 12.8683 36.5006C13.5127 35.8039 14.4026 34.7803 15.0731 33.998C21.1493 34.5112 25.8225 33.3383 26.3532 33.165C27.58 32.7658 34.5222 31.8735 35.6513 22.6253C36.8167 13.0933 35.0876 7.06395 31.9628 4.34637Z" fill="white"/>
<path d="M29.9871 6.27189C29.1915 5.54659 25.7577 3.38153 18.5928 3.35017C18.5928 3.35017 10.1084 2.7908 5.9898 6.53418C3.69752 8.8053 2.92529 12.1826 2.84062 16.304C2.75595 20.4255 2.31727 28.2988 9.82995 30.3932C9.82995 30.3932 9.80041 36.2383 9.797 36.7521C9.797 37.1113 9.85382 37.357 10.0584 37.4078C10.2056 37.4437 10.426 37.3673 10.6136 37.1797C11.8148 35.9692 15.6606 31.3135 15.6606 31.3135C20.8208 31.6516 24.9263 30.6292 25.3679 30.4844C26.4089 30.1485 32.0396 29.6633 32.9925 21.9393C33.9773 13.9776 32.6305 8.543 29.9871 6.27189Z" fill="#7360F2"/>
<path fill-rule="evenodd" clip-rule="evenodd" d="M18.8945 12.9701C18.9082 12.705 19.1336 12.5013 19.3978 12.5151C20.3863 12.5669 21.2086 12.8671 21.7944 13.4748C22.3778 14.0801 22.6639 14.9258 22.7141 15.9415C22.7272 16.2067 22.5236 16.4323 22.2594 16.4454C21.9951 16.4586 21.7703 16.2543 21.7572 15.9891C21.7142 15.1197 21.4765 14.5278 21.1057 14.1431C20.7372 13.7608 20.1747 13.5185 19.3479 13.4752C19.0837 13.4613 18.8807 13.2352 18.8945 12.9701Z" fill="white"/>
<path fill-rule="evenodd" clip-rule="evenodd" d="M18.1683 10.3805C18.1876 10.1157 18.4171 9.91677 18.681 9.93615C20.6926 10.0839 22.3118 10.7736 23.4912 12.0655L23.4913 12.0656C24.6579 13.3448 25.2124 14.9361 25.1721 16.8025C25.1664 17.0679 24.9473 17.2784 24.6828 17.2727C24.4183 17.2669 24.2086 17.0471 24.2143 16.7817C24.2498 15.1357 23.7674 13.7924 22.7846 12.7147C21.8047 11.6415 20.435 11.0289 18.6111 10.8949C18.3472 10.8756 18.149 10.6452 18.1683 10.3805Z" fill="white"/>
<path fill-rule="evenodd" clip-rule="evenodd" d="M17.3228 7.91871C17.3246 7.65324 17.5406 7.43954 17.8051 7.44139C20.5851 7.46082 22.9348 8.38948 24.8215 10.235C26.7239 12.096 27.6647 14.6295 27.6885 17.7761C27.6906 18.0415 27.4777 18.2584 27.2132 18.2604C26.9486 18.2624 26.7325 18.0488 26.7305 17.7834C26.7082 14.8349 25.834 12.568 24.1527 10.9234C22.4557 9.26331 20.3486 8.42055 17.7984 8.40273C17.5339 8.40088 17.3209 8.18417 17.3228 7.91871Z" fill="white"/>
<path d="M19.4678 22.4035C19.4678 22.4035 20.1412 22.4605 20.5037 22.0123L21.2106 21.12C21.5516 20.6775 22.3744 20.3952 23.1801 20.8457C23.784 21.1913 24.3702 21.5669 24.9366 21.9713C25.4713 22.3659 26.5663 23.2827 26.5697 23.2827C27.0913 23.7246 27.2118 24.3735 26.8566 25.0578C26.8566 25.0618 26.8538 25.0686 26.8538 25.072C26.4626 25.7525 25.966 26.3661 25.3826 26.8898C25.3758 26.8933 25.3758 26.8967 25.3696 26.9001C24.8627 27.3251 24.3647 27.5667 23.8757 27.6248C23.8037 27.6375 23.7305 27.6421 23.6575 27.6385C23.4418 27.6406 23.2272 27.6075 23.0222 27.5404L23.0063 27.5171C22.2528 27.3038 20.9947 26.7701 18.8996 25.6103C17.6872 24.9471 16.533 24.182 15.4493 23.3232C14.9061 22.893 14.3879 22.4319 13.8974 21.9422L13.8451 21.8897L13.7928 21.8373L13.7406 21.7848C13.723 21.7677 13.7059 21.75 13.6883 21.7324C13.2002 21.2401 12.7407 20.7202 12.312 20.1751C11.4564 19.0878 10.6939 17.9298 10.0328 16.7134C8.87702 14.6105 8.34515 13.3492 8.13263 12.592L8.10933 12.576C8.04271 12.3702 8.0099 12.1549 8.01216 11.9386C8.00818 11.8653 8.01257 11.7918 8.02523 11.7196C8.08622 11.2296 8.32734 10.7295 8.7486 10.2194C8.75201 10.2131 8.75542 10.2131 8.75883 10.2063C9.28064 9.62086 9.89217 9.12271 10.5704 8.7306C10.5738 8.7306 10.5806 8.72718 10.5846 8.72718C11.2665 8.3708 11.9131 8.49168 12.3529 9.01228C12.3563 9.0157 13.2684 10.1145 13.6599 10.651C14.0629 11.22 14.4373 11.8088 14.7816 12.4152C15.2305 13.2232 14.9492 14.0506 14.5083 14.3916L13.619 15.1009C13.1701 15.4647 13.2292 16.1404 13.2292 16.1404C13.2292 16.1404 14.5463 21.1428 19.4678 22.4035Z" fill="white"/>
</g>
<defs>
<clipPath id="clip0_1255_2154">
<rect width="35.9121" height="38" fill="white" transform="translate(0.104492 0.639999)"/>
</clipPath>
</defs>
</svg>
