<svg width="40" height="40" viewBox="0 0 40 40" fill="none" xmlns="http://www.w3.org/2000/svg">
<path d="M19.4403 3.08794C10.5136 3.08794 3.25417 10.3448 3.25099 19.2645C3.2466 22.3104 4.10431 25.2952 5.72498 27.8741L6.11001 28.4862L4.47489 34.4556L10.5999 32.8496L11.1914 33.2C13.6754 34.6742 16.5236 35.4538 19.4281 35.4554H19.4342C28.3539 35.4554 35.6134 28.1978 35.6169 19.2775C35.6236 17.1514 35.2085 15.045 34.3957 13.0804C33.5828 11.1158 32.3883 9.33197 30.8814 7.83215C29.3828 6.32412 27.5999 5.12832 25.6361 4.31397C23.6722 3.49962 21.5663 3.0829 19.4403 3.08794Z" fill="url(#paint0_linear_1255_2148)"/>
<path fill-rule="evenodd" clip-rule="evenodd" d="M14.5679 11.1262C14.2032 10.3161 13.8195 10.2997 13.4731 10.2857L12.5406 10.2743C12.2162 10.2743 11.689 10.3961 11.2434 10.883C10.7978 11.3699 9.54053 12.5467 9.54053 14.9402C9.54053 17.3337 11.2839 19.6466 11.5268 19.9715C11.7697 20.2965 14.8923 25.3649 19.8374 27.3149C23.9468 28.9355 24.783 28.6132 25.6753 28.5322C26.5676 28.4512 28.5536 27.3554 28.9588 26.2194C29.3639 25.0833 29.3642 24.11 29.2427 23.9065C29.1213 23.703 28.7968 23.5821 28.3099 23.3386C27.823 23.0952 25.4316 21.9184 24.9857 21.7559C24.5398 21.5934 24.2156 21.5127 23.8909 21.9996C23.5662 22.4865 22.635 23.5818 22.3511 23.9065C22.0671 24.2312 21.7837 24.272 21.2968 24.0288C20.8099 23.7856 19.2433 23.2717 17.3846 21.6143C15.9384 20.3248 14.9622 18.7323 14.678 18.2456C14.3938 17.759 14.6478 17.4954 14.8918 17.253C15.1101 17.035 15.3782 16.6849 15.6219 16.4009C15.8656 16.117 15.9458 15.914 16.1077 15.5899C16.2697 15.2657 16.189 14.981 16.0673 14.7378C15.9455 14.4946 15.0003 12.0886 14.5679 11.1264" fill="white"/>
<defs>
<linearGradient id="paint0_linear_1255_2148" x1="19.1045" y1="5.03029" x2="19.2685" y2="32.6903" gradientUnits="userSpaceOnUse">
<stop stop-color="#57D163"/>
<stop offset="1" stop-color="#23B33A"/>
</linearGradient>
</defs>
</svg>
