<svg width="18" height="19" viewBox="0 0 18 19" fill="none" xmlns="http://www.w3.org/2000/svg">
<path d="M14.6252 3.875V5.09563L3.17265 7.17687C2.91057 7.2248 2.67401 7.36417 2.50507 7.57019C2.33614 7.7762 2.2458 8.03549 2.25015 8.30188V10.7431C2.2458 11.0095 2.33614 11.2688 2.50507 11.4748C2.67401 11.6808 2.91057 11.8202 3.17265 11.8681L4.50015 12.065V14C4.50015 14.2984 4.61868 14.5845 4.82965 14.7955C5.04063 15.0065 5.32678 15.125 5.62515 15.125H10.1252C10.4235 15.125 10.7097 15.0065 10.9206 14.7955C11.1316 14.5845 11.2502 14.2984 11.2502 14V13.2913L14.6252 13.9044V15.125H15.7502V3.875H14.6252ZM10.1252 14H5.62515V12.2731L10.1252 13.0887V14ZM3.37515 10.7206V8.27938L14.6252 6.2375V12.7625L3.37515 10.7206Z" fill="black" fill-opacity="0.8"/>
</svg>
