<svg width="126" height="19" viewBox="0 0 126 19" fill="none" xmlns="http://www.w3.org/2000/svg">
<path d="M8.37891 3.21094L3.28125 18H0.199219L6.62109 0.9375H8.58984L8.37891 3.21094ZM12.6445 18L7.53516 3.21094L7.3125 0.9375H9.29297L15.7383 18H12.6445ZM12.3984 11.6719V14.0039H3.11719V11.6719H12.3984ZM20.2031 7.73438V18H17.3789V5.32031H20.0742L20.2031 7.73438ZM24.082 5.23828L24.0586 7.86328C23.8867 7.83203 23.6992 7.80859 23.4961 7.79297C23.3008 7.77734 23.1055 7.76953 22.9102 7.76953C22.4258 7.76953 22 7.83984 21.6328 7.98047C21.2656 8.11328 20.957 8.30859 20.707 8.56641C20.4648 8.81641 20.2773 9.12109 20.1445 9.48047C20.0117 9.83984 19.9336 10.2422 19.9102 10.6875L19.2656 10.7344C19.2656 9.9375 19.3438 9.19922 19.5 8.51953C19.6562 7.83984 19.8906 7.24219 20.2031 6.72656C20.5234 6.21094 20.9219 5.80859 21.3984 5.51953C21.8828 5.23047 22.4414 5.08594 23.0742 5.08594C23.2461 5.08594 23.4297 5.10156 23.625 5.13281C23.8281 5.16406 23.9805 5.19922 24.082 5.23828ZM28.6992 0V18H25.8633V0H28.6992ZM36.5742 5.32031L31.0547 11.4375L28.0312 14.5312L27.293 12.1406L29.5781 9.31641L33.1641 5.32031H36.5742ZM33.7734 18L29.6602 12.0469L31.4414 10.0664L37.043 18H33.7734ZM37.8281 11.8008V11.5312C37.8281 10.6172 37.9609 9.76953 38.2266 8.98828C38.4922 8.19922 38.875 7.51562 39.375 6.9375C39.8828 6.35156 40.5 5.89844 41.2266 5.57812C41.9609 5.25 42.7891 5.08594 43.7109 5.08594C44.6406 5.08594 45.4688 5.25 46.1953 5.57812C46.9297 5.89844 47.5508 6.35156 48.0586 6.9375C48.5664 7.51562 48.9531 8.19922 49.2188 8.98828C49.4844 9.76953 49.6172 10.6172 49.6172 11.5312V11.8008C49.6172 12.7148 49.4844 13.5625 49.2188 14.3438C48.9531 15.125 48.5664 15.8086 48.0586 16.3945C47.5508 16.9727 46.9336 17.4258 46.207 17.7539C45.4805 18.0742 44.6562 18.2344 43.7344 18.2344C42.8047 18.2344 41.9727 18.0742 41.2383 17.7539C40.5117 17.4258 39.8945 16.9727 39.3867 16.3945C38.8789 15.8086 38.4922 15.125 38.2266 14.3438C37.9609 13.5625 37.8281 12.7148 37.8281 11.8008ZM40.6523 11.5312V11.8008C40.6523 12.3711 40.7109 12.9102 40.8281 13.418C40.9453 13.9258 41.1289 14.3711 41.3789 14.7539C41.6289 15.1367 41.9492 15.4375 42.3398 15.6562C42.7305 15.875 43.1953 15.9844 43.7344 15.9844C44.2578 15.9844 44.7109 15.875 45.0938 15.6562C45.4844 15.4375 45.8047 15.1367 46.0547 14.7539C46.3047 14.3711 46.4883 13.9258 46.6055 13.418C46.7305 12.9102 46.793 12.3711 46.793 11.8008V11.5312C46.793 10.9688 46.7305 10.4375 46.6055 9.9375C46.4883 9.42969 46.3008 8.98047 46.043 8.58984C45.793 8.19922 45.4727 7.89453 45.082 7.67578C44.6992 7.44922 44.2422 7.33594 43.7109 7.33594C43.1797 7.33594 42.7188 7.44922 42.3281 7.67578C41.9453 7.89453 41.6289 8.19922 41.3789 8.58984C41.1289 8.98047 40.9453 9.42969 40.8281 9.9375C40.7109 10.4375 40.6523 10.9688 40.6523 11.5312ZM53.4609 0.9375H56.0859L61.0195 14.0977L65.9414 0.9375H68.5664L62.0508 18H59.9648L53.4609 0.9375ZM52.2656 0.9375H54.7617L55.1953 12.3281V18H52.2656V0.9375ZM67.2656 0.9375H69.7734V18H66.832V12.3281L67.2656 0.9375ZM80.1328 15.457V9.41016C80.1328 8.95703 80.0508 8.56641 79.8867 8.23828C79.7227 7.91016 79.4727 7.65625 79.1367 7.47656C78.8086 7.29688 78.3945 7.20703 77.8945 7.20703C77.4336 7.20703 77.0352 7.28516 76.6992 7.44141C76.3633 7.59766 76.1016 7.80859 75.9141 8.07422C75.7266 8.33984 75.6328 8.64062 75.6328 8.97656H72.8203C72.8203 8.47656 72.9414 7.99219 73.1836 7.52344C73.4258 7.05469 73.7773 6.63672 74.2383 6.26953C74.6992 5.90234 75.25 5.61328 75.8906 5.40234C76.5312 5.19141 77.25 5.08594 78.0469 5.08594C79 5.08594 79.8438 5.24609 80.5781 5.56641C81.3203 5.88672 81.9023 6.37109 82.3242 7.01953C82.7539 7.66016 82.9688 8.46484 82.9688 9.43359V15.0703C82.9688 15.6484 83.0078 16.168 83.0859 16.6289C83.1719 17.082 83.293 17.4766 83.4492 17.8125V18H80.5547C80.4219 17.6953 80.3164 17.3086 80.2383 16.8398C80.168 16.3633 80.1328 15.9023 80.1328 15.457ZM80.543 10.2891L80.5664 12.0352H78.5391C78.0156 12.0352 77.5547 12.0859 77.1562 12.1875C76.7578 12.2812 76.4258 12.4219 76.1602 12.6094C75.8945 12.7969 75.6953 13.0234 75.5625 13.2891C75.4297 13.5547 75.3633 13.8555 75.3633 14.1914C75.3633 14.5273 75.4414 14.8359 75.5977 15.1172C75.7539 15.3906 75.9805 15.6055 76.2773 15.7617C76.582 15.918 76.9492 15.9961 77.3789 15.9961C77.957 15.9961 78.4609 15.8789 78.8906 15.6445C79.3281 15.4023 79.6719 15.1094 79.9219 14.7656C80.1719 14.4141 80.3047 14.082 80.3203 13.7695L81.2344 15.0234C81.1406 15.3438 80.9805 15.6875 80.7539 16.0547C80.5273 16.4219 80.2305 16.7734 79.8633 17.1094C79.5039 17.4375 79.0703 17.707 78.5625 17.918C78.0625 18.1289 77.4844 18.2344 76.8281 18.2344C76 18.2344 75.2617 18.0703 74.6133 17.7422C73.9648 17.4062 73.457 16.957 73.0898 16.3945C72.7227 15.8242 72.5391 15.1797 72.5391 14.4609C72.5391 13.7891 72.6641 13.1953 72.9141 12.6797C73.1719 12.1562 73.5469 11.7188 74.0391 11.3672C74.5391 11.0156 75.1484 10.75 75.8672 10.5703C76.5859 10.3828 77.4062 10.2891 78.3281 10.2891H80.543ZM88.7578 7.73438V18H85.9336V5.32031H88.6289L88.7578 7.73438ZM92.6367 5.23828L92.6133 7.86328C92.4414 7.83203 92.2539 7.80859 92.0508 7.79297C91.8555 7.77734 91.6602 7.76953 91.4648 7.76953C90.9805 7.76953 90.5547 7.83984 90.1875 7.98047C89.8203 8.11328 89.5117 8.30859 89.2617 8.56641C89.0195 8.81641 88.832 9.12109 88.6992 9.48047C88.5664 9.83984 88.4883 10.2422 88.4648 10.6875L87.8203 10.7344C87.8203 9.9375 87.8984 9.19922 88.0547 8.51953C88.2109 7.83984 88.4453 7.24219 88.7578 6.72656C89.0781 6.21094 89.4766 5.80859 89.9531 5.51953C90.4375 5.23047 90.9961 5.08594 91.6289 5.08594C91.8008 5.08594 91.9844 5.10156 92.1797 5.13281C92.3828 5.16406 92.5352 5.19922 92.6367 5.23828ZM97.2539 0V18H94.418V0H97.2539ZM105.129 5.32031L99.6094 11.4375L96.5859 14.5312L95.8477 12.1406L98.1328 9.31641L101.719 5.32031H105.129ZM102.328 18L98.2148 12.0469L99.9961 10.0664L105.598 18H102.328ZM112.277 18.2344C111.34 18.2344 110.492 18.082 109.734 17.7773C108.984 17.4648 108.344 17.0312 107.812 16.4766C107.289 15.9219 106.887 15.2695 106.605 14.5195C106.324 13.7695 106.184 12.9609 106.184 12.0938V11.625C106.184 10.6328 106.328 9.73438 106.617 8.92969C106.906 8.125 107.309 7.4375 107.824 6.86719C108.34 6.28906 108.949 5.84766 109.652 5.54297C110.355 5.23828 111.117 5.08594 111.938 5.08594C112.844 5.08594 113.637 5.23828 114.316 5.54297C114.996 5.84766 115.559 6.27734 116.004 6.83203C116.457 7.37891 116.793 8.03125 117.012 8.78906C117.238 9.54688 117.352 10.3828 117.352 11.2969V12.5039H107.555V10.4766H114.562V10.2539C114.547 9.74609 114.445 9.26953 114.258 8.82422C114.078 8.37891 113.801 8.01953 113.426 7.74609C113.051 7.47266 112.551 7.33594 111.926 7.33594C111.457 7.33594 111.039 7.4375 110.672 7.64062C110.312 7.83594 110.012 8.12109 109.77 8.49609C109.527 8.87109 109.34 9.32422 109.207 9.85547C109.082 10.3789 109.02 10.9688 109.02 11.625V12.0938C109.02 12.6484 109.094 13.1641 109.242 13.6406C109.398 14.1094 109.625 14.5195 109.922 14.8711C110.219 15.2227 110.578 15.5 111 15.7031C111.422 15.8984 111.902 15.9961 112.441 15.9961C113.121 15.9961 113.727 15.8594 114.258 15.5859C114.789 15.3125 115.25 14.9258 115.641 14.4258L117.129 15.8672C116.855 16.2656 116.5 16.6484 116.062 17.0156C115.625 17.375 115.09 17.668 114.457 17.8945C113.832 18.1211 113.105 18.2344 112.277 18.2344ZM125.367 5.32031V7.38281H118.219V5.32031H125.367ZM120.281 2.21484H123.105V14.4961C123.105 14.8867 123.16 15.1875 123.27 15.3984C123.387 15.6016 123.547 15.7383 123.75 15.8086C123.953 15.8789 124.191 15.9141 124.465 15.9141C124.66 15.9141 124.848 15.9023 125.027 15.8789C125.207 15.8555 125.352 15.832 125.461 15.8086L125.473 17.9648C125.238 18.0352 124.965 18.0977 124.652 18.1523C124.348 18.207 123.996 18.2344 123.598 18.2344C122.949 18.2344 122.375 18.1211 121.875 17.8945C121.375 17.6602 120.984 17.2812 120.703 16.7578C120.422 16.2344 120.281 15.5391 120.281 14.6719V2.21484Z" fill="black" fill-opacity="0.8"/>
</svg>
