<svg width="17" height="16" viewBox="0 0 17 16" fill="none" xmlns="http://www.w3.org/2000/svg">
<path d="M14.993 8.24443C14.993 8.07302 15.061 7.90863 15.1823 7.78743C15.3035 7.66622 15.4678 7.59813 15.6393 7.59813C15.8107 7.59813 15.9751 7.66622 16.0963 7.78743C16.2175 7.90863 16.2856 8.07302 16.2856 8.24443V15.3537C16.2856 15.5251 16.2175 15.6895 16.0963 15.8107C15.9751 15.9319 15.8107 16 15.6393 16H1.42071C1.2493 16 1.08491 15.9319 0.96371 15.8107C0.842506 15.6895 0.774414 15.5251 0.774414 15.3537V1.13516C0.774414 0.96375 0.842506 0.799362 0.96371 0.678157C1.08491 0.556953 1.2493 0.488861 1.42071 0.488861H8.52998C8.70139 0.488861 8.86578 0.556953 8.98698 0.678157C9.10819 0.799362 9.17628 0.96375 9.17628 1.13516C9.17628 1.30657 9.10819 1.47096 8.98698 1.59216C8.86578 1.71336 8.70139 1.78146 8.52998 1.78146H2.06701V14.7074H14.993V8.24443Z" fill="black" fill-opacity="0.8"/>
<path d="M7.6802 9.09751L8.74659 8.94499L15.2975 2.39541C15.3592 2.33579 15.4084 2.26448 15.4423 2.18562C15.4762 2.10677 15.494 2.02197 15.4947 1.93615C15.4955 1.85034 15.4791 1.76523 15.4466 1.68581C15.4141 1.60638 15.3661 1.53422 15.3055 1.47353C15.2448 1.41285 15.1726 1.36486 15.0932 1.33237C15.0138 1.29987 14.9287 1.28352 14.8428 1.28426C14.757 1.28501 14.6722 1.30284 14.5934 1.33671C14.5145 1.37058 14.4432 1.41982 14.3836 1.48155L7.83143 8.03112L7.6789 9.09751H7.6802ZM16.2113 0.566389C16.3915 0.746448 16.5344 0.960245 16.6319 1.19556C16.7294 1.43088 16.7796 1.68311 16.7796 1.93783C16.7796 2.19255 16.7294 2.44478 16.6319 2.6801C16.5344 2.91542 16.3915 3.12922 16.2113 3.30927L9.50922 10.0114C9.41039 10.1106 9.28201 10.175 9.14341 10.1949L7.01063 10.5C6.91124 10.5143 6.80988 10.5052 6.71461 10.4734C6.61933 10.4417 6.53276 10.3882 6.46176 10.3172C6.39075 10.2462 6.33727 10.1597 6.30555 10.0644C6.27383 9.96912 6.26475 9.86776 6.27902 9.76837L6.58408 7.63559C6.60366 7.49715 6.66761 7.36879 6.76633 7.26978L13.4697 0.567681C13.8333 0.204195 14.3264 0 14.8405 0C15.3546 0 15.8477 0.204195 16.2113 0.567681V0.566389Z" fill="black" fill-opacity="0.8"/>
</svg>
