<svg width="20" height="20" viewBox="0 0 20 20" fill="none" xmlns="http://www.w3.org/2000/svg">
<path d="M9.94145 0.0457993C4.451 0.0457993 0 4.49679 0 9.98725C0 14.9115 3.58409 18.9897 8.28341 19.7794V12.0613H5.88525V9.28388H8.28341V7.23591C8.28341 4.85969 9.73474 3.56478 11.8548 3.56478C12.8702 3.56478 13.7428 3.64044 13.9961 3.67377V6.15756L12.5257 6.15827C11.373 6.15827 11.1507 6.70593 11.1507 7.50986V9.28245H13.9012L13.5425 12.0599H11.1507V19.8458C16.0695 19.2471 19.8828 15.0651 19.8828 9.9844C19.8828 4.49679 15.4318 0.0457993 9.94145 0.0457993Z" fill="#0071E2"/>
</svg>
