<svg width="18" height="19" viewBox="0 0 18 19" fill="none" xmlns="http://www.w3.org/2000/svg">
<path d="M9 1.625C7.44248 1.625 5.91992 2.08686 4.62489 2.95218C3.32985 3.81749 2.32049 5.0474 1.72445 6.48637C1.12841 7.92534 0.972461 9.50874 1.27632 11.0363C1.58018 12.5639 2.3302 13.9671 3.43154 15.0685C4.53288 16.1698 5.93607 16.9198 7.46367 17.2237C8.99127 17.5275 10.5747 17.3716 12.0136 16.7756C13.4526 16.1795 14.6825 15.1702 15.5478 13.8751C16.4131 12.5801 16.875 11.0575 16.875 9.5C16.875 7.41142 16.0453 5.40838 14.5685 3.93153C13.0916 2.45469 11.0886 1.625 9 1.625ZM9 16.25C7.66498 16.25 6.35994 15.8541 5.2499 15.1124C4.13987 14.3707 3.27471 13.3165 2.76382 12.0831C2.25293 10.8497 2.11925 9.49251 2.3797 8.18314C2.64015 6.87377 3.28303 5.67103 4.22703 4.72703C5.17104 3.78302 6.37377 3.14015 7.68314 2.8797C8.99252 2.61925 10.3497 2.75292 11.5831 3.26381C12.8165 3.7747 13.8707 4.63987 14.6124 5.7499C15.3541 6.85993 15.75 8.16498 15.75 9.5C15.75 11.2902 15.0388 13.0071 13.773 14.273C12.5071 15.5388 10.7902 16.25 9 16.25Z" fill="black" fill-opacity="0.8"/>
<path d="M9 14.5625C9.46599 14.5625 9.84375 14.1847 9.84375 13.7188C9.84375 13.2528 9.46599 12.875 9 12.875C8.53401 12.875 8.15625 13.2528 8.15625 13.7188C8.15625 14.1847 8.53401 14.5625 9 14.5625Z" fill="black" fill-opacity="0.8"/>
<path d="M9.56251 5.00001H8.71876C8.38614 4.99926 8.05665 5.06423 7.74921 5.19118C7.44177 5.31812 7.16243 5.50454 6.92724 5.73974C6.69204 5.97493 6.50562 6.25427 6.37868 6.56171C6.25173 6.86915 6.18676 7.19864 6.18751 7.53126V7.81251H7.31251V7.53126C7.31251 7.1583 7.46066 6.80061 7.72439 6.53689C7.98811 6.27316 8.3458 6.12501 8.71876 6.12501H9.56251C9.93547 6.12501 10.2932 6.27316 10.5569 6.53689C10.8206 6.80061 10.9688 7.1583 10.9688 7.53126C10.9688 7.90422 10.8206 8.2619 10.5569 8.52562C10.2932 8.78935 9.93547 8.93751 9.56251 8.93751H8.43751V11.4688H9.56251V10.0625C10.2338 10.0625 10.8777 9.79582 11.3524 9.32112C11.8271 8.84642 12.0938 8.20259 12.0938 7.53126C12.0938 6.85993 11.8271 6.21609 11.3524 5.74139C10.8777 5.26669 10.2338 5.00001 9.56251 5.00001Z" fill="black" fill-opacity="0.8"/>
</svg>
