<svg width="22" height="19" viewBox="0 0 22 19" fill="none" xmlns="http://www.w3.org/2000/svg">
<path d="M21.6562 2.59333C21.1753 2.80624 20.6758 2.97442 20.164 3.09574C20.7311 2.5574 21.1534 1.88481 21.3918 1.14012C21.4069 1.09299 21.4074 1.04238 21.393 0.995002C21.3787 0.947627 21.3503 0.905744 21.3115 0.874924C21.2728 0.844103 21.2256 0.825807 21.1762 0.822473C21.1268 0.819139 21.0776 0.830922 21.0351 0.856257C20.324 1.27816 19.5558 1.59542 18.7542 1.79827C18.7075 1.81 18.6597 1.81591 18.6116 1.81586C18.4643 1.81532 18.3223 1.76106 18.2122 1.66325C17.3595 0.911962 16.262 0.497721 15.1255 0.498292C14.6241 0.499546 14.1257 0.5764 13.6472 0.726261C12.9013 0.959622 12.2287 1.38232 11.6949 1.95311C11.1611 2.52391 10.7843 3.22332 10.6013 3.98312C10.465 4.54489 10.4276 5.12611 10.4908 5.70072C10.4935 5.72423 10.4911 5.74804 10.4838 5.77055C10.4766 5.79307 10.4646 5.8138 10.4487 5.83135C10.433 5.84922 10.4137 5.86364 10.392 5.8737C10.3704 5.88375 10.347 5.88921 10.3231 5.88975H10.3068C8.67549 5.74246 7.09037 5.26905 5.64545 4.49762C4.20054 3.72618 2.92526 2.67243 1.89525 1.39886C1.87038 1.3682 1.83842 1.34405 1.80214 1.32849C1.76586 1.31292 1.72634 1.3064 1.68699 1.30949C1.64763 1.31257 1.60961 1.32518 1.5762 1.34622C1.5428 1.36726 1.515 1.3961 1.49521 1.43026C0.975537 2.3257 0.768118 3.36844 0.905553 4.3946C1.04299 5.42075 1.51749 6.37216 2.25448 7.0993C1.8827 7.01123 1.52475 6.87262 1.19063 6.68733C1.15372 6.66674 1.11209 6.6561 1.06983 6.65646C1.02757 6.65683 0.986126 6.66818 0.949577 6.6894C0.913027 6.71062 0.882626 6.74098 0.861357 6.7775C0.840089 6.81402 0.828685 6.85545 0.828267 6.89771C0.817194 7.80184 1.06877 8.68975 1.55247 9.4537C2.03616 10.2176 2.73119 10.8248 3.5532 11.2015H3.45335C3.18949 11.2013 2.92624 11.1763 2.66708 11.1267C2.6255 11.1187 2.58254 11.1216 2.54244 11.1352C2.50234 11.1488 2.46648 11.1727 2.4384 11.2044C2.41032 11.2361 2.39098 11.2745 2.38229 11.316C2.37361 11.3574 2.37587 11.4004 2.38887 11.4407C2.65252 12.2592 3.13677 12.9891 3.78837 13.5502C4.43996 14.1112 5.23366 14.4817 6.08219 14.621C4.65697 15.5792 2.97772 16.0892 1.26034 16.0855H0.720877C0.640925 16.0849 0.563071 16.1111 0.499769 16.1599C0.436467 16.2087 0.391374 16.2774 0.371704 16.3549C0.352936 16.4329 0.360063 16.515 0.39201 16.5886C0.423957 16.6622 0.47899 16.7235 0.548803 16.7631C2.50292 17.8993 4.72297 18.498 6.98338 18.4983C8.87881 18.5169 10.7553 18.1201 12.481 17.3358C14.0176 16.6227 15.388 15.5959 16.504 14.3214C17.5705 13.1082 18.4055 11.7097 18.9677 10.1954C19.5118 8.75167 19.7952 7.22281 19.8048 5.68V5.60903C19.805 5.49038 19.8318 5.37327 19.8832 5.26633C19.9346 5.15938 20.0093 5.06533 20.1019 4.99107C20.8192 4.40901 21.445 3.72247 21.9583 2.95444C21.9878 2.91055 22.0023 2.85823 21.9995 2.80539C21.9966 2.75255 21.9767 2.70206 21.9427 2.66156C21.9086 2.62105 21.8623 2.59273 21.8107 2.58088C21.7592 2.56902 21.7051 2.57428 21.6568 2.59584L21.6562 2.59333Z" fill="black" fill-opacity="0.6"/>
</svg>
