<svg width="117" height="40" viewBox="0 0 117 40" fill="none" xmlns="http://www.w3.org/2000/svg">
<rect width="40" height="40" rx="4" fill="white"/>
<path d="M11.2544 12.9759L6.62021 26.4205H3.81836L9.65643 10.9092H11.4462L11.2544 12.9759ZM15.1323 26.4205L10.4874 12.9759L10.285 10.9092H12.0854L17.9448 26.4205H15.1323ZM14.9086 20.6677V22.7877H6.47106V20.6677H14.9086Z" fill="black"/>
<path d="M21.8013 17.2373V26.4205H19.2338V14.8936H21.6522L21.8013 17.2373ZM21.3858 20.2309L20.5122 20.2203C20.5122 19.4248 20.6117 18.6897 20.8105 18.015C21.0094 17.3403 21.3006 16.7543 21.6841 16.2572C22.0676 15.7529 22.5435 15.3659 23.1117 15.096C23.687 14.819 24.351 14.6805 25.1039 14.6805C25.6294 14.6805 26.1088 14.7586 26.5421 14.9149C26.9824 15.064 27.3624 15.3019 27.682 15.6286C28.0087 15.9553 28.2573 16.3744 28.4277 16.8857C28.6053 17.3971 28.6941 18.015 28.6941 18.7394V26.4205H26.1266V18.9632C26.1266 18.4021 26.0414 17.9617 25.8709 17.6421C25.7076 17.3225 25.4696 17.0953 25.1571 16.9603C24.8517 16.8183 24.486 16.7472 24.0598 16.7472C23.5769 16.7472 23.1649 16.8396 22.824 17.0242C22.4902 17.2089 22.2168 17.461 22.0037 17.7806C21.7907 18.1002 21.6344 18.4695 21.535 18.8886C21.4355 19.3076 21.3858 19.7551 21.3858 20.2309ZM28.5343 19.5491L27.3304 19.8154C27.3304 19.1194 27.4263 18.4624 27.6181 17.8445C27.8169 17.2195 28.1046 16.6727 28.481 16.2039C28.8645 15.7281 29.3368 15.3552 29.8979 15.0853C30.459 14.8154 31.1017 14.6805 31.8262 14.6805C32.4157 14.6805 32.9412 14.7622 33.4029 14.9255C33.8716 15.0818 34.2694 15.3303 34.5961 15.6713C34.9228 16.0122 35.1713 16.4561 35.3418 17.0029C35.5122 17.5427 35.5975 18.1961 35.5975 18.9632V26.4205H33.0194V18.9525C33.0194 18.3701 32.9341 17.9191 32.7637 17.5995C32.6003 17.2799 32.3659 17.0597 32.0605 16.939C31.7551 16.8112 31.3894 16.7472 30.9632 16.7472C30.5655 16.7472 30.214 16.8218 29.9086 16.971C29.6103 17.113 29.3581 17.3154 29.1522 17.5782C28.9462 17.8339 28.7899 18.1286 28.6834 18.4624C28.584 18.7963 28.5343 19.1585 28.5343 19.5491Z" fill="black"/>
<path d="M65.679 17.1847H63.4631C63.3778 16.7112 63.2192 16.2945 62.9872 15.9347C62.7552 15.5748 62.4711 15.2694 62.1349 15.0185C61.7988 14.7675 61.4223 14.5781 61.0057 14.4503C60.5938 14.3224 60.1558 14.2585 59.6918 14.2585C58.8537 14.2585 58.1032 14.4692 57.4403 14.8906C56.7822 15.312 56.2614 15.9299 55.8778 16.7443C55.4991 17.5587 55.3097 18.553 55.3097 19.7273C55.3097 20.911 55.4991 21.91 55.8778 22.7244C56.2614 23.5388 56.7846 24.1544 57.4474 24.571C58.1103 24.9877 58.8561 25.196 59.6847 25.196C60.1439 25.196 60.5795 25.1345 60.9915 25.0114C61.4081 24.8835 61.7846 24.6965 62.1207 24.4503C62.4569 24.2041 62.741 23.9034 62.973 23.5483C63.2098 23.1884 63.3731 22.7765 63.4631 22.3125L65.679 22.3196C65.5606 23.0346 65.331 23.6927 64.9901 24.294C64.6539 24.8906 64.2206 25.4067 63.6903 25.8423C63.1648 26.2732 62.5634 26.607 61.8864 26.8438C61.2093 27.0805 60.4706 27.1989 59.6705 27.1989C58.411 27.1989 57.2888 26.9006 56.304 26.304C55.3191 25.7027 54.5426 24.8433 53.9744 23.7259C53.411 22.6084 53.1293 21.2756 53.1293 19.7273C53.1293 18.1742 53.4134 16.8414 53.9815 15.7287C54.5497 14.6113 55.3262 13.7543 56.3111 13.1577C57.2959 12.5563 58.4157 12.2557 59.6705 12.2557C60.4422 12.2557 61.1619 12.367 61.8295 12.5895C62.5019 12.8073 63.1056 13.1293 63.6406 13.5554C64.1757 13.9768 64.6184 14.4929 64.9688 15.1037C65.3191 15.7098 65.5559 16.4034 65.679 17.1847ZM71.3093 27.2415C70.618 27.2415 69.993 27.1136 69.4343 26.858C68.8756 26.5975 68.4329 26.2211 68.1062 25.7287C67.7842 25.2363 67.6232 24.6326 67.6232 23.9176C67.6232 23.3021 67.7416 22.7955 67.9783 22.3977C68.2151 22 68.5347 21.6851 68.9371 21.4531C69.3396 21.2211 69.7894 21.0459 70.2866 20.9276C70.7837 20.8092 71.2904 20.7192 71.8065 20.6577C72.4599 20.5819 72.9902 20.5204 73.3974 20.473C73.8046 20.4209 74.1005 20.3381 74.2852 20.2244C74.4698 20.1108 74.5621 19.9261 74.5621 19.6705V19.6207C74.5621 19.0005 74.387 18.5199 74.0366 18.179C73.6909 17.8381 73.1748 17.6676 72.4883 17.6676C71.7733 17.6676 71.2099 17.8262 70.7979 18.1435C70.3907 18.456 70.109 18.804 69.9528 19.1875L67.957 18.733C68.1938 18.0701 68.5394 17.535 68.994 17.1278C69.4532 16.7159 69.9812 16.4176 70.5778 16.233C71.1744 16.0436 71.8017 15.9489 72.4599 15.9489C72.8955 15.9489 73.3571 16.0009 73.8448 16.1051C74.3372 16.2045 74.7965 16.3892 75.2227 16.6591C75.6535 16.929 76.0063 17.3149 76.2809 17.8168C76.5555 18.3139 76.6928 18.9602 76.6928 19.7557V27H74.619V25.5085H74.5337C74.3964 25.7831 74.1905 26.053 73.9158 26.3182C73.6412 26.5833 73.2885 26.8035 72.8576 26.9787C72.4267 27.1539 71.9106 27.2415 71.3093 27.2415ZM71.771 25.5369C72.3581 25.5369 72.86 25.4209 73.2766 25.1889C73.698 24.9569 74.0176 24.6539 74.2354 24.2798C74.458 23.901 74.5692 23.4962 74.5692 23.0653V21.6591C74.4935 21.7348 74.3467 21.8059 74.1289 21.8722C73.9158 21.9337 73.672 21.9882 73.3974 22.0355C73.1228 22.0781 72.8552 22.1184 72.5948 22.1562C72.3344 22.1894 72.1166 22.2178 71.9414 22.2415C71.5295 22.2936 71.1531 22.3812 70.8121 22.5043C70.476 22.6274 70.2061 22.8049 70.0025 23.0369C69.8036 23.2642 69.7042 23.5672 69.7042 23.946C69.7042 24.4716 69.8983 24.8693 70.2866 25.1392C70.6748 25.4044 71.1696 25.5369 71.771 25.5369ZM79.5213 27V16.0909H81.5739V17.8239H81.6875C81.8864 17.2367 82.2367 16.7751 82.7386 16.4389C83.2453 16.098 83.8182 15.9276 84.4574 15.9276C84.59 15.9276 84.7462 15.9323 84.9261 15.9418C85.1108 15.9512 85.2552 15.9631 85.3594 15.9773V18.0085C85.2741 17.9848 85.1226 17.9588 84.9048 17.9304C84.687 17.8973 84.4692 17.8807 84.2514 17.8807C83.7495 17.8807 83.3021 17.9872 82.9091 18.2003C82.5208 18.4086 82.2131 18.6998 81.9858 19.0739C81.7585 19.4432 81.6449 19.8646 81.6449 20.3381V27H79.5213ZM91.5082 27.2202C90.4334 27.2202 89.5077 26.9905 88.7312 26.5312C87.9594 26.0672 87.3628 25.4162 86.9414 24.5781C86.5247 23.7353 86.3164 22.7481 86.3164 21.6165C86.3164 20.4991 86.5247 19.5142 86.9414 18.6619C87.3628 17.8097 87.9499 17.1444 88.7028 16.6662C89.4603 16.188 90.3458 15.9489 91.359 15.9489C91.9746 15.9489 92.5711 16.0507 93.1488 16.2543C93.7264 16.4579 94.2449 16.7775 94.7042 17.2131C95.1635 17.6487 95.5257 18.2145 95.7908 18.9105C96.056 19.6018 96.1886 20.4422 96.1886 21.4318V22.1847H87.5167V20.5938H94.1076C94.1076 20.035 93.994 19.5402 93.7667 19.1094C93.5394 18.6738 93.2198 18.3305 92.8079 18.0795C92.4007 17.8286 91.9225 17.7031 91.3732 17.7031C90.7766 17.7031 90.2558 17.8499 89.8107 18.1435C89.3704 18.4323 89.0295 18.8111 88.788 19.2798C88.5513 19.7438 88.4329 20.2481 88.4329 20.7926V22.0355C88.4329 22.7647 88.5607 23.3849 88.8164 23.8963C89.0768 24.4077 89.439 24.7983 89.9031 25.0682C90.3671 25.3333 90.9092 25.4659 91.5295 25.4659C91.9319 25.4659 92.2989 25.4091 92.6303 25.2955C92.9618 25.1771 93.2482 25.0019 93.4897 24.7699C93.7312 24.5379 93.9158 24.2514 94.0437 23.9105L96.0536 24.2727C95.8926 24.8646 95.6038 25.383 95.1871 25.8281C94.7752 26.2685 94.2567 26.6117 93.6317 26.858C93.0115 27.0994 92.3036 27.2202 91.5082 27.2202ZM103.246 27.2202C102.172 27.2202 101.246 26.9905 100.469 26.5312C99.6977 26.0672 99.1011 25.4162 98.6797 24.5781C98.263 23.7353 98.0547 22.7481 98.0547 21.6165C98.0547 20.4991 98.263 19.5142 98.6797 18.6619C99.1011 17.8097 99.6882 17.1444 100.441 16.6662C101.199 16.188 102.084 15.9489 103.097 15.9489C103.713 15.9489 104.309 16.0507 104.887 16.2543C105.465 16.4579 105.983 16.7775 106.442 17.2131C106.902 17.6487 107.264 18.2145 107.529 18.9105C107.794 19.6018 107.927 20.4422 107.927 21.4318V22.1847H99.255V20.5938H105.846C105.846 20.035 105.732 19.5402 105.505 19.1094C105.278 18.6738 104.958 18.3305 104.546 18.0795C104.139 17.8286 103.661 17.7031 103.112 17.7031C102.515 17.7031 101.994 17.8499 101.549 18.1435C101.109 18.4323 100.768 18.8111 100.526 19.2798C100.29 19.7438 100.171 20.2481 100.171 20.7926V22.0355C100.171 22.7647 100.299 23.3849 100.555 23.8963C100.815 24.4077 101.177 24.7983 101.641 25.0682C102.105 25.3333 102.647 25.4659 103.268 25.4659C103.67 25.4659 104.037 25.4091 104.369 25.2955C104.7 25.1771 104.987 25.0019 105.228 24.7699C105.469 24.5379 105.654 24.2514 105.782 23.9105L107.792 24.2727C107.631 24.8646 107.342 25.383 106.925 25.8281C106.513 26.2685 105.995 26.6117 105.37 26.858C104.75 27.0994 104.042 27.2202 103.246 27.2202ZM110.283 27V16.0909H112.336V17.8239H112.449C112.648 17.2367 112.998 16.7751 113.5 16.4389C114.007 16.098 114.58 15.9276 115.219 15.9276C115.352 15.9276 115.508 15.9323 115.688 15.9418C115.873 15.9512 116.017 15.9631 116.121 15.9773V18.0085C116.036 17.9848 115.884 17.9588 115.667 17.9304C115.449 17.8973 115.231 17.8807 115.013 17.8807C114.511 17.8807 114.064 17.9872 113.671 18.2003C113.283 18.4086 112.975 18.6998 112.748 19.0739C112.52 19.4432 112.407 19.8646 112.407 20.3381V27H110.283Z" fill="white"/>
</svg>
