<svg width="550" height="178" viewBox="0 0 550 178" fill="none" xmlns="http://www.w3.org/2000/svg">
<path d="M15.2727 46H3.44318V11.0909H15.5114C18.9773 11.0909 21.9545 11.7898 24.4432 13.1875C26.9432 14.5739 28.8636 16.5682 30.2045 19.1705C31.5455 21.7727 32.2159 24.8864 32.2159 28.5114C32.2159 32.1477 31.5398 35.2727 30.1875 37.8864C28.8466 40.5 26.9091 42.5057 24.375 43.9034C21.8523 45.3011 18.8182 46 15.2727 46ZM9.76705 40.5284H14.9659C17.3977 40.5284 19.4261 40.0852 21.0511 39.1989C22.6761 38.3011 23.8977 36.9659 24.7159 35.1932C25.5341 33.4091 25.9432 31.1818 25.9432 28.5114C25.9432 25.8409 25.5341 23.625 24.7159 21.8636C23.8977 20.0909 22.6875 18.767 21.0852 17.892C19.4943 17.0057 17.517 16.5625 15.1534 16.5625H9.76705V40.5284ZM37.9517 46V19.8182H44.1222V46H37.9517ZM41.054 16.1023C40.0767 16.1023 39.2358 15.7784 38.5312 15.1307C37.8267 14.4716 37.4744 13.6818 37.4744 12.7614C37.4744 11.8295 37.8267 11.0398 38.5312 10.392C39.2358 9.73295 40.0767 9.40341 41.054 9.40341C42.0426 9.40341 42.8835 9.73295 43.5767 10.392C44.2813 11.0398 44.6335 11.8295 44.6335 12.7614C44.6335 13.6818 44.2813 14.4716 43.5767 15.1307C42.8835 15.7784 42.0426 16.1023 41.054 16.1023ZM71.1605 26.7386L65.5355 27.3523C65.3764 26.7841 65.098 26.25 64.7003 25.75C64.3139 25.25 63.7912 24.8466 63.1321 24.5398C62.473 24.233 61.6662 24.0795 60.7116 24.0795C59.4276 24.0795 58.348 24.358 57.473 24.9148C56.6094 25.4716 56.1832 26.1932 56.1946 27.0795C56.1832 27.8409 56.4616 28.4602 57.0298 28.9375C57.6094 29.4148 58.5639 29.8068 59.8935 30.1136L64.3594 31.0682C66.8366 31.6023 68.6776 32.4489 69.8821 33.608C71.098 34.767 71.7116 36.2841 71.723 38.1591C71.7116 39.8068 71.2287 41.2614 70.2741 42.5227C69.331 43.7727 68.0185 44.75 66.3366 45.4545C64.6548 46.1591 62.723 46.5114 60.5412 46.5114C57.3366 46.5114 54.7571 45.8409 52.8026 44.5C50.848 43.1477 49.6832 41.267 49.3082 38.858L55.3253 38.2784C55.598 39.4602 56.1776 40.3523 57.0639 40.9545C57.9503 41.5568 59.1037 41.858 60.5241 41.858C61.9901 41.858 63.1662 41.5568 64.0526 40.9545C64.9503 40.3523 65.3991 39.608 65.3991 38.7216C65.3991 37.9716 65.1094 37.3523 64.5298 36.8636C63.9616 36.375 63.0753 36 61.8707 35.7386L57.4048 34.8011C54.8935 34.2784 53.0355 33.3977 51.831 32.1591C50.6264 30.9091 50.0298 29.3295 50.0412 27.4205C50.0298 25.8068 50.4673 24.4091 51.3537 23.2273C52.2514 22.0341 53.4957 21.1136 55.0866 20.4659C56.6889 19.8068 58.5355 19.4773 60.6264 19.4773C63.6946 19.4773 66.1094 20.1307 67.8707 21.4375C69.6435 22.7443 70.7401 24.5114 71.1605 26.7386ZM88.2315 46.5114C85.6179 46.5114 83.3736 45.9375 81.4986 44.7898C79.6349 43.642 78.1974 42.0568 77.1861 40.0341C76.1861 38 75.6861 35.6591 75.6861 33.0114C75.6861 30.3523 76.1974 28.0057 77.2202 25.9716C78.2429 23.9261 79.6861 22.3352 81.5497 21.1989C83.4247 20.0511 85.6406 19.4773 88.1974 19.4773C90.3224 19.4773 92.2031 19.8693 93.8395 20.6534C95.4872 21.4261 96.7997 22.5227 97.777 23.9432C98.7543 25.3523 99.3111 27 99.4474 28.8864H93.5497C93.3111 27.625 92.7429 26.5739 91.8452 25.733C90.9588 24.8807 89.7713 24.4545 88.2827 24.4545C87.0213 24.4545 85.9134 24.7955 84.9588 25.4773C84.0043 26.1477 83.2599 27.1136 82.7259 28.375C82.2031 29.6364 81.9418 31.1477 81.9418 32.9091C81.9418 34.6932 82.2031 36.2273 82.7259 37.5114C83.2486 38.7841 83.9815 39.767 84.9247 40.4602C85.8793 41.142 86.9986 41.483 88.2827 41.483C89.1918 41.483 90.0043 41.3125 90.7202 40.9716C91.4474 40.6193 92.0554 40.1136 92.544 39.4545C93.0327 38.7955 93.3679 37.9943 93.5497 37.0511H99.4474C99.2997 38.9034 98.7543 40.5455 97.8111 41.9773C96.8679 43.3977 95.5838 44.5114 93.9588 45.3182C92.3338 46.1136 90.4247 46.5114 88.2315 46.5114ZM115.935 46.5114C113.378 46.5114 111.162 45.9489 109.287 44.8239C107.412 43.6989 105.957 42.125 104.923 40.1023C103.901 38.0795 103.389 35.7159 103.389 33.0114C103.389 30.3068 103.901 27.9375 104.923 25.9034C105.957 23.8693 107.412 22.2898 109.287 21.1648C111.162 20.0398 113.378 19.4773 115.935 19.4773C118.491 19.4773 120.707 20.0398 122.582 21.1648C124.457 22.2898 125.906 23.8693 126.929 25.9034C127.963 27.9375 128.48 30.3068 128.48 33.0114C128.48 35.7159 127.963 38.0795 126.929 40.1023C125.906 42.125 124.457 43.6989 122.582 44.8239C120.707 45.9489 118.491 46.5114 115.935 46.5114ZM115.969 41.5682C117.355 41.5682 118.514 41.1875 119.446 40.4261C120.378 39.6534 121.071 38.6193 121.526 37.3239C121.991 36.0284 122.224 34.5852 122.224 32.9943C122.224 31.392 121.991 29.9432 121.526 28.6477C121.071 27.3409 120.378 26.3011 119.446 25.5284C118.514 24.7557 117.355 24.3693 115.969 24.3693C114.548 24.3693 113.366 24.7557 112.423 25.5284C111.491 26.3011 110.793 27.3409 110.327 28.6477C109.872 29.9432 109.645 31.392 109.645 32.9943C109.645 34.5852 109.872 36.0284 110.327 37.3239C110.793 38.6193 111.491 39.6534 112.423 40.4261C113.366 41.1875 114.548 41.5682 115.969 41.5682ZM156.213 19.8182L146.889 46H140.071L130.747 19.8182H137.327L143.344 39.267H143.616L149.651 19.8182H156.213ZM171.183 46.5114C168.558 46.5114 166.291 45.9659 164.382 44.875C162.484 43.7727 161.024 42.2159 160.001 40.2045C158.979 38.1818 158.467 35.8011 158.467 33.0625C158.467 30.3693 158.979 28.0057 160.001 25.9716C161.036 23.9261 162.479 22.3352 164.331 21.1989C166.183 20.0511 168.359 19.4773 170.859 19.4773C172.473 19.4773 173.996 19.7386 175.428 20.2614C176.871 20.7727 178.143 21.5682 179.246 22.6477C180.359 23.7273 181.234 25.1023 181.871 26.7727C182.507 28.4318 182.825 30.4091 182.825 32.7045V34.5966H161.365V30.4375H176.911C176.899 29.2557 176.643 28.2045 176.143 27.2841C175.643 26.3523 174.945 25.6193 174.047 25.0852C173.161 24.5511 172.126 24.2841 170.945 24.2841C169.683 24.2841 168.575 24.5909 167.621 25.2045C166.666 25.8068 165.922 26.6023 165.388 27.5909C164.865 28.5682 164.598 29.642 164.587 30.8125V34.4432C164.587 35.9659 164.865 37.2727 165.422 38.3636C165.979 39.4432 166.757 40.2727 167.757 40.8523C168.757 41.4205 169.928 41.7045 171.268 41.7045C172.166 41.7045 172.979 41.5795 173.706 41.3295C174.433 41.0682 175.064 40.6875 175.598 40.1875C176.132 39.6875 176.536 39.0682 176.808 38.3295L182.57 38.9773C182.206 40.5 181.513 41.8295 180.49 42.9659C179.479 44.0909 178.183 44.9659 176.604 45.5909C175.024 46.2045 173.217 46.5114 171.183 46.5114ZM188.045 46V19.8182H194.028V24.1818H194.301C194.778 22.6705 195.597 21.5057 196.756 20.6875C197.926 19.858 199.261 19.4432 200.761 19.4432C201.102 19.4432 201.483 19.4602 201.903 19.4943C202.335 19.517 202.693 19.5568 202.977 19.6136V25.2898C202.716 25.1989 202.301 25.1193 201.733 25.0511C201.176 24.9716 200.636 24.9318 200.114 24.9318C198.989 24.9318 197.977 25.1761 197.08 25.6648C196.193 26.142 195.494 26.8068 194.983 27.6591C194.472 28.5114 194.216 29.4943 194.216 30.608V46H188.045ZM222.818 55.8182C221.977 55.8182 221.199 55.75 220.483 55.6136C219.778 55.4886 219.216 55.3409 218.795 55.1705L220.227 50.3636C221.125 50.625 221.926 50.75 222.631 50.7386C223.335 50.7273 223.955 50.5057 224.489 50.0739C225.034 49.6534 225.494 48.9489 225.869 47.9602L226.398 46.5455L216.903 19.8182H223.449L229.483 39.5909H229.756L235.807 19.8182H242.369L231.886 49.1705C231.398 50.5568 230.75 51.7443 229.943 52.733C229.136 53.733 228.148 54.4943 226.977 55.017C225.818 55.5511 224.432 55.8182 222.818 55.8182ZM257.169 46.5114C254.612 46.5114 252.396 45.9489 250.521 44.8239C248.646 43.6989 247.192 42.125 246.158 40.1023C245.135 38.0795 244.624 35.7159 244.624 33.0114C244.624 30.3068 245.135 27.9375 246.158 25.9034C247.192 23.8693 248.646 22.2898 250.521 21.1648C252.396 20.0398 254.612 19.4773 257.169 19.4773C259.726 19.4773 261.942 20.0398 263.817 21.1648C265.692 22.2898 267.141 23.8693 268.163 25.9034C269.197 27.9375 269.714 30.3068 269.714 33.0114C269.714 35.7159 269.197 38.0795 268.163 40.1023C267.141 42.125 265.692 43.6989 263.817 44.8239C261.942 45.9489 259.726 46.5114 257.169 46.5114ZM257.203 41.5682C258.589 41.5682 259.749 41.1875 260.68 40.4261C261.612 39.6534 262.305 38.6193 262.76 37.3239C263.226 36.0284 263.459 34.5852 263.459 32.9943C263.459 31.392 263.226 29.9432 262.76 28.6477C262.305 27.3409 261.612 26.3011 260.68 25.5284C259.749 24.7557 258.589 24.3693 257.203 24.3693C255.783 24.3693 254.601 24.7557 253.658 25.5284C252.726 26.3011 252.027 27.3409 251.561 28.6477C251.107 29.9432 250.879 31.392 250.879 32.9943C250.879 34.5852 251.107 36.0284 251.561 37.3239C252.027 38.6193 252.726 39.6534 253.658 40.4261C254.601 41.1875 255.783 41.5682 257.203 41.5682ZM291.639 34.9886V19.8182H297.81V46H291.827V41.3466H291.554C290.963 42.8125 289.991 44.0114 288.639 44.9432C287.298 45.875 285.645 46.3409 283.679 46.3409C281.963 46.3409 280.446 45.9602 279.128 45.1989C277.821 44.4261 276.798 43.3068 276.06 41.8409C275.321 40.3636 274.952 38.5795 274.952 36.4886V19.8182H281.122V35.5341C281.122 37.1932 281.577 38.5114 282.486 39.4886C283.395 40.4659 284.588 40.9545 286.065 40.9545C286.974 40.9545 287.855 40.733 288.707 40.2898C289.56 39.8466 290.259 39.1875 290.804 38.3125C291.361 37.4261 291.639 36.3182 291.639 34.9886ZM304.155 46V19.8182H310.138V24.1818H310.411C310.888 22.6705 311.706 21.5057 312.865 20.6875C314.036 19.858 315.371 19.4432 316.871 19.4432C317.212 19.4432 317.592 19.4602 318.013 19.4943C318.445 19.517 318.803 19.5568 319.087 19.6136V25.2898C318.825 25.1989 318.411 25.1193 317.842 25.0511C317.286 24.9716 316.746 24.9318 316.223 24.9318C315.098 24.9318 314.087 25.1761 313.189 25.6648C312.303 26.142 311.604 26.8068 311.092 27.6591C310.581 28.5114 310.325 29.4943 310.325 30.608V46H304.155ZM335.092 46V19.8182H341.263V46H335.092ZM338.195 16.1023C337.217 16.1023 336.376 15.7784 335.672 15.1307C334.967 14.4716 334.615 13.6818 334.615 12.7614C334.615 11.8295 334.967 11.0398 335.672 10.392C336.376 9.73295 337.217 9.40341 338.195 9.40341C339.183 9.40341 340.024 9.73295 340.717 10.392C341.422 11.0398 341.774 11.8295 341.774 12.7614C341.774 13.6818 341.422 14.4716 340.717 15.1307C340.024 15.7784 339.183 16.1023 338.195 16.1023ZM353.778 30.6591V46H347.608V19.8182H353.506V24.267H353.812C354.415 22.8011 355.375 21.6364 356.693 20.7727C358.023 19.9091 359.665 19.4773 361.619 19.4773C363.426 19.4773 365 19.8636 366.341 20.6364C367.693 21.4091 368.739 22.5284 369.477 23.9943C370.227 25.4602 370.597 27.2386 370.585 29.3295V46H364.415V30.2841C364.415 28.5341 363.96 27.1648 363.051 26.1761C362.153 25.1875 360.909 24.6932 359.318 24.6932C358.239 24.6932 357.278 24.9318 356.438 25.4091C355.608 25.875 354.955 26.5511 354.477 27.4375C354.011 28.3239 353.778 29.3977 353.778 30.6591ZM383.028 30.6591V46H376.858V19.8182H382.756V24.267H383.062C383.665 22.8011 384.625 21.6364 385.943 20.7727C387.273 19.9091 388.915 19.4773 390.869 19.4773C392.676 19.4773 394.25 19.8636 395.591 20.6364C396.943 21.4091 397.989 22.5284 398.727 23.9943C399.477 25.4602 399.847 27.2386 399.835 29.3295V46H393.665V30.2841C393.665 28.5341 393.21 27.1648 392.301 26.1761C391.403 25.1875 390.159 24.6932 388.568 24.6932C387.489 24.6932 386.528 24.9318 385.688 25.4091C384.858 25.875 384.205 26.5511 383.727 27.4375C383.261 28.3239 383.028 29.3977 383.028 30.6591ZM417.699 46.5114C415.074 46.5114 412.807 45.9659 410.898 44.875C409 43.7727 407.54 42.2159 406.517 40.2045C405.494 38.1818 404.983 35.8011 404.983 33.0625C404.983 30.3693 405.494 28.0057 406.517 25.9716C407.551 23.9261 408.994 22.3352 410.847 21.1989C412.699 20.0511 414.875 19.4773 417.375 19.4773C418.989 19.4773 420.511 19.7386 421.943 20.2614C423.386 20.7727 424.659 21.5682 425.761 22.6477C426.875 23.7273 427.75 25.1023 428.386 26.7727C429.023 28.4318 429.341 30.4091 429.341 32.7045V34.5966H407.881V30.4375H423.426C423.415 29.2557 423.159 28.2045 422.659 27.2841C422.159 26.3523 421.46 25.6193 420.562 25.0852C419.676 24.5511 418.642 24.2841 417.46 24.2841C416.199 24.2841 415.091 24.5909 414.136 25.2045C413.182 25.8068 412.438 26.6023 411.903 27.5909C411.381 28.5682 411.114 29.642 411.102 30.8125V34.4432C411.102 35.9659 411.381 37.2727 411.938 38.3636C412.494 39.4432 413.273 40.2727 414.273 40.8523C415.273 41.4205 416.443 41.7045 417.784 41.7045C418.682 41.7045 419.494 41.5795 420.222 41.3295C420.949 41.0682 421.58 40.6875 422.114 40.1875C422.648 39.6875 423.051 39.0682 423.324 38.3295L429.085 38.9773C428.722 40.5 428.028 41.8295 427.006 42.9659C425.994 44.0909 424.699 44.9659 423.119 45.5909C421.54 46.2045 419.733 46.5114 417.699 46.5114ZM434.561 46V19.8182H440.544V24.1818H440.817C441.294 22.6705 442.112 21.5057 443.271 20.6875C444.442 19.858 445.777 19.4432 447.277 19.4432C447.618 19.4432 447.999 19.4602 448.419 19.4943C448.851 19.517 449.209 19.5568 449.493 19.6136V25.2898C449.232 25.1989 448.817 25.1193 448.249 25.0511C447.692 24.9716 447.152 24.9318 446.629 24.9318C445.504 24.9318 444.493 25.1761 443.595 25.6648C442.709 26.142 442.01 26.8068 441.499 27.6591C440.987 28.5114 440.732 29.4943 440.732 30.608V46H434.561ZM3.17045 113.818V77.8182H9.23864V82.1477H9.59659C9.91477 81.5114 10.3636 80.8352 10.9432 80.1193C11.5227 79.392 12.3068 78.7727 13.2955 78.2614C14.2841 77.7386 15.5455 77.4773 17.0795 77.4773C19.1023 77.4773 20.9261 77.9943 22.5511 79.0284C24.1875 80.0511 25.483 81.5682 26.4375 83.5795C27.4034 85.5795 27.8864 88.0341 27.8864 90.9432C27.8864 93.8182 27.4148 96.2614 26.4716 98.2727C25.5284 100.284 24.2443 101.818 22.6193 102.875C20.9943 103.932 19.1534 104.46 17.0966 104.46C15.5966 104.46 14.3523 104.21 13.3636 103.71C12.375 103.21 11.5795 102.608 10.9773 101.903C10.3864 101.187 9.92614 100.511 9.59659 99.875H9.34091V113.818H3.17045ZM9.22159 90.9091C9.22159 92.6023 9.46023 94.0852 9.9375 95.358C10.4261 96.6307 11.125 97.625 12.0341 98.3409C12.9545 99.0455 14.0682 99.3977 15.375 99.3977C16.7386 99.3977 17.8807 99.0341 18.8011 98.3068C19.7216 97.5682 20.4148 96.5625 20.8807 95.2898C21.358 94.0057 21.5966 92.5455 21.5966 90.9091C21.5966 89.2841 21.3636 87.8409 20.8977 86.5795C20.4318 85.3182 19.7386 84.3295 18.8182 83.6136C17.8977 82.8977 16.75 82.5398 15.375 82.5398C14.0568 82.5398 12.9375 82.8864 12.017 83.5795C11.0966 84.2727 10.3977 85.2443 9.92045 86.4943C9.45455 87.7443 9.22159 89.2159 9.22159 90.9091ZM44.5909 104.511C42.0341 104.511 39.8182 103.949 37.9432 102.824C36.0682 101.699 34.6136 100.125 33.5795 98.1023C32.5568 96.0795 32.0455 93.7159 32.0455 91.0114C32.0455 88.3068 32.5568 85.9375 33.5795 83.9034C34.6136 81.8693 36.0682 80.2898 37.9432 79.1648C39.8182 78.0398 42.0341 77.4773 44.5909 77.4773C47.1477 77.4773 49.3636 78.0398 51.2386 79.1648C53.1136 80.2898 54.5625 81.8693 55.5852 83.9034C56.6193 85.9375 57.1364 88.3068 57.1364 91.0114C57.1364 93.7159 56.6193 96.0795 55.5852 98.1023C54.5625 100.125 53.1136 101.699 51.2386 102.824C49.3636 103.949 47.1477 104.511 44.5909 104.511ZM44.625 99.5682C46.0114 99.5682 47.1705 99.1875 48.1023 98.4261C49.0341 97.6534 49.7273 96.6193 50.1818 95.3239C50.6477 94.0284 50.8807 92.5852 50.8807 90.9943C50.8807 89.392 50.6477 87.9432 50.1818 86.6477C49.7273 85.3409 49.0341 84.3011 48.1023 83.5284C47.1705 82.7557 46.0114 82.3693 44.625 82.3693C43.2045 82.3693 42.0227 82.7557 41.0795 83.5284C40.1477 84.3011 39.4489 85.3409 38.983 86.6477C38.5284 87.9432 38.3011 89.392 38.3011 90.9943C38.3011 92.5852 38.5284 94.0284 38.983 95.3239C39.4489 96.6193 40.1477 97.6534 41.0795 98.4261C42.0227 99.1875 43.2045 99.5682 44.625 99.5682ZM75.4474 77.8182V82.5909H60.3963V77.8182H75.4474ZM64.1122 71.5455H70.2827V96.125C70.2827 96.9545 70.4077 97.5909 70.6577 98.0341C70.919 98.4659 71.2599 98.7614 71.6804 98.9205C72.1009 99.0795 72.5668 99.1591 73.0781 99.1591C73.4645 99.1591 73.8168 99.1307 74.1349 99.0739C74.4645 99.017 74.7145 98.9659 74.8849 98.9205L75.9247 103.744C75.5952 103.858 75.1236 103.983 74.5099 104.119C73.9077 104.256 73.169 104.335 72.294 104.358C70.7486 104.403 69.3565 104.17 68.1179 103.659C66.8793 103.136 65.8963 102.33 65.169 101.239C64.4531 100.148 64.1009 98.7841 64.1122 97.1477V71.5455ZM91.9176 104.511C89.2926 104.511 87.0256 103.966 85.1165 102.875C83.2188 101.773 81.7585 100.216 80.7358 98.2045C79.7131 96.1818 79.2017 93.8011 79.2017 91.0625C79.2017 88.3693 79.7131 86.0057 80.7358 83.9716C81.7699 81.9261 83.2131 80.3352 85.0653 79.1989C86.9176 78.0511 89.0938 77.4773 91.5938 77.4773C93.2074 77.4773 94.7301 77.7386 96.1619 78.2614C97.6051 78.7727 98.8778 79.5682 99.9801 80.6477C101.094 81.7273 101.969 83.1023 102.605 84.7727C103.241 86.4318 103.56 88.4091 103.56 90.7045V92.5966H82.0994V88.4375H97.6449C97.6335 87.2557 97.3778 86.2045 96.8778 85.2841C96.3778 84.3523 95.679 83.6193 94.7812 83.0852C93.8949 82.5511 92.8608 82.2841 91.679 82.2841C90.4176 82.2841 89.3097 82.5909 88.3551 83.2045C87.4006 83.8068 86.6563 84.6023 86.1222 85.5909C85.5994 86.5682 85.3324 87.642 85.321 88.8125V92.4432C85.321 93.9659 85.5994 95.2727 86.1562 96.3636C86.7131 97.4432 87.4915 98.2727 88.4915 98.8523C89.4915 99.4205 90.6619 99.7045 92.0028 99.7045C92.9006 99.7045 93.7131 99.5795 94.4403 99.3295C95.1676 99.0682 95.7983 98.6875 96.3324 98.1875C96.8665 97.6875 97.2699 97.0682 97.5426 96.3295L103.304 96.9773C102.94 98.5 102.247 99.8295 101.224 100.966C100.213 102.091 98.9176 102.966 97.3381 103.591C95.7585 104.205 93.9517 104.511 91.9176 104.511ZM114.95 88.6591V104H108.78V77.8182H114.678V82.267H114.984C115.587 80.8011 116.547 79.6364 117.865 78.7727C119.195 77.9091 120.837 77.4773 122.791 77.4773C124.598 77.4773 126.172 77.8636 127.513 78.6364C128.865 79.4091 129.911 80.5284 130.649 81.9943C131.399 83.4602 131.768 85.2386 131.757 87.3295V104H125.587V88.2841C125.587 86.5341 125.132 85.1648 124.223 84.1761C123.325 83.1875 122.081 82.6932 120.49 82.6932C119.411 82.6932 118.45 82.9318 117.609 83.4091C116.78 83.875 116.126 84.5511 115.649 85.4375C115.183 86.3239 114.95 87.3977 114.95 88.6591ZM151.104 77.8182V82.5909H136.053V77.8182H151.104ZM139.768 71.5455H145.939V96.125C145.939 96.9545 146.064 97.5909 146.314 98.0341C146.575 98.4659 146.916 98.7614 147.337 98.9205C147.757 99.0795 148.223 99.1591 148.734 99.1591C149.121 99.1591 149.473 99.1307 149.791 99.0739C150.121 99.017 150.371 98.9659 150.541 98.9205L151.581 103.744C151.251 103.858 150.78 103.983 150.166 104.119C149.564 104.256 148.825 104.335 147.95 104.358C146.405 104.403 145.013 104.17 143.774 103.659C142.536 103.136 141.553 102.33 140.825 101.239C140.109 100.148 139.757 98.7841 139.768 97.1477V71.5455ZM156.264 104V77.8182H162.435V104H156.264ZM159.366 74.1023C158.389 74.1023 157.548 73.7784 156.844 73.1307C156.139 72.4716 155.787 71.6818 155.787 70.7614C155.787 69.8295 156.139 69.0398 156.844 68.392C157.548 67.733 158.389 67.4034 159.366 67.4034C160.355 67.4034 161.196 67.733 161.889 68.392C162.594 69.0398 162.946 69.8295 162.946 70.7614C162.946 71.6818 162.594 72.4716 161.889 73.1307C161.196 73.7784 160.355 74.1023 159.366 74.1023ZM176.314 104.528C174.655 104.528 173.161 104.233 171.831 103.642C170.513 103.04 169.467 102.153 168.695 100.983C167.933 99.8125 167.553 98.3693 167.553 96.6534C167.553 95.1761 167.825 93.9545 168.371 92.9886C168.916 92.0227 169.661 91.25 170.604 90.6705C171.547 90.0909 172.609 89.6534 173.791 89.358C174.984 89.0511 176.217 88.8295 177.49 88.6932C179.024 88.5341 180.268 88.392 181.223 88.267C182.178 88.1307 182.871 87.9261 183.303 87.6534C183.746 87.3693 183.967 86.9318 183.967 86.3409V86.2386C183.967 84.9545 183.587 83.9602 182.825 83.2557C182.064 82.5511 180.967 82.1989 179.536 82.1989C178.024 82.1989 176.825 82.5284 175.939 83.1875C175.064 83.8466 174.473 84.625 174.166 85.5227L168.405 84.7045C168.859 83.1136 169.609 81.7841 170.655 80.7159C171.7 79.6364 172.979 78.8295 174.49 78.2955C176.001 77.75 177.672 77.4773 179.501 77.4773C180.763 77.4773 182.018 77.625 183.268 77.9205C184.518 78.2159 185.661 78.7045 186.695 79.3864C187.729 80.0568 188.558 80.9716 189.183 82.1307C189.82 83.2898 190.138 84.7386 190.138 86.4773V104H184.206V100.403H184.001C183.626 101.131 183.098 101.812 182.416 102.449C181.746 103.074 180.899 103.58 179.876 103.966C178.865 104.341 177.678 104.528 176.314 104.528ZM177.916 99.9943C179.155 99.9943 180.229 99.75 181.138 99.2614C182.047 98.7614 182.746 98.1023 183.234 97.2841C183.734 96.4659 183.984 95.5739 183.984 94.608V91.5227C183.791 91.6818 183.462 91.8295 182.996 91.9659C182.541 92.1023 182.03 92.2216 181.462 92.3239C180.893 92.4261 180.331 92.517 179.774 92.5966C179.217 92.6761 178.734 92.7443 178.325 92.8011C177.405 92.9261 176.581 93.1307 175.854 93.4148C175.126 93.6989 174.553 94.0966 174.132 94.608C173.712 95.108 173.501 95.7557 173.501 96.5511C173.501 97.6875 173.916 98.5455 174.746 99.125C175.575 99.7045 176.632 99.9943 177.916 99.9943ZM202.513 69.0909V104H196.342V69.0909H202.513ZM226.168 104L218.77 77.8182H225.06L229.662 96.2273H229.901L234.605 77.8182H240.827L245.531 96.125H245.787L250.321 77.8182H256.628L249.213 104H242.787L237.878 86.3068H237.52L232.611 104H226.168ZM260.936 104V77.8182H267.107V104H260.936ZM264.038 74.1023C263.061 74.1023 262.22 73.7784 261.516 73.1307C260.811 72.4716 260.459 71.6818 260.459 70.7614C260.459 69.8295 260.811 69.0398 261.516 68.392C262.22 67.733 263.061 67.4034 264.038 67.4034C265.027 67.4034 265.868 67.733 266.561 68.392C267.266 69.0398 267.618 69.8295 267.618 70.7614C267.618 71.6818 267.266 72.4716 266.561 73.1307C265.868 73.7784 265.027 74.1023 264.038 74.1023ZM286.526 77.8182V82.5909H271.474V77.8182H286.526ZM275.19 71.5455H281.361V96.125C281.361 96.9545 281.486 97.5909 281.736 98.0341C281.997 98.4659 282.338 98.7614 282.759 98.9205C283.179 99.0795 283.645 99.1591 284.156 99.1591C284.543 99.1591 284.895 99.1307 285.213 99.0739C285.543 99.017 285.793 98.9659 285.963 98.9205L287.003 103.744C286.673 103.858 286.202 103.983 285.588 104.119C284.986 104.256 284.247 104.335 283.372 104.358C281.827 104.403 280.435 104.17 279.196 103.659C277.957 103.136 276.974 102.33 276.247 101.239C275.531 100.148 275.179 98.7841 275.19 97.1477V71.5455ZM298.419 88.6591V104H292.249V69.0909H298.283V82.267H298.589C299.203 80.7898 300.152 79.625 301.436 78.7727C302.732 77.9091 304.379 77.4773 306.379 77.4773C308.197 77.4773 309.783 77.858 311.135 78.6193C312.487 79.3807 313.533 80.4943 314.271 81.9602C315.021 83.4261 315.396 85.2159 315.396 87.3295V104H309.226V88.2841C309.226 86.5227 308.771 85.1534 307.862 84.1761C306.964 83.1875 305.703 82.6932 304.078 82.6932C302.987 82.6932 302.01 82.9318 301.146 83.4091C300.294 83.875 299.624 84.5511 299.135 85.4375C298.658 86.3239 298.419 87.3977 298.419 88.6591ZM350.28 92.9886V77.8182H356.45V104H350.467V99.3466H350.195C349.604 100.812 348.632 102.011 347.28 102.943C345.939 103.875 344.286 104.341 342.32 104.341C340.604 104.341 339.087 103.96 337.768 103.199C336.462 102.426 335.439 101.307 334.7 99.8409C333.962 98.3636 333.592 96.5795 333.592 94.4886V77.8182H339.763V93.5341C339.763 95.1932 340.217 96.5114 341.126 97.4886C342.036 98.4659 343.229 98.9545 344.706 98.9545C345.615 98.9545 346.496 98.733 347.348 98.2898C348.2 97.8466 348.899 97.1875 349.445 96.3125C350.001 95.4261 350.28 94.3182 350.28 92.9886ZM383.489 84.7386L377.864 85.3523C377.705 84.7841 377.426 84.25 377.028 83.75C376.642 83.25 376.119 82.8466 375.46 82.5398C374.801 82.233 373.994 82.0795 373.04 82.0795C371.756 82.0795 370.676 82.358 369.801 82.9148C368.938 83.4716 368.511 84.1932 368.523 85.0795C368.511 85.8409 368.79 86.4602 369.358 86.9375C369.938 87.4148 370.892 87.8068 372.222 88.1136L376.688 89.0682C379.165 89.6023 381.006 90.4489 382.21 91.608C383.426 92.767 384.04 94.2841 384.051 96.1591C384.04 97.8068 383.557 99.2614 382.602 100.523C381.659 101.773 380.347 102.75 378.665 103.455C376.983 104.159 375.051 104.511 372.869 104.511C369.665 104.511 367.085 103.841 365.131 102.5C363.176 101.148 362.011 99.267 361.636 96.858L367.653 96.2784C367.926 97.4602 368.506 98.3523 369.392 98.9545C370.278 99.5568 371.432 99.858 372.852 99.858C374.318 99.858 375.494 99.5568 376.381 98.9545C377.278 98.3523 377.727 97.608 377.727 96.7216C377.727 95.9716 377.438 95.3523 376.858 94.8636C376.29 94.375 375.403 94 374.199 93.7386L369.733 92.8011C367.222 92.2784 365.364 91.3977 364.159 90.1591C362.955 88.9091 362.358 87.3295 362.369 85.4205C362.358 83.8068 362.795 82.4091 363.682 81.2273C364.58 80.0341 365.824 79.1136 367.415 78.4659C369.017 77.8068 370.864 77.4773 372.955 77.4773C376.023 77.4773 378.438 78.1307 380.199 79.4375C381.972 80.7443 383.068 82.5114 383.489 84.7386Z" fill="white"/>
<path d="M3.20455 155L0.545455 146.273H1.95455L3.84091 152.955H3.93182L5.79545 146.273H7.22727L9.06818 152.932H9.15909L11.0455 146.273H12.4545L9.79545 155H8.47727L6.56818 148.295H6.43182L4.52273 155H3.20455ZM17.5895 155.182C16.7486 155.182 16.0232 154.996 15.4134 154.625C14.8073 154.25 14.3395 153.727 14.0099 153.057C13.6842 152.383 13.5213 151.598 13.5213 150.705C13.5213 149.811 13.6842 149.023 14.0099 148.341C14.3395 147.655 14.7978 147.121 15.3849 146.739C15.9759 146.352 16.6652 146.159 17.4531 146.159C17.9077 146.159 18.3565 146.235 18.7997 146.386C19.2429 146.538 19.6463 146.784 20.0099 147.125C20.3736 147.462 20.6634 147.909 20.8793 148.466C21.0952 149.023 21.2031 149.708 21.2031 150.523V151.091H14.4759V149.932H19.8395C19.8395 149.439 19.741 149 19.544 148.614C19.3509 148.227 19.0743 147.922 18.7145 147.699C18.3584 147.475 17.938 147.364 17.4531 147.364C16.919 147.364 16.4569 147.496 16.0668 147.761C15.6804 148.023 15.383 148.364 15.1747 148.784C14.9664 149.205 14.8622 149.655 14.8622 150.136V150.909C14.8622 151.568 14.9759 152.127 15.2031 152.585C15.4342 153.04 15.7543 153.386 16.1634 153.625C16.5724 153.86 17.0478 153.977 17.5895 153.977C17.9418 153.977 18.2599 153.928 18.544 153.83C18.8319 153.727 19.08 153.576 19.2884 153.375C19.4967 153.17 19.6577 152.917 19.7713 152.614L21.0668 152.977C20.9304 153.417 20.7012 153.803 20.3793 154.136C20.0573 154.466 19.6596 154.723 19.1861 154.909C18.7126 155.091 18.1804 155.182 17.5895 155.182ZM30.3111 155.205C29.758 155.205 29.2562 155.1 28.8054 154.892C28.3546 154.68 27.9967 154.375 27.7315 153.977C27.4664 153.576 27.3338 153.091 27.3338 152.523C27.3338 152.023 27.4323 151.617 27.6293 151.307C27.8262 150.992 28.0895 150.746 28.419 150.568C28.7486 150.39 29.1122 150.258 29.5099 150.17C29.9115 150.08 30.3149 150.008 30.7202 149.955C31.2505 149.886 31.6804 149.835 32.0099 149.801C32.3433 149.763 32.5857 149.701 32.7372 149.614C32.8925 149.527 32.9702 149.375 32.9702 149.159V149.114C32.9702 148.553 32.8168 148.117 32.5099 147.807C32.2069 147.496 31.7467 147.341 31.1293 147.341C30.4891 147.341 29.9872 147.481 29.6236 147.761C29.2599 148.042 29.0043 148.341 28.8565 148.659L27.5838 148.205C27.8111 147.674 28.1141 147.261 28.4929 146.966C28.8755 146.667 29.2921 146.458 29.7429 146.341C30.1974 146.22 30.6444 146.159 31.0838 146.159C31.3641 146.159 31.6861 146.193 32.0497 146.261C32.4171 146.326 32.7713 146.46 33.1122 146.665C33.4569 146.869 33.7429 147.178 33.9702 147.591C34.1974 148.004 34.3111 148.557 34.3111 149.25V155H32.9702V153.818H32.902C32.8111 154.008 32.6596 154.21 32.4474 154.426C32.2353 154.642 31.9531 154.826 31.6009 154.977C31.2486 155.129 30.8187 155.205 30.3111 155.205ZM30.5156 154C31.0459 154 31.4929 153.896 31.8565 153.688C32.224 153.479 32.5005 153.21 32.6861 152.881C32.8755 152.551 32.9702 152.205 32.9702 151.841V150.614C32.9134 150.682 32.7884 150.744 32.5952 150.801C32.4058 150.854 32.1861 150.902 31.9361 150.943C31.6899 150.981 31.4493 151.015 31.2145 151.045C30.9834 151.072 30.7959 151.095 30.652 151.114C30.3035 151.159 29.9777 151.233 29.6747 151.335C29.3755 151.434 29.133 151.583 28.9474 151.784C28.7656 151.981 28.6747 152.25 28.6747 152.591C28.6747 153.057 28.8471 153.409 29.1918 153.648C29.5402 153.883 29.9815 154 30.5156 154ZM36.7585 155V146.273H38.054V147.591H38.1449C38.304 147.159 38.5919 146.809 39.0085 146.54C39.4252 146.271 39.8949 146.136 40.4176 146.136C40.5161 146.136 40.6392 146.138 40.7869 146.142C40.9347 146.146 41.0464 146.152 41.1222 146.159V147.523C41.0767 147.511 40.9725 147.494 40.8097 147.472C40.6506 147.445 40.482 147.432 40.304 147.432C39.8797 147.432 39.5009 147.521 39.1676 147.699C38.8381 147.873 38.5767 148.116 38.3835 148.426C38.1941 148.733 38.0994 149.083 38.0994 149.477V155H36.7585ZM46.1051 155.182C45.2642 155.182 44.5388 154.996 43.929 154.625C43.3229 154.25 42.8551 153.727 42.5256 153.057C42.1998 152.383 42.0369 151.598 42.0369 150.705C42.0369 149.811 42.1998 149.023 42.5256 148.341C42.8551 147.655 43.3134 147.121 43.9006 146.739C44.4915 146.352 45.1809 146.159 45.9688 146.159C46.4233 146.159 46.8722 146.235 47.3153 146.386C47.7585 146.538 48.1619 146.784 48.5256 147.125C48.8892 147.462 49.179 147.909 49.3949 148.466C49.6108 149.023 49.7188 149.708 49.7188 150.523V151.091H42.9915V149.932H48.3551C48.3551 149.439 48.2566 149 48.0597 148.614C47.8665 148.227 47.59 147.922 47.2301 147.699C46.8741 147.475 46.4536 147.364 45.9688 147.364C45.4347 147.364 44.9725 147.496 44.5824 147.761C44.196 148.023 43.8987 148.364 43.6903 148.784C43.482 149.205 43.3778 149.655 43.3778 150.136V150.909C43.3778 151.568 43.4915 152.127 43.7188 152.585C43.9498 153.04 44.2699 153.386 44.679 153.625C45.0881 153.86 45.5634 153.977 46.1051 153.977C46.4574 153.977 46.7756 153.928 47.0597 153.83C47.3475 153.727 47.5956 153.576 47.804 153.375C48.0123 153.17 48.1733 152.917 48.2869 152.614L49.5824 152.977C49.446 153.417 49.2169 153.803 48.8949 154.136C48.5729 154.466 48.1752 154.723 47.7017 154.909C47.2282 155.091 46.696 155.182 46.1051 155.182ZM56.2585 155V146.273H57.5994V155H56.2585ZM56.9403 144.818C56.679 144.818 56.4536 144.729 56.2642 144.551C56.0786 144.373 55.9858 144.159 55.9858 143.909C55.9858 143.659 56.0786 143.445 56.2642 143.267C56.4536 143.089 56.679 143 56.9403 143C57.2017 143 57.4252 143.089 57.6108 143.267C57.8002 143.445 57.8949 143.659 57.8949 143.909C57.8949 144.159 57.8002 144.373 57.6108 144.551C57.4252 144.729 57.2017 144.818 56.9403 144.818ZM61.3963 149.75V155H60.0554V146.273H61.3509V147.636H61.4645C61.669 147.193 61.9796 146.837 62.3963 146.568C62.813 146.295 63.3509 146.159 64.0099 146.159C64.6009 146.159 65.1179 146.28 65.5611 146.523C66.0043 146.761 66.349 147.125 66.5952 147.614C66.8414 148.098 66.9645 148.712 66.9645 149.455V155H65.6236V149.545C65.6236 148.86 65.4455 148.326 65.0895 147.943C64.7334 147.557 64.2448 147.364 63.6236 147.364C63.1955 147.364 62.813 147.456 62.4759 147.642C62.1425 147.828 61.8793 148.098 61.6861 148.455C61.4929 148.811 61.3963 149.242 61.3963 149.75ZM76.483 155.205C75.9299 155.205 75.428 155.1 74.9773 154.892C74.5265 154.68 74.1686 154.375 73.9034 153.977C73.6383 153.576 73.5057 153.091 73.5057 152.523C73.5057 152.023 73.6042 151.617 73.8011 151.307C73.9981 150.992 74.2614 150.746 74.5909 150.568C74.9205 150.39 75.2841 150.258 75.6818 150.17C76.0833 150.08 76.4867 150.008 76.892 149.955C77.4223 149.886 77.8523 149.835 78.1818 149.801C78.5152 149.763 78.7576 149.701 78.9091 149.614C79.0644 149.527 79.142 149.375 79.142 149.159V149.114C79.142 148.553 78.9886 148.117 78.6818 147.807C78.3788 147.496 77.9186 147.341 77.3011 147.341C76.661 147.341 76.1591 147.481 75.7955 147.761C75.4318 148.042 75.1761 148.341 75.0284 148.659L73.7557 148.205C73.983 147.674 74.286 147.261 74.6648 146.966C75.0473 146.667 75.464 146.458 75.9148 146.341C76.3693 146.22 76.8163 146.159 77.2557 146.159C77.536 146.159 77.858 146.193 78.2216 146.261C78.589 146.326 78.9432 146.46 79.2841 146.665C79.6288 146.869 79.9148 147.178 80.142 147.591C80.3693 148.004 80.483 148.557 80.483 149.25V155H79.142V153.818H79.0739C78.983 154.008 78.8314 154.21 78.6193 154.426C78.4072 154.642 78.125 154.826 77.7727 154.977C77.4205 155.129 76.9905 155.205 76.483 155.205ZM76.6875 154C77.2178 154 77.6648 153.896 78.0284 153.688C78.3958 153.479 78.6723 153.21 78.858 152.881C79.0473 152.551 79.142 152.205 79.142 151.841V150.614C79.0852 150.682 78.9602 150.744 78.767 150.801C78.5777 150.854 78.358 150.902 78.108 150.943C77.8617 150.981 77.6212 151.015 77.3864 151.045C77.1553 151.072 76.9678 151.095 76.8239 151.114C76.4754 151.159 76.1496 151.233 75.8466 151.335C75.5473 151.434 75.3049 151.583 75.1193 151.784C74.9375 151.981 74.8466 152.25 74.8466 152.591C74.8466 153.057 75.0189 153.409 75.3636 153.648C75.7121 153.883 76.1534 154 76.6875 154ZM87.4304 155V146.273H88.7259V147.636H88.8395C89.0213 147.17 89.3149 146.809 89.7202 146.551C90.1255 146.29 90.6122 146.159 91.1804 146.159C91.7562 146.159 92.2353 146.29 92.6179 146.551C93.0043 146.809 93.3054 147.17 93.5213 147.636H93.6122C93.8357 147.186 94.1709 146.828 94.6179 146.562C95.0649 146.294 95.6009 146.159 96.2259 146.159C97.0062 146.159 97.6444 146.403 98.1406 146.892C98.6368 147.377 98.8849 148.133 98.8849 149.159V155H97.544V149.159C97.544 148.515 97.3679 148.055 97.0156 147.778C96.6634 147.502 96.2486 147.364 95.7713 147.364C95.1577 147.364 94.6823 147.549 94.3452 147.92C94.008 148.288 93.8395 148.754 93.8395 149.318V155H92.4759V149.023C92.4759 148.527 92.3149 148.127 91.9929 147.824C91.6709 147.517 91.2562 147.364 90.7486 147.364C90.4001 147.364 90.0743 147.456 89.7713 147.642C89.4721 147.828 89.2296 148.085 89.044 148.415C88.8622 148.741 88.7713 149.117 88.7713 149.545V155H87.4304ZM101.337 155V146.273H102.678V155H101.337ZM102.018 144.818C101.757 144.818 101.532 144.729 101.342 144.551C101.157 144.373 101.064 144.159 101.064 143.909C101.064 143.659 101.157 143.445 101.342 143.267C101.532 143.089 101.757 143 102.018 143C102.28 143 102.503 143.089 102.689 143.267C102.878 143.445 102.973 143.659 102.973 143.909C102.973 144.159 102.878 144.373 102.689 144.551C102.503 144.729 102.28 144.818 102.018 144.818ZM111.315 148.227L110.111 148.568C110.035 148.367 109.923 148.172 109.776 147.983C109.632 147.79 109.435 147.631 109.185 147.506C108.935 147.381 108.615 147.318 108.224 147.318C107.69 147.318 107.245 147.441 106.889 147.688C106.537 147.93 106.361 148.239 106.361 148.614C106.361 148.947 106.482 149.21 106.724 149.403C106.967 149.597 107.346 149.758 107.861 149.886L109.156 150.205C109.937 150.394 110.518 150.684 110.901 151.074C111.283 151.46 111.474 151.958 111.474 152.568C111.474 153.068 111.33 153.515 111.043 153.909C110.759 154.303 110.361 154.614 109.849 154.841C109.338 155.068 108.743 155.182 108.065 155.182C107.175 155.182 106.438 154.989 105.855 154.602C105.272 154.216 104.902 153.652 104.747 152.909L106.02 152.591C106.141 153.061 106.37 153.413 106.707 153.648C107.048 153.883 107.493 154 108.043 154C108.668 154 109.164 153.867 109.531 153.602C109.902 153.333 110.088 153.011 110.088 152.636C110.088 152.333 109.982 152.08 109.77 151.875C109.558 151.667 109.232 151.511 108.793 151.409L107.338 151.068C106.539 150.879 105.952 150.585 105.577 150.188C105.205 149.786 105.02 149.284 105.02 148.682C105.02 148.189 105.158 147.754 105.435 147.375C105.715 146.996 106.096 146.699 106.577 146.483C107.062 146.267 107.611 146.159 108.224 146.159C109.088 146.159 109.766 146.348 110.259 146.727C110.755 147.106 111.107 147.606 111.315 148.227ZM119.675 148.227L118.47 148.568C118.394 148.367 118.283 148.172 118.135 147.983C117.991 147.79 117.794 147.631 117.544 147.506C117.294 147.381 116.974 147.318 116.584 147.318C116.05 147.318 115.605 147.441 115.249 147.688C114.896 147.93 114.72 148.239 114.72 148.614C114.72 148.947 114.841 149.21 115.084 149.403C115.326 149.597 115.705 149.758 116.22 149.886L117.516 150.205C118.296 150.394 118.877 150.684 119.26 151.074C119.643 151.46 119.834 151.958 119.834 152.568C119.834 153.068 119.69 153.515 119.402 153.909C119.118 154.303 118.72 154.614 118.209 154.841C117.697 155.068 117.103 155.182 116.425 155.182C115.535 155.182 114.798 154.989 114.214 154.602C113.631 154.216 113.262 153.652 113.107 152.909L114.379 152.591C114.5 153.061 114.73 153.413 115.067 153.648C115.408 153.883 115.853 154 116.402 154C117.027 154 117.523 153.867 117.891 153.602C118.262 153.333 118.447 153.011 118.447 152.636C118.447 152.333 118.341 152.08 118.129 151.875C117.917 151.667 117.591 151.511 117.152 151.409L115.697 151.068C114.898 150.879 114.311 150.585 113.936 150.188C113.565 149.786 113.379 149.284 113.379 148.682C113.379 148.189 113.518 147.754 113.794 147.375C114.074 146.996 114.455 146.699 114.936 146.483C115.421 146.267 115.97 146.159 116.584 146.159C117.447 146.159 118.125 146.348 118.618 146.727C119.114 147.106 119.466 147.606 119.675 148.227ZM121.852 155V146.273H123.193V155H121.852ZM122.534 144.818C122.273 144.818 122.047 144.729 121.858 144.551C121.672 144.373 121.58 144.159 121.58 143.909C121.58 143.659 121.672 143.445 121.858 143.267C122.047 143.089 122.273 143 122.534 143C122.795 143 123.019 143.089 123.205 143.267C123.394 143.445 123.489 143.659 123.489 143.909C123.489 144.159 123.394 144.373 123.205 144.551C123.019 144.729 122.795 144.818 122.534 144.818ZM129.195 155.182C128.407 155.182 127.715 154.994 127.121 154.619C126.53 154.244 126.068 153.72 125.734 153.045C125.405 152.371 125.24 151.583 125.24 150.682C125.24 149.773 125.405 148.979 125.734 148.301C126.068 147.623 126.53 147.097 127.121 146.722C127.715 146.347 128.407 146.159 129.195 146.159C129.982 146.159 130.672 146.347 131.263 146.722C131.857 147.097 132.32 147.623 132.649 148.301C132.982 148.979 133.149 149.773 133.149 150.682C133.149 151.583 132.982 152.371 132.649 153.045C132.32 153.72 131.857 154.244 131.263 154.619C130.672 154.994 129.982 155.182 129.195 155.182ZM129.195 153.977C129.793 153.977 130.286 153.824 130.672 153.517C131.058 153.21 131.344 152.807 131.53 152.307C131.715 151.807 131.808 151.265 131.808 150.682C131.808 150.098 131.715 149.555 131.53 149.051C131.344 148.547 131.058 148.14 130.672 147.83C130.286 147.519 129.793 147.364 129.195 147.364C128.596 147.364 128.104 147.519 127.717 147.83C127.331 148.14 127.045 148.547 126.859 149.051C126.674 149.555 126.581 150.098 126.581 150.682C126.581 151.265 126.674 151.807 126.859 152.307C127.045 152.807 127.331 153.21 127.717 153.517C128.104 153.824 128.596 153.977 129.195 153.977ZM136.537 149.75V155H135.196V146.273H136.491V147.636H136.605C136.81 147.193 137.12 146.837 137.537 146.568C137.954 146.295 138.491 146.159 139.151 146.159C139.741 146.159 140.259 146.28 140.702 146.523C141.145 146.761 141.49 147.125 141.736 147.614C141.982 148.098 142.105 148.712 142.105 149.455V155H140.764V149.545C140.764 148.86 140.586 148.326 140.23 147.943C139.874 147.557 139.385 147.364 138.764 147.364C138.336 147.364 137.954 147.456 137.616 147.642C137.283 147.828 137.02 148.098 136.827 148.455C136.634 148.811 136.537 149.242 136.537 149.75ZM152.851 146.273V147.409H148.328V146.273H152.851ZM149.646 144.182H150.987V152.5C150.987 152.879 151.042 153.163 151.152 153.352C151.266 153.538 151.41 153.663 151.584 153.727C151.762 153.788 151.949 153.818 152.146 153.818C152.294 153.818 152.415 153.811 152.51 153.795C152.605 153.777 152.68 153.761 152.737 153.75L153.01 154.955C152.919 154.989 152.792 155.023 152.629 155.057C152.466 155.095 152.26 155.114 152.01 155.114C151.631 155.114 151.26 155.032 150.896 154.869C150.536 154.706 150.237 154.458 149.999 154.125C149.764 153.792 149.646 153.371 149.646 152.864V144.182ZM158.32 155.182C157.532 155.182 156.84 154.994 156.246 154.619C155.655 154.244 155.193 153.72 154.859 153.045C154.53 152.371 154.365 151.583 154.365 150.682C154.365 149.773 154.53 148.979 154.859 148.301C155.193 147.623 155.655 147.097 156.246 146.722C156.84 146.347 157.532 146.159 158.32 146.159C159.107 146.159 159.797 146.347 160.388 146.722C160.982 147.097 161.445 147.623 161.774 148.301C162.107 148.979 162.274 149.773 162.274 150.682C162.274 151.583 162.107 152.371 161.774 153.045C161.445 153.72 160.982 154.244 160.388 154.619C159.797 154.994 159.107 155.182 158.32 155.182ZM158.32 153.977C158.918 153.977 159.411 153.824 159.797 153.517C160.183 153.21 160.469 152.807 160.655 152.307C160.84 151.807 160.933 151.265 160.933 150.682C160.933 150.098 160.84 149.555 160.655 149.051C160.469 148.547 160.183 148.14 159.797 147.83C159.411 147.519 158.918 147.364 158.32 147.364C157.721 147.364 157.229 147.519 156.842 147.83C156.456 148.14 156.17 148.547 155.984 149.051C155.799 149.555 155.706 150.098 155.706 150.682C155.706 151.265 155.799 151.807 155.984 152.307C156.17 152.807 156.456 153.21 156.842 153.517C157.229 153.824 157.721 153.977 158.32 153.977ZM175.003 148.227L173.798 148.568C173.723 148.367 173.611 148.172 173.463 147.983C173.319 147.79 173.122 147.631 172.872 147.506C172.622 147.381 172.302 147.318 171.912 147.318C171.378 147.318 170.933 147.441 170.577 147.688C170.224 147.93 170.048 148.239 170.048 148.614C170.048 148.947 170.17 149.21 170.412 149.403C170.654 149.597 171.033 149.758 171.548 149.886L172.844 150.205C173.624 150.394 174.205 150.684 174.588 151.074C174.971 151.46 175.162 151.958 175.162 152.568C175.162 153.068 175.018 153.515 174.73 153.909C174.446 154.303 174.048 154.614 173.537 154.841C173.026 155.068 172.431 155.182 171.753 155.182C170.863 155.182 170.126 154.989 169.543 154.602C168.959 154.216 168.59 153.652 168.435 152.909L169.707 152.591C169.829 153.061 170.058 153.413 170.395 153.648C170.736 153.883 171.181 154 171.73 154C172.355 154 172.851 153.867 173.219 153.602C173.59 153.333 173.776 153.011 173.776 152.636C173.776 152.333 173.67 152.08 173.457 151.875C173.245 151.667 172.92 151.511 172.48 151.409L171.026 151.068C170.226 150.879 169.639 150.585 169.264 150.188C168.893 149.786 168.707 149.284 168.707 148.682C168.707 148.189 168.846 147.754 169.122 147.375C169.402 146.996 169.783 146.699 170.264 146.483C170.749 146.267 171.298 146.159 171.912 146.159C172.776 146.159 173.454 146.348 173.946 146.727C174.442 147.106 174.795 147.606 175.003 148.227ZM178.521 149.75V155H177.18V143.364H178.521V147.636H178.635C178.839 147.186 179.146 146.828 179.555 146.562C179.968 146.294 180.518 146.159 181.203 146.159C181.798 146.159 182.319 146.278 182.766 146.517C183.213 146.752 183.559 147.114 183.805 147.602C184.055 148.087 184.18 148.705 184.18 149.455V155H182.839V149.545C182.839 148.852 182.66 148.316 182.3 147.938C181.944 147.555 181.449 147.364 180.817 147.364C180.377 147.364 179.983 147.456 179.635 147.642C179.29 147.828 179.018 148.098 178.817 148.455C178.62 148.811 178.521 149.242 178.521 149.75ZM189.202 155.205C188.649 155.205 188.147 155.1 187.696 154.892C187.245 154.68 186.887 154.375 186.622 153.977C186.357 153.576 186.224 153.091 186.224 152.523C186.224 152.023 186.323 151.617 186.52 151.307C186.717 150.992 186.98 150.746 187.31 150.568C187.639 150.39 188.003 150.258 188.401 150.17C188.802 150.08 189.205 150.008 189.611 149.955C190.141 149.886 190.571 149.835 190.901 149.801C191.234 149.763 191.476 149.701 191.628 149.614C191.783 149.527 191.861 149.375 191.861 149.159V149.114C191.861 148.553 191.707 148.117 191.401 147.807C191.098 147.496 190.637 147.341 190.02 147.341C189.38 147.341 188.878 147.481 188.514 147.761C188.151 148.042 187.895 148.341 187.747 148.659L186.474 148.205C186.702 147.674 187.005 147.261 187.384 146.966C187.766 146.667 188.183 146.458 188.634 146.341C189.088 146.22 189.535 146.159 189.974 146.159C190.255 146.159 190.577 146.193 190.94 146.261C191.308 146.326 191.662 146.46 192.003 146.665C192.348 146.869 192.634 147.178 192.861 147.591C193.088 148.004 193.202 148.557 193.202 149.25V155H191.861V153.818H191.793C191.702 154.008 191.55 154.21 191.338 154.426C191.126 154.642 190.844 154.826 190.491 154.977C190.139 155.129 189.709 155.205 189.202 155.205ZM189.406 154C189.937 154 190.384 153.896 190.747 153.688C191.115 153.479 191.391 153.21 191.577 152.881C191.766 152.551 191.861 152.205 191.861 151.841V150.614C191.804 150.682 191.679 150.744 191.486 150.801C191.296 150.854 191.077 150.902 190.827 150.943C190.58 150.981 190.34 151.015 190.105 151.045C189.874 151.072 189.687 151.095 189.543 151.114C189.194 151.159 188.868 151.233 188.565 151.335C188.266 151.434 188.024 151.583 187.838 151.784C187.656 151.981 187.565 152.25 187.565 152.591C187.565 153.057 187.738 153.409 188.082 153.648C188.431 153.883 188.872 154 189.406 154ZM195.649 158.273V146.273H196.945V147.659H197.104C197.202 147.508 197.339 147.314 197.513 147.08C197.691 146.841 197.945 146.629 198.274 146.443C198.607 146.254 199.058 146.159 199.626 146.159C200.361 146.159 201.009 146.343 201.57 146.71C202.13 147.078 202.568 147.598 202.882 148.273C203.196 148.947 203.354 149.742 203.354 150.659C203.354 151.583 203.196 152.384 202.882 153.062C202.568 153.737 202.132 154.259 201.575 154.631C201.018 154.998 200.376 155.182 199.649 155.182C199.089 155.182 198.64 155.089 198.303 154.903C197.965 154.714 197.706 154.5 197.524 154.261C197.342 154.019 197.202 153.818 197.104 153.659H196.99V158.273H195.649ZM196.967 150.636C196.967 151.295 197.064 151.877 197.257 152.381C197.45 152.881 197.732 153.273 198.104 153.557C198.475 153.837 198.929 153.977 199.467 153.977C200.028 153.977 200.496 153.83 200.871 153.534C201.25 153.235 201.534 152.833 201.723 152.33C201.916 151.822 202.013 151.258 202.013 150.636C202.013 150.023 201.918 149.47 201.729 148.977C201.543 148.481 201.261 148.089 200.882 147.801C200.507 147.509 200.036 147.364 199.467 147.364C198.922 147.364 198.464 147.502 198.092 147.778C197.721 148.051 197.441 148.434 197.251 148.926C197.062 149.415 196.967 149.985 196.967 150.636ZM209.058 155.182C208.217 155.182 207.492 154.996 206.882 154.625C206.276 154.25 205.808 153.727 205.479 153.057C205.153 152.383 204.99 151.598 204.99 150.705C204.99 149.811 205.153 149.023 205.479 148.341C205.808 147.655 206.267 147.121 206.854 146.739C207.445 146.352 208.134 146.159 208.922 146.159C209.376 146.159 209.825 146.235 210.268 146.386C210.712 146.538 211.115 146.784 211.479 147.125C211.842 147.462 212.132 147.909 212.348 148.466C212.564 149.023 212.672 149.708 212.672 150.523V151.091H205.945V149.932H211.308C211.308 149.439 211.21 149 211.013 148.614C210.82 148.227 210.543 147.922 210.183 147.699C209.827 147.475 209.407 147.364 208.922 147.364C208.388 147.364 207.926 147.496 207.536 147.761C207.149 148.023 206.852 148.364 206.643 148.784C206.435 149.205 206.331 149.655 206.331 150.136V150.909C206.331 151.568 206.445 152.127 206.672 152.585C206.903 153.04 207.223 153.386 207.632 153.625C208.041 153.86 208.517 153.977 209.058 153.977C209.411 153.977 209.729 153.928 210.013 153.83C210.301 153.727 210.549 153.576 210.757 153.375C210.965 153.17 211.126 152.917 211.24 152.614L212.536 152.977C212.399 153.417 212.17 153.803 211.848 154.136C211.526 154.466 211.128 154.723 210.655 154.909C210.181 155.091 209.649 155.182 209.058 155.182ZM223.007 146.273V147.409H218.484V146.273H223.007ZM219.803 144.182H221.143V152.5C221.143 152.879 221.198 153.163 221.308 153.352C221.422 153.538 221.566 153.663 221.74 153.727C221.918 153.788 222.106 153.818 222.303 153.818C222.45 153.818 222.571 153.811 222.666 153.795C222.761 153.777 222.837 153.761 222.893 153.75L223.166 154.955C223.075 154.989 222.948 155.023 222.786 155.057C222.623 155.095 222.416 155.114 222.166 155.114C221.787 155.114 221.416 155.032 221.053 154.869C220.693 154.706 220.393 154.458 220.155 154.125C219.92 153.792 219.803 153.371 219.803 152.864V144.182ZM226.553 149.75V155H225.212V143.364H226.553V147.636H226.666C226.871 147.186 227.178 146.828 227.587 146.562C228 146.294 228.549 146.159 229.234 146.159C229.829 146.159 230.35 146.278 230.797 146.517C231.244 146.752 231.59 147.114 231.837 147.602C232.087 148.087 232.212 148.705 232.212 149.455V155H230.871V149.545C230.871 148.852 230.691 148.316 230.331 147.938C229.975 147.555 229.481 147.364 228.848 147.364C228.409 147.364 228.015 147.456 227.666 147.642C227.321 147.828 227.049 148.098 226.848 148.455C226.651 148.811 226.553 149.242 226.553 149.75ZM238.324 155.182C237.483 155.182 236.758 154.996 236.148 154.625C235.542 154.25 235.074 153.727 234.744 153.057C234.419 152.383 234.256 151.598 234.256 150.705C234.256 149.811 234.419 149.023 234.744 148.341C235.074 147.655 235.532 147.121 236.119 146.739C236.71 146.352 237.4 146.159 238.188 146.159C238.642 146.159 239.091 146.235 239.534 146.386C239.977 146.538 240.381 146.784 240.744 147.125C241.108 147.462 241.398 147.909 241.614 148.466C241.83 149.023 241.938 149.708 241.938 150.523V151.091H235.21V149.932H240.574C240.574 149.439 240.475 149 240.278 148.614C240.085 148.227 239.809 147.922 239.449 147.699C239.093 147.475 238.672 147.364 238.188 147.364C237.653 147.364 237.191 147.496 236.801 147.761C236.415 148.023 236.117 148.364 235.909 148.784C235.701 149.205 235.597 149.655 235.597 150.136V150.909C235.597 151.568 235.71 152.127 235.938 152.585C236.169 153.04 236.489 153.386 236.898 153.625C237.307 153.86 237.782 153.977 238.324 153.977C238.676 153.977 238.994 153.928 239.278 153.83C239.566 153.727 239.814 153.576 240.023 153.375C240.231 153.17 240.392 152.917 240.506 152.614L241.801 152.977C241.665 153.417 241.436 153.803 241.114 154.136C240.792 154.466 240.394 154.723 239.92 154.909C239.447 155.091 238.915 155.182 238.324 155.182ZM252.364 146.273V147.409H247.659V146.273H252.364ZM249.068 155V145.068C249.068 144.568 249.186 144.152 249.42 143.818C249.655 143.485 249.96 143.235 250.335 143.068C250.71 142.902 251.106 142.818 251.523 142.818C251.852 142.818 252.121 142.845 252.33 142.898C252.538 142.951 252.693 143 252.795 143.045L252.409 144.205C252.341 144.182 252.246 144.153 252.125 144.119C252.008 144.085 251.852 144.068 251.659 144.068C251.216 144.068 250.896 144.18 250.699 144.403C250.506 144.627 250.409 144.955 250.409 145.386V155H249.068ZM259.743 151.432V146.273H261.084V155H259.743V153.523H259.652C259.447 153.966 259.129 154.343 258.697 154.653C258.266 154.96 257.72 155.114 257.061 155.114C256.516 155.114 256.031 154.994 255.607 154.756C255.182 154.513 254.849 154.15 254.607 153.665C254.364 153.176 254.243 152.561 254.243 151.818V146.273H255.584V151.727C255.584 152.364 255.762 152.871 256.118 153.25C256.478 153.629 256.936 153.818 257.493 153.818C257.826 153.818 258.165 153.733 258.51 153.562C258.858 153.392 259.15 153.131 259.385 152.778C259.624 152.426 259.743 151.977 259.743 151.432ZM267.335 146.273V147.409H262.812V146.273H267.335ZM264.131 144.182H265.472V152.5C265.472 152.879 265.527 153.163 265.636 153.352C265.75 153.538 265.894 153.663 266.068 153.727C266.246 153.788 266.434 153.818 266.631 153.818C266.778 153.818 266.9 153.811 266.994 153.795C267.089 153.777 267.165 153.761 267.222 153.75L267.494 154.955C267.403 154.989 267.277 155.023 267.114 155.057C266.951 155.095 266.744 155.114 266.494 155.114C266.116 155.114 265.744 155.032 265.381 154.869C265.021 154.706 264.722 154.458 264.483 154.125C264.248 153.792 264.131 153.371 264.131 152.864V144.182ZM274.852 151.432V146.273H276.193V155H274.852V153.523H274.761C274.557 153.966 274.239 154.343 273.807 154.653C273.375 154.96 272.83 155.114 272.17 155.114C271.625 155.114 271.14 154.994 270.716 154.756C270.292 154.513 269.958 154.15 269.716 153.665C269.473 153.176 269.352 152.561 269.352 151.818V146.273H270.693V151.727C270.693 152.364 270.871 152.871 271.227 153.25C271.587 153.629 272.045 153.818 272.602 153.818C272.936 153.818 273.275 153.733 273.619 153.562C273.968 153.392 274.259 153.131 274.494 152.778C274.733 152.426 274.852 151.977 274.852 151.432ZM278.649 155V146.273H279.945V147.591H280.036C280.195 147.159 280.482 146.809 280.899 146.54C281.316 146.271 281.786 146.136 282.308 146.136C282.407 146.136 282.53 146.138 282.678 146.142C282.825 146.146 282.937 146.152 283.013 146.159V147.523C282.967 147.511 282.863 147.494 282.7 147.472C282.541 147.445 282.373 147.432 282.195 147.432C281.77 147.432 281.392 147.521 281.058 147.699C280.729 147.873 280.467 148.116 280.274 148.426C280.085 148.733 279.99 149.083 279.99 149.477V155H278.649ZM287.996 155.182C287.155 155.182 286.429 154.996 285.82 154.625C285.214 154.25 284.746 153.727 284.416 153.057C284.09 152.383 283.928 151.598 283.928 150.705C283.928 149.811 284.09 149.023 284.416 148.341C284.746 147.655 285.204 147.121 285.791 146.739C286.382 146.352 287.071 146.159 287.859 146.159C288.314 146.159 288.763 146.235 289.206 146.386C289.649 146.538 290.053 146.784 290.416 147.125C290.78 147.462 291.07 147.909 291.286 148.466C291.501 149.023 291.609 149.708 291.609 150.523V151.091H284.882V149.932H290.246C290.246 149.439 290.147 149 289.95 148.614C289.757 148.227 289.481 147.922 289.121 147.699C288.765 147.475 288.344 147.364 287.859 147.364C287.325 147.364 286.863 147.496 286.473 147.761C286.087 148.023 285.789 148.364 285.581 148.784C285.373 149.205 285.268 149.655 285.268 150.136V150.909C285.268 151.568 285.382 152.127 285.609 152.585C285.84 153.04 286.161 153.386 286.57 153.625C286.979 153.86 287.454 153.977 287.996 153.977C288.348 153.977 288.666 153.928 288.95 153.83C289.238 153.727 289.486 153.576 289.695 153.375C289.903 153.17 290.064 152.917 290.178 152.614L291.473 152.977C291.337 153.417 291.107 153.803 290.786 154.136C290.464 154.466 290.066 154.723 289.592 154.909C289.119 155.091 288.587 155.182 287.996 155.182ZM301.695 155.182C300.907 155.182 300.215 154.994 299.621 154.619C299.03 154.244 298.568 153.72 298.234 153.045C297.905 152.371 297.74 151.583 297.74 150.682C297.74 149.773 297.905 148.979 298.234 148.301C298.568 147.623 299.03 147.097 299.621 146.722C300.215 146.347 300.907 146.159 301.695 146.159C302.482 146.159 303.172 146.347 303.763 146.722C304.357 147.097 304.82 147.623 305.149 148.301C305.482 148.979 305.649 149.773 305.649 150.682C305.649 151.583 305.482 152.371 305.149 153.045C304.82 153.72 304.357 154.244 303.763 154.619C303.172 154.994 302.482 155.182 301.695 155.182ZM301.695 153.977C302.293 153.977 302.786 153.824 303.172 153.517C303.558 153.21 303.844 152.807 304.03 152.307C304.215 151.807 304.308 151.265 304.308 150.682C304.308 150.098 304.215 149.555 304.03 149.051C303.844 148.547 303.558 148.14 303.172 147.83C302.786 147.519 302.293 147.364 301.695 147.364C301.096 147.364 300.604 147.519 300.217 147.83C299.831 148.14 299.545 148.547 299.359 149.051C299.174 149.555 299.081 150.098 299.081 150.682C299.081 151.265 299.174 151.807 299.359 152.307C299.545 152.807 299.831 153.21 300.217 153.517C300.604 153.824 301.096 153.977 301.695 153.977ZM311.582 146.273V147.409H306.878V146.273H311.582ZM308.287 155V145.068C308.287 144.568 308.404 144.152 308.639 143.818C308.874 143.485 309.179 143.235 309.554 143.068C309.929 142.902 310.325 142.818 310.741 142.818C311.071 142.818 311.34 142.845 311.548 142.898C311.757 142.951 311.912 143 312.014 143.045L311.628 144.205C311.56 144.182 311.465 144.153 311.344 144.119C311.226 144.085 311.071 144.068 310.878 144.068C310.435 144.068 310.115 144.18 309.918 144.403C309.724 144.627 309.628 144.955 309.628 145.386V155H308.287ZM321.757 146.273V147.409H317.234V146.273H321.757ZM318.553 144.182H319.893V152.5C319.893 152.879 319.948 153.163 320.058 153.352C320.172 153.538 320.316 153.663 320.49 153.727C320.668 153.788 320.856 153.818 321.053 153.818C321.2 153.818 321.321 153.811 321.416 153.795C321.511 153.777 321.587 153.761 321.643 153.75L321.916 154.955C321.825 154.989 321.698 155.023 321.536 155.057C321.373 155.095 321.166 155.114 320.916 155.114C320.537 155.114 320.166 155.032 319.803 154.869C319.443 154.706 319.143 154.458 318.905 154.125C318.67 153.792 318.553 153.371 318.553 152.864V144.182ZM323.774 155V146.273H325.07V147.591H325.161C325.32 147.159 325.607 146.809 326.024 146.54C326.441 146.271 326.911 146.136 327.433 146.136C327.532 146.136 327.655 146.138 327.803 146.142C327.95 146.146 328.062 146.152 328.138 146.159V147.523C328.092 147.511 327.988 147.494 327.825 147.472C327.666 147.445 327.498 147.432 327.32 147.432C326.895 147.432 326.517 147.521 326.183 147.699C325.854 147.873 325.592 148.116 325.399 148.426C325.21 148.733 325.115 149.083 325.115 149.477V155H323.774ZM332.295 155.205C331.742 155.205 331.241 155.1 330.79 154.892C330.339 154.68 329.981 154.375 329.716 153.977C329.451 153.576 329.318 153.091 329.318 152.523C329.318 152.023 329.417 151.617 329.614 151.307C329.811 150.992 330.074 150.746 330.403 150.568C330.733 150.39 331.097 150.258 331.494 150.17C331.896 150.08 332.299 150.008 332.705 149.955C333.235 149.886 333.665 149.835 333.994 149.801C334.328 149.763 334.57 149.701 334.722 149.614C334.877 149.527 334.955 149.375 334.955 149.159V149.114C334.955 148.553 334.801 148.117 334.494 147.807C334.191 147.496 333.731 147.341 333.114 147.341C332.473 147.341 331.972 147.481 331.608 147.761C331.244 148.042 330.989 148.341 330.841 148.659L329.568 148.205C329.795 147.674 330.098 147.261 330.477 146.966C330.86 146.667 331.277 146.458 331.727 146.341C332.182 146.22 332.629 146.159 333.068 146.159C333.348 146.159 333.67 146.193 334.034 146.261C334.402 146.326 334.756 146.46 335.097 146.665C335.441 146.869 335.727 147.178 335.955 147.591C336.182 148.004 336.295 148.557 336.295 149.25V155H334.955V153.818H334.886C334.795 154.008 334.644 154.21 334.432 154.426C334.22 154.642 333.938 154.826 333.585 154.977C333.233 155.129 332.803 155.205 332.295 155.205ZM332.5 154C333.03 154 333.477 153.896 333.841 153.688C334.208 153.479 334.485 153.21 334.67 152.881C334.86 152.551 334.955 152.205 334.955 151.841V150.614C334.898 150.682 334.773 150.744 334.58 150.801C334.39 150.854 334.17 150.902 333.92 150.943C333.674 150.981 333.434 151.015 333.199 151.045C332.968 151.072 332.78 151.095 332.636 151.114C332.288 151.159 331.962 151.233 331.659 151.335C331.36 151.434 331.117 151.583 330.932 151.784C330.75 151.981 330.659 152.25 330.659 152.591C330.659 153.057 330.831 153.409 331.176 153.648C331.525 153.883 331.966 154 332.5 154ZM342.038 155.182C341.311 155.182 340.669 154.998 340.112 154.631C339.555 154.259 339.12 153.737 338.805 153.062C338.491 152.384 338.334 151.583 338.334 150.659C338.334 149.742 338.491 148.947 338.805 148.273C339.12 147.598 339.557 147.078 340.118 146.71C340.679 146.343 341.326 146.159 342.061 146.159C342.629 146.159 343.078 146.254 343.408 146.443C343.741 146.629 343.995 146.841 344.169 147.08C344.347 147.314 344.485 147.508 344.584 147.659H344.697V143.364H346.038V155H344.743V153.659H344.584C344.485 153.818 344.345 154.019 344.163 154.261C343.982 154.5 343.722 154.714 343.385 154.903C343.048 155.089 342.599 155.182 342.038 155.182ZM342.22 153.977C342.758 153.977 343.213 153.837 343.584 153.557C343.955 153.273 344.237 152.881 344.43 152.381C344.624 151.877 344.72 151.295 344.72 150.636C344.72 149.985 344.625 149.415 344.436 148.926C344.247 148.434 343.966 148.051 343.595 147.778C343.224 147.502 342.766 147.364 342.22 147.364C341.652 147.364 341.179 147.509 340.8 147.801C340.425 148.089 340.143 148.481 339.953 148.977C339.768 149.47 339.675 150.023 339.675 150.636C339.675 151.258 339.769 151.822 339.959 152.33C340.152 152.833 340.436 153.235 340.811 153.534C341.19 153.83 341.66 153.977 342.22 153.977ZM348.68 155V146.273H350.021V155H348.68ZM349.362 144.818C349.101 144.818 348.875 144.729 348.686 144.551C348.5 144.373 348.408 144.159 348.408 143.909C348.408 143.659 348.5 143.445 348.686 143.267C348.875 143.089 349.101 143 349.362 143C349.624 143 349.847 143.089 350.033 143.267C350.222 143.445 350.317 143.659 350.317 143.909C350.317 144.159 350.222 144.373 350.033 144.551C349.847 144.729 349.624 144.818 349.362 144.818ZM353.818 149.75V155H352.477V146.273H353.773V147.636H353.886C354.091 147.193 354.402 146.837 354.818 146.568C355.235 146.295 355.773 146.159 356.432 146.159C357.023 146.159 357.54 146.28 357.983 146.523C358.426 146.761 358.771 147.125 359.017 147.614C359.263 148.098 359.386 148.712 359.386 149.455V155H358.045V149.545C358.045 148.86 357.867 148.326 357.511 147.943C357.155 147.557 356.667 147.364 356.045 147.364C355.617 147.364 355.235 147.456 354.898 147.642C354.564 147.828 354.301 148.098 354.108 148.455C353.915 148.811 353.818 149.242 353.818 149.75ZM365.359 158.455C364.712 158.455 364.155 158.371 363.689 158.205C363.223 158.042 362.835 157.826 362.524 157.557C362.217 157.292 361.973 157.008 361.791 156.705L362.859 155.955C362.981 156.114 363.134 156.295 363.32 156.5C363.505 156.708 363.759 156.888 364.081 157.04C364.407 157.195 364.833 157.273 365.359 157.273C366.064 157.273 366.645 157.102 367.104 156.761C367.562 156.42 367.791 155.886 367.791 155.159V153.386H367.678C367.579 153.545 367.439 153.742 367.257 153.977C367.079 154.208 366.821 154.415 366.484 154.597C366.151 154.775 365.7 154.864 365.132 154.864C364.428 154.864 363.795 154.697 363.234 154.364C362.678 154.03 362.236 153.545 361.911 152.909C361.589 152.273 361.428 151.5 361.428 150.591C361.428 149.697 361.585 148.919 361.899 148.256C362.214 147.589 362.651 147.074 363.212 146.71C363.772 146.343 364.42 146.159 365.155 146.159C365.723 146.159 366.174 146.254 366.507 146.443C366.844 146.629 367.102 146.841 367.28 147.08C367.462 147.314 367.602 147.508 367.7 147.659H367.837V146.273H369.132V155.25C369.132 156 368.962 156.61 368.621 157.08C368.284 157.553 367.829 157.9 367.257 158.119C366.689 158.343 366.056 158.455 365.359 158.455ZM365.314 153.659C365.852 153.659 366.306 153.536 366.678 153.29C367.049 153.044 367.331 152.689 367.524 152.227C367.717 151.765 367.814 151.212 367.814 150.568C367.814 149.939 367.719 149.384 367.53 148.903C367.34 148.422 367.06 148.045 366.689 147.773C366.318 147.5 365.859 147.364 365.314 147.364C364.746 147.364 364.272 147.508 363.893 147.795C363.518 148.083 363.236 148.47 363.047 148.955C362.861 149.439 362.768 149.977 362.768 150.568C362.768 151.174 362.863 151.71 363.053 152.176C363.246 152.638 363.53 153.002 363.905 153.267C364.284 153.528 364.753 153.659 365.314 153.659ZM378.064 155L375.405 146.273H376.814L378.7 152.955H378.791L380.655 146.273H382.087L383.928 152.932H384.018L385.905 146.273H387.314L384.655 155H383.337L381.428 148.295H381.291L379.382 155H378.064ZM389.087 155V146.273H390.428V155H389.087ZM389.768 144.818C389.507 144.818 389.282 144.729 389.092 144.551C388.907 144.373 388.814 144.159 388.814 143.909C388.814 143.659 388.907 143.445 389.092 143.267C389.282 143.089 389.507 143 389.768 143C390.03 143 390.253 143.089 390.439 143.267C390.628 143.445 390.723 143.659 390.723 143.909C390.723 144.159 390.628 144.373 390.439 144.551C390.253 144.729 390.03 144.818 389.768 144.818ZM396.679 146.273V147.409H392.156V146.273H396.679ZM393.474 144.182H394.815V152.5C394.815 152.879 394.87 153.163 394.98 153.352C395.094 153.538 395.238 153.663 395.412 153.727C395.59 153.788 395.777 153.818 395.974 153.818C396.122 153.818 396.243 153.811 396.338 153.795C396.433 153.777 396.509 153.761 396.565 153.75L396.838 154.955C396.747 154.989 396.62 155.023 396.457 155.057C396.295 155.095 396.088 155.114 395.838 155.114C395.459 155.114 395.088 155.032 394.724 154.869C394.365 154.706 394.065 154.458 393.827 154.125C393.592 153.792 393.474 153.371 393.474 152.864V144.182ZM400.224 149.75V155H398.884V143.364H400.224V147.636H400.338C400.543 147.186 400.849 146.828 401.259 146.562C401.671 146.294 402.221 146.159 402.906 146.159C403.501 146.159 404.022 146.278 404.469 146.517C404.916 146.752 405.262 147.114 405.509 147.602C405.759 148.087 405.884 148.705 405.884 149.455V155H404.543V149.545C404.543 148.852 404.363 148.316 404.003 147.938C403.647 147.555 403.152 147.364 402.52 147.364C402.08 147.364 401.687 147.456 401.338 147.642C400.993 147.828 400.721 148.098 400.52 148.455C400.323 148.811 400.224 149.242 400.224 149.75ZM413.7 158.273C413.473 158.273 413.27 158.254 413.092 158.216C412.914 158.182 412.791 158.148 412.723 158.114L413.064 156.932C413.39 157.015 413.678 157.045 413.928 157.023C414.178 157 414.399 156.888 414.592 156.688C414.789 156.491 414.969 156.17 415.132 155.727L415.382 155.045L412.155 146.273H413.609L416.018 153.227H416.109L418.518 146.273H419.973L416.268 156.273C416.102 156.723 415.895 157.097 415.649 157.392C415.403 157.691 415.117 157.913 414.791 158.057C414.469 158.201 414.106 158.273 413.7 158.273ZM424.976 155.182C424.188 155.182 423.497 154.994 422.902 154.619C422.311 154.244 421.849 153.72 421.516 153.045C421.186 152.371 421.021 151.583 421.021 150.682C421.021 149.773 421.186 148.979 421.516 148.301C421.849 147.623 422.311 147.097 422.902 146.722C423.497 146.347 424.188 146.159 424.976 146.159C425.764 146.159 426.453 146.347 427.044 146.722C427.639 147.097 428.101 147.623 428.43 148.301C428.764 148.979 428.93 149.773 428.93 150.682C428.93 151.583 428.764 152.371 428.43 153.045C428.101 153.72 427.639 154.244 427.044 154.619C426.453 154.994 425.764 155.182 424.976 155.182ZM424.976 153.977C425.574 153.977 426.067 153.824 426.453 153.517C426.839 153.21 427.125 152.807 427.311 152.307C427.497 151.807 427.589 151.265 427.589 150.682C427.589 150.098 427.497 149.555 427.311 149.051C427.125 148.547 426.839 148.14 426.453 147.83C426.067 147.519 425.574 147.364 424.976 147.364C424.377 147.364 423.885 147.519 423.499 147.83C423.112 148.14 422.826 148.547 422.641 149.051C422.455 149.555 422.362 150.098 422.362 150.682C422.362 151.265 422.455 151.807 422.641 152.307C422.826 152.807 423.112 153.21 423.499 153.517C423.885 153.824 424.377 153.977 424.976 153.977ZM436.477 151.432V146.273H437.818V155H436.477V153.523H436.386C436.182 153.966 435.864 154.343 435.432 154.653C435 154.96 434.455 155.114 433.795 155.114C433.25 155.114 432.765 154.994 432.341 154.756C431.917 154.513 431.583 154.15 431.341 153.665C431.098 153.176 430.977 152.561 430.977 151.818V146.273H432.318V151.727C432.318 152.364 432.496 152.871 432.852 153.25C433.212 153.629 433.67 153.818 434.227 153.818C434.561 153.818 434.9 153.733 435.244 153.562C435.593 153.392 435.884 153.131 436.119 152.778C436.358 152.426 436.477 151.977 436.477 151.432ZM448.661 146.273V147.409H443.956V146.273H448.661ZM445.365 155V145.068C445.365 144.568 445.482 144.152 445.717 143.818C445.952 143.485 446.257 143.235 446.632 143.068C447.007 142.902 447.403 142.818 447.82 142.818C448.149 142.818 448.418 142.845 448.626 142.898C448.835 142.951 448.99 143 449.092 143.045L448.706 144.205C448.638 144.182 448.543 144.153 448.422 144.119C448.304 144.085 448.149 144.068 447.956 144.068C447.513 144.068 447.193 144.18 446.996 144.403C446.803 144.627 446.706 144.955 446.706 145.386V155H445.365ZM453.726 155.182C452.938 155.182 452.247 154.994 451.652 154.619C451.061 154.244 450.599 153.72 450.266 153.045C449.936 152.371 449.771 151.583 449.771 150.682C449.771 149.773 449.936 148.979 450.266 148.301C450.599 147.623 451.061 147.097 451.652 146.722C452.247 146.347 452.938 146.159 453.726 146.159C454.514 146.159 455.203 146.347 455.794 146.722C456.389 147.097 456.851 147.623 457.18 148.301C457.514 148.979 457.68 149.773 457.68 150.682C457.68 151.583 457.514 152.371 457.18 153.045C456.851 153.72 456.389 154.244 455.794 154.619C455.203 154.994 454.514 155.182 453.726 155.182ZM453.726 153.977C454.324 153.977 454.817 153.824 455.203 153.517C455.589 153.21 455.875 152.807 456.061 152.307C456.247 151.807 456.339 151.265 456.339 150.682C456.339 150.098 456.247 149.555 456.061 149.051C455.875 148.547 455.589 148.14 455.203 147.83C454.817 147.519 454.324 147.364 453.726 147.364C453.127 147.364 452.635 147.519 452.249 147.83C451.862 148.14 451.576 148.547 451.391 149.051C451.205 149.555 451.112 150.098 451.112 150.682C451.112 151.265 451.205 151.807 451.391 152.307C451.576 152.807 451.862 153.21 452.249 153.517C452.635 153.824 453.127 153.977 453.726 153.977ZM459.727 155V146.273H461.023V147.591H461.114C461.273 147.159 461.561 146.809 461.977 146.54C462.394 146.271 462.864 146.136 463.386 146.136C463.485 146.136 463.608 146.138 463.756 146.142C463.903 146.146 464.015 146.152 464.091 146.159V147.523C464.045 147.511 463.941 147.494 463.778 147.472C463.619 147.445 463.451 147.432 463.273 147.432C462.848 147.432 462.47 147.521 462.136 147.699C461.807 147.873 461.545 148.116 461.352 148.426C461.163 148.733 461.068 149.083 461.068 149.477V155H459.727ZM471.044 158.273C470.817 158.273 470.614 158.254 470.436 158.216C470.258 158.182 470.135 158.148 470.067 158.114L470.408 156.932C470.733 157.015 471.021 157.045 471.271 157.023C471.521 157 471.743 156.888 471.936 156.688C472.133 156.491 472.313 156.17 472.476 155.727L472.726 155.045L469.499 146.273H470.953L473.362 153.227H473.453L475.862 146.273H477.317L473.612 156.273C473.446 156.723 473.239 157.097 472.993 157.392C472.747 157.691 472.461 157.913 472.135 158.057C471.813 158.201 471.449 158.273 471.044 158.273ZM482.32 155.182C481.532 155.182 480.84 154.994 480.246 154.619C479.655 154.244 479.193 153.72 478.859 153.045C478.53 152.371 478.365 151.583 478.365 150.682C478.365 149.773 478.53 148.979 478.859 148.301C479.193 147.623 479.655 147.097 480.246 146.722C480.84 146.347 481.532 146.159 482.32 146.159C483.107 146.159 483.797 146.347 484.388 146.722C484.982 147.097 485.445 147.623 485.774 148.301C486.107 148.979 486.274 149.773 486.274 150.682C486.274 151.583 486.107 152.371 485.774 153.045C485.445 153.72 484.982 154.244 484.388 154.619C483.797 154.994 483.107 155.182 482.32 155.182ZM482.32 153.977C482.918 153.977 483.411 153.824 483.797 153.517C484.183 153.21 484.469 152.807 484.655 152.307C484.84 151.807 484.933 151.265 484.933 150.682C484.933 150.098 484.84 149.555 484.655 149.051C484.469 148.547 484.183 148.14 483.797 147.83C483.411 147.519 482.918 147.364 482.32 147.364C481.721 147.364 481.229 147.519 480.842 147.83C480.456 148.14 480.17 148.547 479.984 149.051C479.799 149.555 479.706 150.098 479.706 150.682C479.706 151.265 479.799 151.807 479.984 152.307C480.17 152.807 480.456 153.21 480.842 153.517C481.229 153.824 481.721 153.977 482.32 153.977ZM493.821 151.432V146.273H495.162V155H493.821V153.523H493.73C493.526 153.966 493.207 154.343 492.776 154.653C492.344 154.96 491.798 155.114 491.139 155.114C490.594 155.114 490.109 154.994 489.685 154.756C489.26 154.513 488.927 154.15 488.685 153.665C488.442 153.176 488.321 152.561 488.321 151.818V146.273H489.662V151.727C489.662 152.364 489.84 152.871 490.196 153.25C490.556 153.629 491.014 153.818 491.571 153.818C491.904 153.818 492.243 153.733 492.588 153.562C492.937 153.392 493.228 153.131 493.463 152.778C493.702 152.426 493.821 151.977 493.821 151.432ZM497.618 155V146.273H498.913V147.591H499.004C499.163 147.159 499.451 146.809 499.868 146.54C500.285 146.271 500.754 146.136 501.277 146.136C501.375 146.136 501.499 146.138 501.646 146.142C501.794 146.146 501.906 146.152 501.982 146.159V147.523C501.936 147.511 501.832 147.494 501.669 147.472C501.51 147.445 501.341 147.432 501.163 147.432C500.739 147.432 500.36 147.521 500.027 147.699C499.697 147.873 499.436 148.116 499.243 148.426C499.054 148.733 498.959 149.083 498.959 149.477V155H497.618ZM1.40909 174V162.364H2.75V166.659H2.86364C2.96212 166.508 3.09848 166.314 3.27273 166.08C3.45076 165.841 3.70455 165.629 4.03409 165.443C4.36742 165.254 4.81818 165.159 5.38636 165.159C6.12121 165.159 6.76894 165.343 7.32955 165.71C7.89015 166.078 8.32765 166.598 8.64205 167.273C8.95644 167.947 9.11364 168.742 9.11364 169.659C9.11364 170.583 8.95644 171.384 8.64205 172.062C8.32765 172.737 7.89205 173.259 7.33523 173.631C6.77841 173.998 6.13636 174.182 5.40909 174.182C4.84848 174.182 4.39962 174.089 4.0625 173.903C3.72538 173.714 3.46591 173.5 3.28409 173.261C3.10227 173.019 2.96212 172.818 2.86364 172.659H2.70455V174H1.40909ZM2.72727 169.636C2.72727 170.295 2.82386 170.877 3.01705 171.381C3.21023 171.881 3.49242 172.273 3.86364 172.557C4.23485 172.837 4.68939 172.977 5.22727 172.977C5.78788 172.977 6.25568 172.83 6.63068 172.534C7.00947 172.235 7.29356 171.833 7.48295 171.33C7.67614 170.822 7.77273 170.258 7.77273 169.636C7.77273 169.023 7.67803 168.47 7.48864 167.977C7.30303 167.481 7.02083 167.089 6.64205 166.801C6.26705 166.509 5.79545 166.364 5.22727 166.364C4.68182 166.364 4.22348 166.502 3.85227 166.778C3.48106 167.051 3.20076 167.434 3.01136 167.926C2.82197 168.415 2.72727 168.985 2.72727 169.636ZM14.8239 174.182C13.983 174.182 13.2576 173.996 12.6477 173.625C12.0417 173.25 11.5739 172.727 11.2443 172.057C10.9186 171.383 10.7557 170.598 10.7557 169.705C10.7557 168.811 10.9186 168.023 11.2443 167.341C11.5739 166.655 12.0322 166.121 12.6193 165.739C13.2102 165.352 13.8996 165.159 14.6875 165.159C15.142 165.159 15.5909 165.235 16.0341 165.386C16.4773 165.538 16.8807 165.784 17.2443 166.125C17.608 166.462 17.8977 166.909 18.1136 167.466C18.3295 168.023 18.4375 168.708 18.4375 169.523V170.091H11.7102V168.932H17.0739C17.0739 168.439 16.9754 168 16.7784 167.614C16.5852 167.227 16.3087 166.922 15.9489 166.699C15.5928 166.475 15.1723 166.364 14.6875 166.364C14.1534 166.364 13.6913 166.496 13.3011 166.761C12.9148 167.023 12.6174 167.364 12.4091 167.784C12.2008 168.205 12.0966 168.655 12.0966 169.136V169.909C12.0966 170.568 12.2102 171.127 12.4375 171.585C12.6686 172.04 12.9886 172.386 13.3977 172.625C13.8068 172.86 14.2822 172.977 14.8239 172.977C15.1761 172.977 15.4943 172.928 15.7784 172.83C16.0663 172.727 16.3144 172.576 16.5227 172.375C16.7311 172.17 16.892 171.917 17.0057 171.614L18.3011 171.977C18.1648 172.417 17.9356 172.803 17.6136 173.136C17.2917 173.466 16.8939 173.723 16.4205 173.909C15.947 174.091 15.4148 174.182 14.8239 174.182ZM24.2727 165.273V166.409H19.75V165.273H24.2727ZM21.0682 163.182H22.4091V171.5C22.4091 171.879 22.464 172.163 22.5739 172.352C22.6875 172.538 22.8314 172.663 23.0057 172.727C23.1837 172.788 23.3712 172.818 23.5682 172.818C23.7159 172.818 23.8371 172.811 23.9318 172.795C24.0265 172.777 24.1023 172.761 24.1591 172.75L24.4318 173.955C24.3409 173.989 24.214 174.023 24.0511 174.057C23.8883 174.095 23.6818 174.114 23.4318 174.114C23.053 174.114 22.6818 174.032 22.3182 173.869C21.9583 173.706 21.6591 173.458 21.4205 173.125C21.1856 172.792 21.0682 172.371 21.0682 171.864V163.182ZM30.0852 165.273V166.409H25.5625V165.273H30.0852ZM26.8807 163.182H28.2216V171.5C28.2216 171.879 28.2765 172.163 28.3864 172.352C28.5 172.538 28.6439 172.663 28.8182 172.727C28.9962 172.788 29.1837 172.818 29.3807 172.818C29.5284 172.818 29.6496 172.811 29.7443 172.795C29.839 172.777 29.9148 172.761 29.9716 172.75L30.2443 173.955C30.1534 173.989 30.0265 174.023 29.8636 174.057C29.7008 174.095 29.4943 174.114 29.2443 174.114C28.8655 174.114 28.4943 174.032 28.1307 173.869C27.7708 173.706 27.4716 173.458 27.233 173.125C26.9981 172.792 26.8807 172.371 26.8807 171.864V163.182ZM35.6676 174.182C34.8267 174.182 34.1013 173.996 33.4915 173.625C32.8854 173.25 32.4176 172.727 32.0881 172.057C31.7623 171.383 31.5994 170.598 31.5994 169.705C31.5994 168.811 31.7623 168.023 32.0881 167.341C32.4176 166.655 32.8759 166.121 33.4631 165.739C34.054 165.352 34.7434 165.159 35.5312 165.159C35.9858 165.159 36.4347 165.235 36.8778 165.386C37.321 165.538 37.7244 165.784 38.0881 166.125C38.4517 166.462 38.7415 166.909 38.9574 167.466C39.1733 168.023 39.2812 168.708 39.2812 169.523V170.091H32.554V168.932H37.9176C37.9176 168.439 37.8191 168 37.6222 167.614C37.429 167.227 37.1525 166.922 36.7926 166.699C36.4366 166.475 36.0161 166.364 35.5312 166.364C34.9972 166.364 34.535 166.496 34.1449 166.761C33.7585 167.023 33.4612 167.364 33.2528 167.784C33.0445 168.205 32.9403 168.655 32.9403 169.136V169.909C32.9403 170.568 33.054 171.127 33.2812 171.585C33.5123 172.04 33.8324 172.386 34.2415 172.625C34.6506 172.86 35.1259 172.977 35.6676 172.977C36.0199 172.977 36.3381 172.928 36.6222 172.83C36.91 172.727 37.1581 172.576 37.3665 172.375C37.5748 172.17 37.7358 171.917 37.8494 171.614L39.1449 171.977C39.0085 172.417 38.7794 172.803 38.4574 173.136C38.1354 173.466 37.7377 173.723 37.2642 173.909C36.7907 174.091 36.2585 174.182 35.6676 174.182ZM41.321 174V165.273H42.6165V166.591H42.7074C42.8665 166.159 43.1544 165.809 43.571 165.54C43.9877 165.271 44.4574 165.136 44.9801 165.136C45.0786 165.136 45.2017 165.138 45.3494 165.142C45.4972 165.146 45.6089 165.152 45.6847 165.159V166.523C45.6392 166.511 45.535 166.494 45.3722 166.472C45.2131 166.445 45.0445 166.432 44.8665 166.432C44.4422 166.432 44.0634 166.521 43.7301 166.699C43.4006 166.873 43.1392 167.116 42.946 167.426C42.7566 167.733 42.6619 168.083 42.6619 168.477V174H41.321ZM55.3196 174.182C54.5317 174.182 53.8404 173.994 53.2457 173.619C52.6548 173.244 52.1927 172.72 51.8594 172.045C51.5298 171.371 51.3651 170.583 51.3651 169.682C51.3651 168.773 51.5298 167.979 51.8594 167.301C52.1927 166.623 52.6548 166.097 53.2457 165.722C53.8404 165.347 54.5317 165.159 55.3196 165.159C56.1075 165.159 56.7969 165.347 57.3878 165.722C57.9825 166.097 58.4446 166.623 58.7741 167.301C59.1075 167.979 59.2741 168.773 59.2741 169.682C59.2741 170.583 59.1075 171.371 58.7741 172.045C58.4446 172.72 57.9825 173.244 57.3878 173.619C56.7969 173.994 56.1075 174.182 55.3196 174.182ZM55.3196 172.977C55.9181 172.977 56.4105 172.824 56.7969 172.517C57.1832 172.21 57.4692 171.807 57.6548 171.307C57.8404 170.807 57.9332 170.265 57.9332 169.682C57.9332 169.098 57.8404 168.555 57.6548 168.051C57.4692 167.547 57.1832 167.14 56.7969 166.83C56.4105 166.519 55.9181 166.364 55.3196 166.364C54.7211 166.364 54.2287 166.519 53.8423 166.83C53.456 167.14 53.17 167.547 52.9844 168.051C52.7988 168.555 52.706 169.098 52.706 169.682C52.706 170.265 52.7988 170.807 52.9844 171.307C53.17 171.807 53.456 172.21 53.8423 172.517C54.2287 172.824 54.7211 172.977 55.3196 172.977ZM62.6619 168.75V174H61.321V165.273H62.6165V166.636H62.7301C62.9347 166.193 63.2453 165.837 63.6619 165.568C64.0786 165.295 64.6165 165.159 65.2756 165.159C65.8665 165.159 66.3835 165.28 66.8267 165.523C67.2699 165.761 67.6146 166.125 67.8608 166.614C68.107 167.098 68.2301 167.712 68.2301 168.455V174H66.8892V168.545C66.8892 167.86 66.7112 167.326 66.3551 166.943C65.9991 166.557 65.5104 166.364 64.8892 166.364C64.4612 166.364 64.0786 166.456 63.7415 166.642C63.4081 166.828 63.1449 167.098 62.9517 167.455C62.7585 167.811 62.6619 168.242 62.6619 168.75ZM72.0213 162.364V174H70.6804V162.364H72.0213ZM74.4773 174V165.273H75.8182V174H74.4773ZM75.1591 163.818C74.8977 163.818 74.6723 163.729 74.483 163.551C74.2973 163.373 74.2045 163.159 74.2045 162.909C74.2045 162.659 74.2973 162.445 74.483 162.267C74.6723 162.089 74.8977 162 75.1591 162C75.4205 162 75.6439 162.089 75.8295 162.267C76.0189 162.445 76.1136 162.659 76.1136 162.909C76.1136 163.159 76.0189 163.373 75.8295 163.551C75.6439 163.729 75.4205 163.818 75.1591 163.818ZM79.6151 168.75V174H78.2741V165.273H79.5696V166.636H79.6832C79.8878 166.193 80.1984 165.837 80.6151 165.568C81.0317 165.295 81.5696 165.159 82.2287 165.159C82.8196 165.159 83.3366 165.28 83.7798 165.523C84.223 165.761 84.5677 166.125 84.8139 166.614C85.0601 167.098 85.1832 167.712 85.1832 168.455V174H83.8423V168.545C83.8423 167.86 83.6643 167.326 83.3082 166.943C82.9522 166.557 82.4635 166.364 81.8423 166.364C81.4143 166.364 81.0317 166.456 80.6946 166.642C80.3613 166.828 80.098 167.098 79.9048 167.455C79.7116 167.811 79.6151 168.242 79.6151 168.75ZM91.2926 174.182C90.4517 174.182 89.7263 173.996 89.1165 173.625C88.5104 173.25 88.0426 172.727 87.7131 172.057C87.3873 171.383 87.2244 170.598 87.2244 169.705C87.2244 168.811 87.3873 168.023 87.7131 167.341C88.0426 166.655 88.5009 166.121 89.0881 165.739C89.679 165.352 90.3684 165.159 91.1562 165.159C91.6108 165.159 92.0597 165.235 92.5028 165.386C92.946 165.538 93.3494 165.784 93.7131 166.125C94.0767 166.462 94.3665 166.909 94.5824 167.466C94.7983 168.023 94.9062 168.708 94.9062 169.523V170.091H88.179V168.932H93.5426C93.5426 168.439 93.4441 168 93.2472 167.614C93.054 167.227 92.7775 166.922 92.4176 166.699C92.0616 166.475 91.6411 166.364 91.1562 166.364C90.6222 166.364 90.16 166.496 89.7699 166.761C89.3835 167.023 89.0862 167.364 88.8778 167.784C88.6695 168.205 88.5653 168.655 88.5653 169.136V169.909C88.5653 170.568 88.679 171.127 88.9062 171.585C89.1373 172.04 89.4574 172.386 89.8665 172.625C90.2756 172.86 90.7509 172.977 91.2926 172.977C91.6449 172.977 91.9631 172.928 92.2472 172.83C92.535 172.727 92.7831 172.576 92.9915 172.375C93.1998 172.17 93.3608 171.917 93.4744 171.614L94.7699 171.977C94.6335 172.417 94.4044 172.803 94.0824 173.136C93.7604 173.466 93.3627 173.723 92.8892 173.909C92.4157 174.091 91.8835 174.182 91.2926 174.182ZM105.241 165.273V166.409H100.719V165.273H105.241ZM102.037 163.182H103.378V171.5C103.378 171.879 103.433 172.163 103.543 172.352C103.656 172.538 103.8 172.663 103.974 172.727C104.152 172.788 104.34 172.818 104.537 172.818C104.685 172.818 104.806 172.811 104.901 172.795C104.995 172.777 105.071 172.761 105.128 172.75L105.401 173.955C105.31 173.989 105.183 174.023 105.02 174.057C104.857 174.095 104.651 174.114 104.401 174.114C104.022 174.114 103.651 174.032 103.287 173.869C102.927 173.706 102.628 173.458 102.389 173.125C102.154 172.792 102.037 172.371 102.037 171.864V163.182ZM107.259 174V165.273H108.554V166.591H108.645C108.804 166.159 109.092 165.809 109.509 165.54C109.925 165.271 110.395 165.136 110.918 165.136C111.016 165.136 111.139 165.138 111.287 165.142C111.435 165.146 111.546 165.152 111.622 165.159V166.523C111.577 166.511 111.473 166.494 111.31 166.472C111.151 166.445 110.982 166.432 110.804 166.432C110.38 166.432 110.001 166.521 109.668 166.699C109.338 166.873 109.077 167.116 108.884 167.426C108.694 167.733 108.599 168.083 108.599 168.477V174H107.259ZM115.78 174.205C115.227 174.205 114.725 174.1 114.274 173.892C113.823 173.68 113.465 173.375 113.2 172.977C112.935 172.576 112.803 172.091 112.803 171.523C112.803 171.023 112.901 170.617 113.098 170.307C113.295 169.992 113.558 169.746 113.888 169.568C114.217 169.39 114.581 169.258 114.979 169.17C115.38 169.08 115.784 169.008 116.189 168.955C116.719 168.886 117.149 168.835 117.479 168.801C117.812 168.763 118.054 168.701 118.206 168.614C118.361 168.527 118.439 168.375 118.439 168.159V168.114C118.439 167.553 118.286 167.117 117.979 166.807C117.676 166.496 117.215 166.341 116.598 166.341C115.958 166.341 115.456 166.481 115.092 166.761C114.729 167.042 114.473 167.341 114.325 167.659L113.053 167.205C113.28 166.674 113.583 166.261 113.962 165.966C114.344 165.667 114.761 165.458 115.212 165.341C115.666 165.22 116.113 165.159 116.553 165.159C116.833 165.159 117.155 165.193 117.518 165.261C117.886 165.326 118.24 165.46 118.581 165.665C118.926 165.869 119.212 166.178 119.439 166.591C119.666 167.004 119.78 167.557 119.78 168.25V174H118.439V172.818H118.371C118.28 173.008 118.128 173.21 117.916 173.426C117.704 173.642 117.422 173.826 117.07 173.977C116.717 174.129 116.287 174.205 115.78 174.205ZM115.984 173C116.515 173 116.962 172.896 117.325 172.688C117.693 172.479 117.969 172.21 118.155 171.881C118.344 171.551 118.439 171.205 118.439 170.841V169.614C118.382 169.682 118.257 169.744 118.064 169.801C117.875 169.854 117.655 169.902 117.405 169.943C117.159 169.981 116.918 170.015 116.683 170.045C116.452 170.072 116.265 170.095 116.121 170.114C115.772 170.159 115.446 170.233 115.143 170.335C114.844 170.434 114.602 170.583 114.416 170.784C114.234 170.981 114.143 171.25 114.143 171.591C114.143 172.057 114.316 172.409 114.661 172.648C115.009 172.883 115.45 173 115.984 173ZM125.523 174.182C124.795 174.182 124.153 173.998 123.597 173.631C123.04 173.259 122.604 172.737 122.29 172.062C121.975 171.384 121.818 170.583 121.818 169.659C121.818 168.742 121.975 167.947 122.29 167.273C122.604 166.598 123.042 166.078 123.602 165.71C124.163 165.343 124.811 165.159 125.545 165.159C126.114 165.159 126.563 165.254 126.892 165.443C127.225 165.629 127.479 165.841 127.653 166.08C127.831 166.314 127.97 166.508 128.068 166.659H128.182V162.364H129.523V174H128.227V172.659H128.068C127.97 172.818 127.83 173.019 127.648 173.261C127.466 173.5 127.206 173.714 126.869 173.903C126.532 174.089 126.083 174.182 125.523 174.182ZM125.705 172.977C126.242 172.977 126.697 172.837 127.068 172.557C127.439 172.273 127.722 171.881 127.915 171.381C128.108 170.877 128.205 170.295 128.205 169.636C128.205 168.985 128.11 168.415 127.92 167.926C127.731 167.434 127.451 167.051 127.08 166.778C126.708 166.502 126.25 166.364 125.705 166.364C125.136 166.364 124.663 166.509 124.284 166.801C123.909 167.089 123.627 167.481 123.438 167.977C123.252 168.47 123.159 169.023 123.159 169.636C123.159 170.258 123.254 170.822 123.443 171.33C123.636 171.833 123.92 172.235 124.295 172.534C124.674 172.83 125.144 172.977 125.705 172.977ZM132.165 174V165.273H133.506V174H132.165ZM132.847 163.818C132.585 163.818 132.36 163.729 132.17 163.551C131.985 163.373 131.892 163.159 131.892 162.909C131.892 162.659 131.985 162.445 132.17 162.267C132.36 162.089 132.585 162 132.847 162C133.108 162 133.331 162.089 133.517 162.267C133.706 162.445 133.801 162.659 133.801 162.909C133.801 163.159 133.706 163.373 133.517 163.551C133.331 163.729 133.108 163.818 132.847 163.818ZM137.303 168.75V174H135.962V165.273H137.257V166.636H137.371C137.575 166.193 137.886 165.837 138.303 165.568C138.719 165.295 139.257 165.159 139.916 165.159C140.507 165.159 141.024 165.28 141.467 165.523C141.911 165.761 142.255 166.125 142.501 166.614C142.748 167.098 142.871 167.712 142.871 168.455V174H141.53V168.545C141.53 167.86 141.352 167.326 140.996 166.943C140.64 166.557 140.151 166.364 139.53 166.364C139.102 166.364 138.719 166.456 138.382 166.642C138.049 166.828 137.786 167.098 137.592 167.455C137.399 167.811 137.303 168.242 137.303 168.75ZM148.844 177.455C148.196 177.455 147.639 177.371 147.173 177.205C146.707 177.042 146.319 176.826 146.009 176.557C145.702 176.292 145.457 176.008 145.276 175.705L146.344 174.955C146.465 175.114 146.618 175.295 146.804 175.5C146.99 175.708 147.243 175.888 147.565 176.04C147.891 176.195 148.317 176.273 148.844 176.273C149.548 176.273 150.13 176.102 150.588 175.761C151.046 175.42 151.276 174.886 151.276 174.159V172.386H151.162C151.063 172.545 150.923 172.742 150.741 172.977C150.563 173.208 150.306 173.415 149.969 173.597C149.635 173.775 149.185 173.864 148.616 173.864C147.912 173.864 147.279 173.697 146.719 173.364C146.162 173.03 145.721 172.545 145.395 171.909C145.073 171.273 144.912 170.5 144.912 169.591C144.912 168.697 145.069 167.919 145.384 167.256C145.698 166.589 146.135 166.074 146.696 165.71C147.257 165.343 147.904 165.159 148.639 165.159C149.207 165.159 149.658 165.254 149.991 165.443C150.329 165.629 150.586 165.841 150.764 166.08C150.946 166.314 151.086 166.508 151.185 166.659H151.321V165.273H152.616V174.25C152.616 175 152.446 175.61 152.105 176.08C151.768 176.553 151.313 176.9 150.741 177.119C150.173 177.343 149.541 177.455 148.844 177.455ZM148.798 172.659C149.336 172.659 149.791 172.536 150.162 172.29C150.533 172.044 150.815 171.689 151.009 171.227C151.202 170.765 151.298 170.212 151.298 169.568C151.298 168.939 151.204 168.384 151.014 167.903C150.825 167.422 150.545 167.045 150.173 166.773C149.802 166.5 149.344 166.364 148.798 166.364C148.23 166.364 147.757 166.508 147.378 166.795C147.003 167.083 146.721 167.47 146.531 167.955C146.346 168.439 146.253 168.977 146.253 169.568C146.253 170.174 146.348 170.71 146.537 171.176C146.73 171.638 147.014 172.002 147.389 172.267C147.768 172.528 148.238 172.659 148.798 172.659ZM163.23 174.182C162.389 174.182 161.664 173.996 161.054 173.625C160.448 173.25 159.98 172.727 159.651 172.057C159.325 171.383 159.162 170.598 159.162 169.705C159.162 168.811 159.325 168.023 159.651 167.341C159.98 166.655 160.438 166.121 161.026 165.739C161.616 165.352 162.306 165.159 163.094 165.159C163.548 165.159 163.997 165.235 164.44 165.386C164.884 165.538 165.287 165.784 165.651 166.125C166.014 166.462 166.304 166.909 166.52 167.466C166.736 168.023 166.844 168.708 166.844 169.523V170.091H160.116V168.932H165.48C165.48 168.439 165.382 168 165.185 167.614C164.991 167.227 164.715 166.922 164.355 166.699C163.999 166.475 163.579 166.364 163.094 166.364C162.56 166.364 162.098 166.496 161.707 166.761C161.321 167.023 161.024 167.364 160.815 167.784C160.607 168.205 160.503 168.655 160.503 169.136V169.909C160.503 170.568 160.616 171.127 160.844 171.585C161.075 172.04 161.395 172.386 161.804 172.625C162.213 172.86 162.688 172.977 163.23 172.977C163.582 172.977 163.901 172.928 164.185 172.83C164.473 172.727 164.721 172.576 164.929 172.375C165.137 172.17 165.298 171.917 165.412 171.614L166.707 171.977C166.571 172.417 166.342 172.803 166.02 173.136C165.698 173.466 165.3 173.723 164.827 173.909C164.353 174.091 163.821 174.182 163.23 174.182ZM169.649 165.273L171.74 168.841L173.831 165.273H175.376L172.558 169.636L175.376 174H173.831L171.74 170.614L169.649 174H168.104L170.876 169.636L168.104 165.273H169.649ZM177.29 177.273V165.273H178.585V166.659H178.744C178.843 166.508 178.979 166.314 179.153 166.08C179.331 165.841 179.585 165.629 179.915 165.443C180.248 165.254 180.699 165.159 181.267 165.159C182.002 165.159 182.65 165.343 183.21 165.71C183.771 166.078 184.208 166.598 184.523 167.273C184.837 167.947 184.994 168.742 184.994 169.659C184.994 170.583 184.837 171.384 184.523 172.062C184.208 172.737 183.773 173.259 183.216 173.631C182.659 173.998 182.017 174.182 181.29 174.182C180.729 174.182 180.28 174.089 179.943 173.903C179.606 173.714 179.347 173.5 179.165 173.261C178.983 173.019 178.843 172.818 178.744 172.659H178.631V177.273H177.29ZM178.608 169.636C178.608 170.295 178.705 170.877 178.898 171.381C179.091 171.881 179.373 172.273 179.744 172.557C180.116 172.837 180.57 172.977 181.108 172.977C181.669 172.977 182.136 172.83 182.511 172.534C182.89 172.235 183.174 171.833 183.364 171.33C183.557 170.822 183.653 170.258 183.653 169.636C183.653 169.023 183.559 168.47 183.369 167.977C183.184 167.481 182.902 167.089 182.523 166.801C182.148 166.509 181.676 166.364 181.108 166.364C180.563 166.364 180.104 166.502 179.733 166.778C179.362 167.051 179.081 167.434 178.892 167.926C178.703 168.415 178.608 168.985 178.608 169.636ZM190.699 174.182C189.858 174.182 189.133 173.996 188.523 173.625C187.917 173.25 187.449 172.727 187.119 172.057C186.794 171.383 186.631 170.598 186.631 169.705C186.631 168.811 186.794 168.023 187.119 167.341C187.449 166.655 187.907 166.121 188.494 165.739C189.085 165.352 189.775 165.159 190.562 165.159C191.017 165.159 191.466 165.235 191.909 165.386C192.352 165.538 192.756 165.784 193.119 166.125C193.483 166.462 193.773 166.909 193.989 167.466C194.205 168.023 194.312 168.708 194.312 169.523V170.091H187.585V168.932H192.949C192.949 168.439 192.85 168 192.653 167.614C192.46 167.227 192.184 166.922 191.824 166.699C191.468 166.475 191.047 166.364 190.562 166.364C190.028 166.364 189.566 166.496 189.176 166.761C188.79 167.023 188.492 167.364 188.284 167.784C188.076 168.205 187.972 168.655 187.972 169.136V169.909C187.972 170.568 188.085 171.127 188.312 171.585C188.544 172.04 188.864 172.386 189.273 172.625C189.682 172.86 190.157 172.977 190.699 172.977C191.051 172.977 191.369 172.928 191.653 172.83C191.941 172.727 192.189 172.576 192.398 172.375C192.606 172.17 192.767 171.917 192.881 171.614L194.176 171.977C194.04 172.417 193.811 172.803 193.489 173.136C193.167 173.466 192.769 173.723 192.295 173.909C191.822 174.091 191.29 174.182 190.699 174.182ZM196.352 174V165.273H197.648V166.591H197.739C197.898 166.159 198.186 165.809 198.602 165.54C199.019 165.271 199.489 165.136 200.011 165.136C200.11 165.136 200.233 165.138 200.381 165.142C200.528 165.146 200.64 165.152 200.716 165.159V166.523C200.67 166.511 200.566 166.494 200.403 166.472C200.244 166.445 200.076 166.432 199.898 166.432C199.473 166.432 199.095 166.521 198.761 166.699C198.432 166.873 198.17 167.116 197.977 167.426C197.788 167.733 197.693 168.083 197.693 168.477V174H196.352ZM202.305 174V165.273H203.646V174H202.305ZM202.987 163.818C202.726 163.818 202.5 163.729 202.311 163.551C202.125 163.373 202.033 163.159 202.033 162.909C202.033 162.659 202.125 162.445 202.311 162.267C202.5 162.089 202.726 162 202.987 162C203.249 162 203.472 162.089 203.658 162.267C203.847 162.445 203.942 162.659 203.942 162.909C203.942 163.159 203.847 163.373 203.658 163.551C203.472 163.729 203.249 163.818 202.987 163.818ZM209.761 174.182C208.92 174.182 208.195 173.996 207.585 173.625C206.979 173.25 206.511 172.727 206.182 172.057C205.856 171.383 205.693 170.598 205.693 169.705C205.693 168.811 205.856 168.023 206.182 167.341C206.511 166.655 206.97 166.121 207.557 165.739C208.148 165.352 208.837 165.159 209.625 165.159C210.08 165.159 210.528 165.235 210.972 165.386C211.415 165.538 211.818 165.784 212.182 166.125C212.545 166.462 212.835 166.909 213.051 167.466C213.267 168.023 213.375 168.708 213.375 169.523V170.091H206.648V168.932H212.011C212.011 168.439 211.913 168 211.716 167.614C211.523 167.227 211.246 166.922 210.886 166.699C210.53 166.475 210.11 166.364 209.625 166.364C209.091 166.364 208.629 166.496 208.239 166.761C207.852 167.023 207.555 167.364 207.347 167.784C207.138 168.205 207.034 168.655 207.034 169.136V169.909C207.034 170.568 207.148 171.127 207.375 171.585C207.606 172.04 207.926 172.386 208.335 172.625C208.744 172.86 209.22 172.977 209.761 172.977C210.114 172.977 210.432 172.928 210.716 172.83C211.004 172.727 211.252 172.576 211.46 172.375C211.669 172.17 211.83 171.917 211.943 171.614L213.239 171.977C213.102 172.417 212.873 172.803 212.551 173.136C212.229 173.466 211.831 173.723 211.358 173.909C210.884 174.091 210.352 174.182 209.761 174.182ZM216.756 168.75V174H215.415V165.273H216.71V166.636H216.824C217.028 166.193 217.339 165.837 217.756 165.568C218.172 165.295 218.71 165.159 219.369 165.159C219.96 165.159 220.477 165.28 220.92 165.523C221.364 165.761 221.708 166.125 221.955 166.614C222.201 167.098 222.324 167.712 222.324 168.455V174H220.983V168.545C220.983 167.86 220.805 167.326 220.449 166.943C220.093 166.557 219.604 166.364 218.983 166.364C218.555 166.364 218.172 166.456 217.835 166.642C217.502 166.828 217.239 167.098 217.045 167.455C216.852 167.811 216.756 168.242 216.756 168.75ZM228.32 174.182C227.501 174.182 226.797 173.989 226.206 173.602C225.615 173.216 225.161 172.684 224.842 172.006C224.524 171.328 224.365 170.553 224.365 169.682C224.365 168.795 224.528 168.013 224.854 167.335C225.183 166.653 225.642 166.121 226.229 165.739C226.82 165.352 227.509 165.159 228.297 165.159C228.911 165.159 229.464 165.273 229.956 165.5C230.448 165.727 230.852 166.045 231.166 166.455C231.481 166.864 231.676 167.341 231.751 167.886H230.411C230.308 167.489 230.081 167.136 229.729 166.83C229.38 166.519 228.911 166.364 228.32 166.364C227.797 166.364 227.339 166.5 226.945 166.773C226.554 167.042 226.25 167.422 226.03 167.915C225.814 168.403 225.706 168.977 225.706 169.636C225.706 170.311 225.812 170.898 226.024 171.398C226.24 171.898 226.543 172.286 226.933 172.562C227.327 172.839 227.789 172.977 228.32 172.977C228.668 172.977 228.984 172.917 229.268 172.795C229.553 172.674 229.793 172.5 229.99 172.273C230.187 172.045 230.327 171.773 230.411 171.455H231.751C231.676 171.97 231.488 172.434 231.189 172.847C230.893 173.256 230.501 173.581 230.013 173.824C229.528 174.062 228.964 174.182 228.32 174.182ZM237.371 174.182C236.53 174.182 235.804 173.996 235.195 173.625C234.589 173.25 234.121 172.727 233.791 172.057C233.465 171.383 233.303 170.598 233.303 169.705C233.303 168.811 233.465 168.023 233.791 167.341C234.121 166.655 234.579 166.121 235.166 165.739C235.757 165.352 236.446 165.159 237.234 165.159C237.689 165.159 238.138 165.235 238.581 165.386C239.024 165.538 239.428 165.784 239.791 166.125C240.155 166.462 240.445 166.909 240.661 167.466C240.876 168.023 240.984 168.708 240.984 169.523V170.091H234.257V168.932H239.621C239.621 168.439 239.522 168 239.325 167.614C239.132 167.227 238.856 166.922 238.496 166.699C238.14 166.475 237.719 166.364 237.234 166.364C236.7 166.364 236.238 166.496 235.848 166.761C235.462 167.023 235.164 167.364 234.956 167.784C234.748 168.205 234.643 168.655 234.643 169.136V169.909C234.643 170.568 234.757 171.127 234.984 171.585C235.215 172.04 235.536 172.386 235.945 172.625C236.354 172.86 236.829 172.977 237.371 172.977C237.723 172.977 238.041 172.928 238.325 172.83C238.613 172.727 238.861 172.576 239.07 172.375C239.278 172.17 239.439 171.917 239.553 171.614L240.848 171.977C240.712 172.417 240.482 172.803 240.161 173.136C239.839 173.466 239.441 173.723 238.967 173.909C238.494 174.091 237.962 174.182 237.371 174.182ZM244.001 174.091C243.721 174.091 243.481 173.991 243.28 173.79C243.079 173.589 242.979 173.348 242.979 173.068C242.979 172.788 243.079 172.547 243.28 172.347C243.481 172.146 243.721 172.045 244.001 172.045C244.282 172.045 244.522 172.146 244.723 172.347C244.924 172.547 245.024 172.788 245.024 173.068C245.024 173.254 244.977 173.424 244.882 173.58C244.791 173.735 244.668 173.86 244.513 173.955C244.361 174.045 244.191 174.091 244.001 174.091Z" fill="white"/>
</svg>
